<?xml version="1.0" encoding="UTF-8"?>
<svg width="540px" height="481px" viewBox="0 0 540 481" version="1.1" xmlns="http://www.w3.org/2000/svg" xmlns:xlink="http://www.w3.org/1999/xlink">
    <title>Illustration</title>
    <g id="⚡️-UI-Kit" stroke="none" stroke-width="1" fill="none" fill-rule="evenodd">
        <g id="About-Desktop" transform="translate(-735.000000, -394.000000)">
            <g id="Content">
                <g id="Section-01">
                    <g id="Contant" transform="translate(165.000000, 312.000000)">
                        <g id="Illustration" transform="translate(570.000000, 82.000000)">
                            <path d="M77,411.615011 C70.4985244,414.316718 66.2569059,420.711018 66.260523,427.804923 L66.260523,479 L15,479 L15,427.459932 C15.0020745,417.817945 22.7490372,410.002093 32.3060396,410 L77,410 L77,411.615011 Z" id="Path" fill="#000000" fill-rule="nonzero"></path>
                            <path d="M69.9385527,419.200796 C67.0063072,424.794402 67.8227876,425.737857 68.0744424,442.798355 C68.0986759,445.725676 68.2478047,477.598044 68.0129268,478.500479 C67.888697,478.876463 67.6628877,479.210737 67.3604882,479.466308 C66.3314993,480.19907 70.8090923,479.964139 15.1374381,479.964139 C14.0927247,479.956373 13.2051889,479.197703 13.0347217,478.166727 C12.9974395,477.702458 12.9713419,426.951669 13.0589551,425.653952 C13.6524687,418.392408 18.2950527,412.088775 25.0526408,409.369101 C29.9123763,407.504565 30.6766616,407.993073 55.3761231,408.274618 C78.5749758,408.606506 76.787294,408.507685 77.3372065,408.774314 C77.758833,409.018902 78.0127921,409.474701 77.9995028,409.962023 C77.9784605,411.763164 77.987781,411.453651 77.9635476,411.772487 C77.8862395,412.221602 77.5855258,412.600391 77.1657084,412.777471 L77.1489314,412.756961 C74.1274878,414.092568 71.6042911,416.34752 69.9385527,419.200796 L69.9385527,419.200796 Z M54.3135802,411.319405 L54.3135802,411.651292 L32.3003016,411.906733 C25.1344607,411.994142 19.000778,417.070727 17.5738302,424.095201 C17.1898235,426.14619 17.2643879,421.878268 17.2643879,475.694353 L63.8671455,475.694353 C63.8671455,426.297217 63.8429121,424.190292 65.7722662,420.239342 C67.4609263,416.433122 70.3620921,413.2933 74.0228184,411.310082 L54.3135802,411.319405 Z" id="Shape" fill="#000000" fill-rule="nonzero"></path>
                            <path d="M346.777273,153 L347.570915,153.600722 C347.949741,155.610686 347.73381,153.396703 346.847356,160.510918 C346.112433,165.260024 345.669206,173.492564 345.608594,174.20663 C344.661528,190.998518 347.154206,209.184536 362.496674,216.302528 C366.737635,218.102806 367.713113,217.536087 368.838228,218.695972 C369.523904,219.750069 369.243572,219.162571 369.361008,226.0841 C369.361008,235.30651 370.023954,251.775368 369.999331,252.555551 C369.915782,253.309494 369.308317,253.898703 368.55032,253.961015 C366.418708,254.165762 364.303266,254.512869 362.218237,255 L361.187829,254.784647 L360.594966,253.945902 L360.594966,253.93079 L360.795744,252.927697 L361.659468,252.317529 L361.659468,252.317529 C363.364187,251.909492 364.940104,251.401333 366.728165,251.051857 C366.728165,250.832725 364.913586,235.287619 364.913586,221.790258 C356.454393,219.568719 349.711284,214.01865 345.44191,204.628114 C343.204351,199.53982 341.844806,194.111082 341.420668,188.571071 C340.696573,181.383709 340.907945,174.133116 342.04952,166.999852 C342.763357,162.596593 343.795187,158.250512 345.136955,153.995537 L345.782854,153.179461 L346.758332,153.009445 L346.777273,153 Z" id="Path" fill="#000000" fill-rule="nonzero"></path>
                            <path d="M416.709206,164.001732 C422.528802,165.664827 426.653644,170.811523 426.989587,176.828887 C427.014656,177.486715 426.994447,178.145479 426.929103,178.800559 C426.707679,180.890592 426.017148,182.904364 424.908561,184.692998 C420.778642,190.735946 414.960842,192.767822 407.72545,193.843963 C405.539391,201.523323 402.769291,209.025931 399.43915,216.286781 C399.667855,226.77916 399.495854,233.871911 400.144166,247.009491 C402.058861,247.237137 403.87905,247.556969 405.750272,247.923835 C408.046771,248.382889 407.483515,248.189108 408.570336,248.900264 L408.814161,249.895507 C408.79904,249.916202 408.247124,250.740241 408.247124,250.762817 C407.569265,251.045107 406.812261,251.076475 406.113175,250.851241 C398.306966,249.790151 398.552682,250.490019 397.513114,249.7751 L397.513114,249.7751 C396.878033,249.174944 396.878033,249.511708 395.842245,237.324218 C395.040833,225.488543 395.216615,223.607177 395.057844,216.723258 C394.904019,215.903498 395.059488,215.056067 395.494463,214.34333 C398.911828,206.988489 401.681177,199.352195 403.771313,191.520476 C404.33835,189.146192 405.850448,189.898738 409.917993,189.057767 C413.697708,188.417969 417.195606,186.658108 419.954548,184.008181 C421.886372,181.896329 422.818528,179.062906 422.515851,176.222731 C422.213175,173.382556 420.704568,170.80684 418.370625,169.145387 C416.622352,167.813542 414.586461,166.905308 412.424297,166.492661 C410.642085,166.108299 408.831903,165.866089 407.010984,165.768335 L406.065922,165.329977 L405.687898,164.421277 L405.687898,164.406226 L406.096164,163.50317 L407.041226,163.085507 L407.041226,163.085507 C410.292866,162.832353 413.563983,163.142354 416.709206,164.001732 L416.709206,164.001732 Z M395.857366,213.967056 C395.640002,214.155193 395.789322,214.02726 396.004796,213.856056 L395.857366,213.967056 Z" id="Shape" fill="#000000" fill-rule="nonzero"></path>
                            <path d="M359.888051,164 L360.551561,164.584222 L360.786706,165.603854 C360.786706,172.638398 358.898255,173.520242 359.308391,186.86732 C365.126864,186.817716 363.880049,186.555 365.506013,187.107989 L366,187.923695 L366,187.936555 L365.715639,188.855143 L364.824275,189.42283 L364.824275,189.42283 C362.470706,190.084395 360.079668,190.602195 357.664199,190.973406 C357.113544,191.061284 356.550582,190.929486 356.094742,190.605971 C355.815249,190.387485 355.591009,190.105452 355.440346,189.782917 C354.643769,187.333962 354.893497,175.006517 356.472068,169.206554 C356.472068,169.055906 357.361609,166.85497 357.361609,166.840273 C357.436345,166.689624 358.200111,165.076585 358.293075,164.922262 L358.293075,164.922262 L359.022207,164.170857 L359.878937,164.014697 L359.888051,164 Z" id="Path" fill="#000000" fill-rule="nonzero"></path>
                            <path d="M384.909535,190.286683 C385.499613,191.153943 385.643855,190.986261 385.952944,193.750314 C386.216768,196.517447 385.36422,199.276187 383.572023,201.454686 C382.334688,203.094548 380.539953,204.265742 378.49922,204.76506 C375.085171,205.535508 371.512345,204.378039 369.277133,201.77743 C368.732298,201.04795 368.310027,200.240547 368.025792,199.384801 C368.025792,198.08301 367.838465,198.591466 368.473502,197.621432 L368.473502,197.621432 C371.551278,198.342647 369.370797,197.787312 372.416726,199.397423 C373.450452,200.078318 374.619625,200.545522 375.850422,200.769533 C377.852505,200.908928 379.745142,199.875386 380.647855,198.149722 C381.817093,196.191603 382.545921,194.018907 382.787125,191.772384 C382.811477,191.361292 382.736546,191.646172 383.174891,190.48682 L383.986015,190 L383.986015,190 L384.909535,190.286683 Z" id="Path" fill="#000000" fill-rule="nonzero"></path>
                            <path d="M383.311241,152.848013 C384.364073,153.624875 385.295116,154.576271 386.069535,155.666605 C386.580959,156.251607 386.906664,156.995209 387,157.790905 L386.670843,158.708081 L386.652455,158.717944 L385.790028,159 C385.170375,158.859836 384.588275,158.571246 384.087241,158.155803 C382.992484,157.494242 381.847731,156.932747 380.665116,156.477271 C378.821,155.474118 376.677603,155.31127 374.720072,156.025586 L374.720072,156.025586 C374.457842,156.137387 374.203426,156.26922 373.958783,156.420071 L373.958783,156.420071 C373.761017,156.544457 373.571194,156.682833 373.390574,156.83428 C373.390574,156.83428 372.160374,157.522655 371.856962,157.71398 C370.7279,158.333321 372.057398,157.98223 369.343236,158.601571 C368.975464,156.737631 368.719862,156.708044 369.571255,154.911167 C370.041342,153.863714 370.815682,153.008215 371.777891,152.473252 L371.777891,152.473252 C372.208504,152.199595 372.658584,151.962826 373.123939,151.765152 L373.123939,151.765152 C376.49678,150.447682 380.245067,150.846106 383.311241,152.848013 Z" id="Path" fill="#000000" fill-rule="nonzero"></path>
                            <ellipse id="Oval" fill="#000000" fill-rule="nonzero" cx="378" cy="170.5" rx="4" ry="5.5"></ellipse>
                            <path d="M416.176909,167 C418.928848,151.23793 420.782649,130.390414 404.562355,121.36211 C398.126939,117.775139 390.897301,116.834846 383.964568,114.682663 C379.087903,104.597935 368.655402,88.8695807 357.940842,85.947557 C345.148837,82.7044345 331.721498,87.9594753 324.438819,99.059202 C315.22734,112.848906 317.387324,132.731779 333.446176,140.004996 C345.934744,145.657988 363.977292,143.844835 377.503172,141.160694 C381.66541,140.33466 385.59569,143.753053 389.646588,145.000533 C391.775026,155.379336 397.997043,162.455878 408.125216,165.018269 C411.005195,165.746901 416.176909,167 416.176909,167 Z" id="Path" fill="#000000" fill-rule="nonzero"></path>
                            <path d="M357.974618,85.0057084 C369.567917,88.1292095 379.984622,103.409701 385.415345,114.2224 C393.884195,116.572086 401.471069,117.750694 408.136559,122.318274 C422.668528,132.780779 421.054699,151.312799 417.782003,168.869549 C417.568077,168.831894 414.893999,168.361203 417.798892,168.869549 C417.707051,169.394965 417.318569,169.818563 416.804323,169.954019 C416.307038,170.042509 416.969459,170.15924 410.469105,168.660562 C406.698876,168.015029 403.075504,166.692901 399.772795,164.757598 C393.293083,160.688951 390.014758,155.204467 388.089422,147.929477 C384.955591,146.79982 381.799241,144.621465 378.995682,144.480258 C376.657506,144.376706 344.388428,153.395133 326.493689,140.300528 C311.950461,129.003959 313.661871,107.500941 324.669687,95.5115169 C332.916962,86.0014802 345.787091,81.9416879 357.974618,85.0057084 L357.974618,85.0057084 Z M343.149908,89.1477835 C323.433044,94.2933703 315.78612,115.947009 323.029586,129.536781 C329.48678,143.207511 350.095003,144.092409 365.118627,142.527834 C376.783235,141.234377 376.830149,140.217686 380.183536,140.722266 C383.827787,141.369936 386.391148,143.39767 389.992239,144.725017 C392.15965,145.399045 390.742858,146.573889 393.491997,152.751229 C394.372441,154.684234 395.515483,156.485578 396.888544,158.103919 C401.97023,164.055328 408.335473,165.173688 415.357506,166.943484 C415.357506,165.375144 418.994252,148.317326 413.90506,136.203639 C412.55381,132.790765 410.391126,129.761252 407.605496,127.379136 C401.191463,121.875825 392.086464,120.76123 383.915985,118.341882 C381.230648,117.526646 383.002107,117.893784 377.348075,108.739798 C372.821847,101.692623 365.278134,91.7742356 357.269037,89.3605355 C352.662366,88.0575392 347.796029,87.9867884 343.153661,89.1553145 L343.149908,89.1477835 Z" id="Shape" fill="#010101"></path>
                            <path d="M193.963654,6.86625062 C219.725759,17.5240339 239.063157,39.6928048 246.238078,66.7946738 L246.238078,66.7946738 C254.11663,93.164319 249.477124,121.719655 233.66411,144.185227 C225.622477,155.64148 214.982721,165.000069 202.628598,171.483657 C196.529332,174.734533 190.075852,177.261119 183.397823,179.012653 C158.885849,185.495319 132.797652,181.322945 111.485819,167.51152 C45.5020721,122.935321 62.6932754,27.1794553 131.576432,4.60364119 C151.963775,-2.2357774 174.117617,-1.43231973 193.963654,6.86625062 Z M146.219557,8.11766917 C108.655427,14.6740134 80.295382,46.0606581 77.3471239,84.3402064 C74.3988658,122.619755 97.6138696,158.035221 133.724813,170.346747 C169.835756,182.658272 209.638404,168.7278 230.385632,136.516564 C243.948371,116.018161 248.043237,90.6132777 241.615296,66.8468162 L241.580162,66.8579896 C228.856416,25.2129404 186.881552,0.342858984 146.219557,8.11766917 Z M246.226983,66.796536 L246.226983,66.796536 C245.833122,65.5115973 245.868255,65.6121577 246.226983,66.796536 Z" id="Shape" fill="#010101"></path>
                            <path d="M157.075744,55.8542066 C157.681356,60.7558576 159.593115,85.0770706 159.663359,86.1048362 C159.853206,88.5402355 160.143671,93.3666841 160.14557,93.3821102 C165.734666,93.8082569 179.787142,93.0369507 188.5258,93.0813008 C190.948248,93.0986552 190.350229,93.0157398 191.563352,93.5151606 L192,94.4561541 L192,94.469652 L191.620306,95.4337848 C190.114819,96.1665257 191.831036,95.6979571 184.609256,96.4692633 C174.6271,97.5355942 167.73945,98.449592 158.387587,97.7612012 C157.486649,97.8450128 156.616428,97.4045666 156.139798,96.6235246 C155.799972,95.9254925 155.874012,96.1453147 155.668977,92.5471713 C154.457753,71.3863854 152.544096,63.4207205 153.098449,47.207864 C153.138317,46.2070942 153.032002,46.6737345 153.535097,45.4435011 L154.417886,45 L154.427378,45 C156.090438,45.6575385 155.623414,44.6529122 157.075744,55.8542066 Z" id="Path" fill="#010101"></path>
                            <path d="M98.3815986,91.0005142 C99.2881624,91.1253059 100.185027,91.3187378 101.065239,91.5793098 C101.603088,91.7230244 101.265065,91.5793098 102.527515,92.2447279 L103,93.0420485 C102.50137,94.0834869 102.813247,93.736997 101.599353,94.5343175 C100.651196,94.9189023 99.675832,95.2243339 98.6822709,95.4477909 C97.9833382,95.5707814 97.2746127,95.6208969 96.5663596,95.5974116 C90.9506972,95.8494042 91.8545817,96.3061409 90.1943476,95.6978149 C89.3539592,95.4064484 89.9123506,95.7214392 88,94.3846969 C89.2307022,92.4475033 88.8796066,92.8648661 89.5911355,92.2821331 C90.0490834,91.9011428 90.5758536,91.6224855 91.1393177,91.4631569 C93.5414164,91.1444104 95.9605653,90.9898732 98.3815986,91.0005142 Z" id="Path" fill="#010101"></path>
                            <path d="M229.403551,87.0722017 C230.084621,87.0385854 230.766228,87.1246964 231.421587,87.3271509 C231.577427,87.3675179 232.35663,87.6203425 232.447372,87.6564603 C233.778921,88.1663588 233.110187,87.703201 235,89.4814719 C233.354798,91.3553487 233.849937,91.0154164 232.502607,91.5316886 C230.547696,92.3687719 228.200225,91.7866378 224.744117,91.9842235 C224.174768,92.0467779 223.603501,91.8869312 223.134423,91.5338132 C222.388756,91.1492647 222.970692,91.5550589 221,90.023239 C222.349303,87.9878943 222.047485,88.3575707 222.662956,87.8519214 C223.157701,87.3487634 223.809273,87.0630624 224.489644,87.0509559 C226.259124,86.9595991 227.515711,87.0063398 229.403551,87.0722017 Z" id="Path" fill="#010101"></path>
                            <path d="M154.83893,18.1729563 C155.285439,18.7379184 155.660388,19.340098 155.957733,19.9697868 C156.143171,20.8366219 156.273734,21.7110161 156.348877,22.5893285 C156.875501,26.8269297 157.627197,28.9740052 156.066991,32.452742 L155.232259,33 L155.203852,33 L154.246751,32.6351613 L153.431685,31.6172614 C152.903942,30.5729907 152.453676,29.5025986 152.08344,28.4121537 C151.864924,27.5894425 151.078265,21.6060882 151.078265,21.396306 C150.919735,20.6969328 151.00311,19.9743314 151.318633,19.3130772 C152.02007,18.0361418 151.019266,19.1069433 153.141059,17 L154.83893,18.1729563 Z" id="Path" fill="#010101"></path>
                            <path d="M162.253955,165.323916 C161.250404,163.786323 160.682648,162.050047 160.600772,160.268252 C159.798108,155.647273 159.909045,156.65958 160.300588,155.324196 C160.822646,154.223776 160.461556,154.813147 162.003802,153 C163.019009,153.542135 163.890534,154.277189 164.557536,155.153846 C165.053491,155.807832 164.940378,155.686434 165.260139,157.515245 C165.986669,162.063776 166.245523,162.179301 165.729991,164.55049 C165.529869,165.468811 165.729991,165.053706 164.226899,167 C162.127791,165.423776 162.495407,165.764476 162.253955,165.323916 Z" id="Path" fill="#010101"></path>
                            <path d="M374.774701,359.704398 C374.774701,359.704398 374.551848,376.138065 374.141429,383.616223 C392.359604,386.873111 410.319641,391.297703 428.504389,394.733664 C433.704275,395.714834 438.828021,398.400927 444.079907,397.697693 C472.072012,393.937163 500.476394,393.87001 528.683923,392.571732 C530.903346,392.461578 532.967035,391.393202 534.344093,389.641451 C535.721151,387.889701 536.277149,385.625582 535.869052,383.431554 C532.054563,362.935171 526.930818,342.795068 517.145745,324.126721 C497.980448,287.566009 460.920112,259.722042 419.993288,253.040385 C418.803144,252.851043 417.606101,253.33672 416.880784,254.303222 C408.326971,265.614659 395.66896,276.873866 381.566124,279.433116 C373.209163,280.945909 359.251181,279.701725 355.341981,270.527971 C353.928005,266.719019 353.675222,262.573429 354.615854,258.619625 C354.823349,257.513156 354.45086,256.377162 353.629366,255.611097 C352.807872,254.845032 351.652391,254.556152 350.569228,254.846037 C327.541157,261.134106 305.813059,270.457088 286.380339,284.814629 C279.470061,289.921936 271.805799,295.521695 266.22892,302.136199 C271.016547,306.125508 273.416254,312.31359 272.576496,318.504579 C276.441127,322.62139 278.383656,328.049536 276.158847,333.500067 C284.952227,347.971394 266.873335,360.206175 256,366.445746 C265.322654,384.556355 287.483458,418.225787 287.841878,419.136074 C287.945876,419.400953 290.777957,477.817882 290.870813,477.894361 C290.910562,477.929295 290.963241,477.945576 291.015667,477.93913 C307.763016,476.236072 324.679362,478.301006 341.502853,477.961514 C365.810467,477.469063 390.948206,476.484163 415.298533,476.439394 C415.401098,476.451242 415.493805,476.377332 415.5056,476.274312 C415.517395,476.171291 415.443811,476.078173 415.341246,476.066326 C398.586468,471.598831 375.296547,464.085231 362.081406,453.359512 C349.638819,458.177692 334.687287,455.888916 322.593836,450.887933 C313.800456,447.254246 307.129744,437.729808 320.523167,434.672511 C314.673294,429.544685 308.199435,419.594948 319.538903,416.994661 C313.005616,411.553457 303.357969,397.244415 317.717085,394.71501 C316.045693,385.01523 313.612889,375.104665 310.996232,365.597015 C292.254354,363.841727 293.511612,351.703944 300.410748,348.808933 C310.476243,344.585797 325.050783,347.118932 335.860976,347.077895 C334.895283,341.569538 333.989017,336.012683 333.431886,330.444636 C333.246176,328.566236 332.663046,325.663763 333.953732,324.025993 C336.700387,320.539668 342.934679,319.937162 346.851308,318.803034 C358.005066,315.592779 370.321369,310.170229 382.175254,311.309953 C387.118861,311.785615 391.8749,315.553607 387.289714,320.203906 C384.58763,322.942229 380.132441,323.878631 376.600232,324.971721 C372.921313,326.10958 369.34639,327.583201 365.660042,328.72106 C359.964309,330.489404 354.173863,331.655243 348.366704,332.990828 C348.584629,337.294666 349.064035,341.581119 349.802244,345.82625 C358.85533,345.399758 367.928221,345.774271 376.91594,346.945455 C380.711716,347.111388 384.466994,347.798622 388.077126,348.988005 C391.934327,350.623911 393.483151,355.352554 389.172816,357.568581 C384.951622,359.739839 379.469456,359.708129 374.774701,359.704398 Z" id="Path" fill="#000000"></path>
                            <path d="M373.547529,384.009502 C378.750933,383.947728 383.948797,384.388496 389.076299,385.32631 C408.617332,388.672137 440.045179,397.089533 446.05524,398.455257 C446.05524,396.592551 445.923782,397.281282 446.395922,395.923385 L447.282804,395.440099 L447.301319,395.440099 L448.238193,395.794248 C448.897337,397.132579 448.660341,396.404715 448.87697,398.355469 C449.021389,400.286657 449.275049,401.290405 448.016009,401.908698 C447.501284,402.059358 447.830856,402.073055 444.231485,401.560419 C422.846329,398.398515 407.482345,392.700826 384.83815,389.247384 C382.492263,388.889322 375.960071,387.562731 371.527511,386.854433 C371.125729,386.791821 371.355319,386.883782 370.325869,386.279186 L370,385.32631 L370,385.310657 L370.444367,384.412566 C371.638603,383.921454 370.955389,384.001675 373.547529,384.009502 Z" id="Path" fill="#000000" fill-rule="nonzero"></path>
                            <path d="M449.073394,398.000826 C449.827523,398.047165 455.077064,399.397034 456.324771,399.735509 C457.760558,400.051593 459.14486,400.603086 460.431193,401.37147 C461.302133,401.746424 462.091195,402.318998 462.746789,403.051755 L463,404.006738 L463,404.022856 L462.357798,404.725997 L461.166972,405 C456.418349,405 456.488073,404.417743 449.682569,402.882518 C448.533218,402.753118 447.437706,402.282265 446.513761,401.52056 C445.92844,401.117614 446.244037,401.480266 445,399.560227 C446.741284,398.206328 446.354128,398.41586 447.029358,398.258711 C447.697863,398.077162 448.384811,397.990494 449.073394,398.000826 Z" id="Path" fill="#000000" fill-rule="nonzero"></path>
                            <path d="M530.16593,394.315264 C530.806233,395.572568 530.616376,394.570478 530.921637,399.569667 C531.167687,405.143516 530.833926,410.728018 529.925817,416.231754 C527.64797,430.11556 521.136914,442.939203 511.29747,452.920623 C497.354131,467.505344 477.406091,474.917806 457.504584,475.897377 C436.713354,476.835663 419.832811,471.24723 400.772633,462.930261 C388.381655,457.503213 374.91482,451.644554 364.811437,443.104272 C359.996543,444.842862 354.991223,445.989598 349.90392,446.519634 C339.029939,447.566762 327.441202,445.945403 319.454168,438.63803 L319.444862,438.63803 L319,437.718509 L319.29037,436.761457 C319.316429,436.744568 320.170786,436.314833 320.198707,436.301697 C321.289455,436.635727 321.095875,436.530639 321.442085,436.823384 C322.469764,437.638728 323.558839,438.372181 324.69944,439.017097 C336.362631,445.282973 351.169635,443.425166 363.541999,438.936405 C368.040871,437.238107 364.083651,439.801505 383.584968,450.143296 C393.790726,455.362044 412.921635,463.986771 426.462924,467.845004 C479.524302,482.504788 524.310137,453.130799 527.95279,406.015694 C528.511194,395.296712 527.485593,396.820488 528.287833,394.467267 L529.196169,394 L529.196169,394 L530.16593,394.315264 Z" id="Path" fill="#000000" fill-rule="nonzero"></path>
                            <path d="M317.176443,399.227864 C318.179781,399.810388 320.41917,400.808213 321.277539,401.260267 C322.084406,401.679243 321.849785,401.583687 322.675727,402.043091 C325.901431,403.834214 329.446951,405.027197 333.128755,405.560286 C336.569514,405.993069 340.059773,405.89693 343.469242,405.275456 C345.836433,404.768274 344.331426,404.827078 346.227468,404.845454 L346.990463,405.45738 L347,405.470243 L347,406.425803 C346.638497,407.032214 346.07535,407.503519 345.401526,407.763587 C343.307195,408.886908 341.01299,409.622384 338.637577,409.931973 C332.555459,410.325906 326.486088,409.002721 321.172628,406.124434 C319.579775,405.388076 318.153642,404.355782 316.976156,403.086856 C316.40391,402.500657 315.515021,401.403601 315.358608,401.179412 L315.358608,401.179412 L315,400.188937 L315.253696,399.339959 L315.253696,399.328933 L316.104435,399 L317.176443,399.227864 Z" id="Path" fill="#000000" fill-rule="nonzero"></path>
                            <path d="M319.820831,420.003954 C327.949949,421.346344 328.976305,423.16717 339.543969,421.980964 C341.781109,421.764774 344.00294,421.402264 346.196275,420.895585 L346.196275,420.895585 L347.300558,420.992459 L348,421.694297 L348,421.708136 L347.937278,422.726297 C347.188419,423.57048 347.511531,423.475583 345.110998,424.671674 C342.647336,425.91226 339.979826,426.65557 337.249873,426.862201 C334.304051,427.121467 331.33902,427.014614 328.417511,426.543902 C324.851718,426.303558 321.446423,424.913949 318.674734,422.568136 L318.674734,422.568136 L318.026609,421.646849 L318,420.709747 L318,420.695907 L318.699442,420.102805 L319.786619,420 L319.820831,420.003954 Z" id="Path" fill="#000000" fill-rule="nonzero"></path>
                            <path d="M372.41745,369.156828 L372.434414,369.156828 L373,369.958991 C373.005886,370.584844 372.791432,371.194412 372.391061,371.689502 C368.658409,376.869216 363.330261,380.807332 357.148051,382.955845 L357.148051,382.955845 C348.208073,386.452919 338.845883,388.744042 329.238659,387.777841 C325.955123,387.323238 322.796739,386.256985 319.942439,384.639488 C319.601276,384.459226 319.78034,384.617856 319,383.703931 L319,382.780992 L319.720023,382.180721 C320.85095,382.142866 320.643614,382.110419 320.85095,382.169905 C323.649366,382.941458 326.527817,383.417188 329.434686,383.588563 C336.902574,384.159992 344.1537,383.516459 355.434697,379.098249 C360.181312,377.334882 364.596709,374.845465 368.508212,371.727357 C371.431658,368.877422 369.874749,369.94457 371.424119,369 L372.41745,369.156828 Z" id="Path" fill="#000000" fill-rule="nonzero"></path>
                            <path d="M183.538125,336.048331 L183.555051,336.048331 L184.222685,336.791885 L184.205759,337.806835 L184.205759,337.806835 C177.522621,355.393884 175.138366,374.292939 177.247323,392.963639 C178.048539,399.670149 179.825287,406.227168 182.52257,412.431731 C188.593335,426.146576 199.499274,434.126765 214.638575,436.193844 C234.460715,438.89852 261.600497,430.059527 278.154053,414.920776 C280.111819,413.126953 279.282448,413.63257 280.638403,413.073046 L281.6013,413.444822 L281.6013,413.444822 L282,414.374264 L281.623868,415.340884 L281.623868,415.340884 C261.090839,436.613952 222.294735,449.159559 196.881397,434.940956 C166.992092,418.118056 166.790861,365.790474 181.766545,336.676634 C181.77971,336.667339 182.533854,336.011153 182.545138,336 L183.538125,336.048331 Z" id="Path" fill="#000000" fill-rule="nonzero"></path>
                            <path d="M264.677682,346.346494 L264.677682,346.357917 L265,347.260326 L264.670315,348.265541 L264.670315,348.265541 C263.051083,350.438141 261.226671,352.438759 259.224058,354.237811 L259.224058,354.237811 C257.153045,355.92824 254.92525,357.402635 252.573252,358.639434 L252.573252,358.639434 C251.921248,358.980217 252.473793,358.711779 251.046384,359.419998 C245.968491,361.795961 246.427104,361.011588 246.498935,361.687443 C248.178673,373.472064 248.718326,372.255525 250.766428,385.428027 C251.547359,391.069034 251.503155,390.031454 251.199255,391.413625 L250.392539,392 L250.375962,392 L249.418217,391.771542 L248.815942,390.884364 L248.815942,390.884364 C247.17304,384.327622 243.399154,373.689099 242.001214,360.002566 L242.001214,360.002566 C241.951485,357.826504 243.435991,357.70466 245.215187,357.095439 C247.069473,356.442357 248.873437,355.645569 250.611715,354.711862 L250.611715,354.711862 C254.739383,352.249664 258.718869,349.531106 262.52828,346.571145 C262.91322,346.262727 262.647998,346.395994 263.800976,346 L264.677682,346.346494 Z" id="Path" fill="#000000" fill-rule="nonzero"></path>
                            <path d="M256.578824,315.260486 L256.595596,315.260486 L257,316.120823 L256.733504,317.144422 C254.89215,320.087677 252.521445,322.676096 249.737507,324.782893 C246.400818,327.304242 242.78774,329.449807 238.965834,331.179471 C237.060298,332.170012 234.965618,332.757953 232.815917,332.905648 C232.079837,333.067082 231.312409,333.020664 230.601946,332.771737 L230,332.124191 C230,332.104013 230.141634,331.271192 230.145362,331.251013 L230.890806,330.497072 C230.93926,330.478728 233.842766,328.81492 233.963901,328.752551 C237.437372,327.285485 240.789035,325.553421 243.988266,323.572185 C246.314053,322.073474 252.188156,317.590183 254.167311,315.867675 C254.823302,315.291671 254.459898,315.519137 255.645155,315 L256.578824,315.260486 Z" id="Path" fill="#000000" fill-rule="nonzero"></path>
                            <path d="M259.595836,329.240692 L259.595836,329.251716 L260,330.107917 L259.754941,331.138665 C258.028646,334.07481 255.848278,336.716253 253.295632,338.963901 C250.207651,341.665167 246.732375,343.88383 242.986706,345.545257 C241.046655,346.523294 238.89874,347.012018 236.728564,346.969196 C235.972871,347.0647 235.205851,346.937011 234.521207,346.601728 C234.506577,346.581517 234.012802,345.901701 234,345.879653 L234.24323,345.041825 L235.051558,344.369359 C235.783077,344.084571 238.226349,342.844365 238.791447,342.614698 C242.216366,341.414808 245.433623,339.684598 248.326792,337.486679 C249.647183,336.489002 255.905325,331.155201 257.701203,329.446474 L258.668636,329 L259.595836,329.240692 Z" id="Path" fill="#000000" fill-rule="nonzero"></path>
                            <path d="M252.676977,298.414179 L252.676977,298.425901 L253,299.424229 L252.565525,300.428418 C251.418889,301.121973 239.117579,316.343057 218.95794,321.561324 C207.907162,324.439088 193.743278,323.546258 187.600179,313.815002 C186.960394,312.773029 186.438138,311.658681 186.043625,310.493754 C185.968064,310.265174 186.005845,310.493754 186.043625,309.300058 L186.704783,308.555708 L186.721784,308.555708 L187.688963,308.555708 C188.540912,309.315687 188.412458,309.14181 188.531467,309.358668 C188.746815,309.42314 190.970194,315.502977 201.920853,317.876693 C218.733146,321.354235 237.355122,309.415325 250.736952,298.33994 L250.736952,298.33994 L251.755135,298 L252.676977,298.414179 Z" id="Path" fill="#000000" fill-rule="nonzero"></path>
                            <path d="M205.225991,320 C194.051968,299.155953 191.484352,290.014028 188,283.958 C190.844331,280.541876 193.713133,277.195973 196.800296,274 C209.561195,275.696675 222.401156,276.994802 235.152644,278.852793 C236.886349,288.068735 241.567918,296.288308 244,305.257529 C238.111802,311.330638 230.198124,314.629095 222.290094,317.014688 C216.950916,318.921587 211.326995,319.891518 205.662711,319.882334" id="Path" fill="#000000" fill-rule="nonzero"></path>
                            <path d="M197.191721,273.005765 C210.602302,274.759709 221.172753,275.822592 232.967624,277.471374 C235.775926,277.861974 235.828348,277.79437 236.554762,278.393415 C237.339215,279.272265 237.047151,279.373671 237.717399,281.98393 C239.883537,290.374318 243.502503,296.854897 245.68549,304.666896 C246.003764,305.793627 246.140435,306.077188 245.807183,306.98984 C245.095304,307.981993 244.233758,308.856924 243.2535,309.583198 C240.856785,311.597532 238.228226,313.316766 235.423952,314.704189 C227.434984,318.488062 218.879444,320.92687 210.100552,321.922777 C208.604486,322.033333 207.102051,322.02517 205.607267,321.898364 C204.585045,321.988503 205.182278,322.052351 204.109506,321.323731 C203.886714,320.923742 197.079389,309.442357 191.940195,298.468 C190.118543,294.560122 189.195547,291.670058 186.88525,287.200693 C186.516492,286.678828 186.231578,286.102203 186.040887,285.491818 C185.814351,284.04397 186.557615,283.540697 187.566732,282.346362 C190.401245,278.981193 191.996361,277.21786 193.904134,275.165332 C195.270842,273.694948 195.699576,272.925016 197.191721,273.005765 Z M197.624199,277.570902 C193.788058,281.659056 191.071493,284.956621 190.786919,285.270228 C192.638526,288.473899 195.669621,297.06522 206.056596,319.205478 C214.133274,319.263692 227.648698,314.482598 233.890619,310.982222 L233.890619,310.982222 C236.634797,309.488696 239.171488,307.640066 241.435592,305.483776 C241.435592,304.199303 235.89013,291.741418 233.658466,283.700317 L233.658466,283.681538 C233.471246,282.930384 233.418824,282.718183 233.237221,281.944495 C233.235348,281.728538 197.723426,277.46574 197.624199,277.570902 Z" id="Shape" fill="#000000" fill-rule="nonzero"></path>
                            <path d="M234.410157,306.985033 C233.360368,306.124415 233.786726,306.812909 230.701787,302.017774 C230.569142,301.778297 229.786537,300.543499 229.314701,299.585594 C228.678006,298.275959 226.91004,294.534144 226.364301,293.187091 C224.512958,288.968195 224.530013,289.460243 226.512105,286.592142 C227.196174,285.572498 227.800655,284.758653 227.891611,284.599626 C228.897817,283.443538 230.013983,282.385375 231.224786,281.439663 L232.236677,281 L233.110238,281.151543 L233.127292,281.151543 L233.529016,281.931712 C233.375527,283.280636 233.606708,282.648269 232.14951,285.911132 C231.40023,287.234674 230.572608,288.513473 229.670947,289.740879 C232.460278,296.56782 232.932115,295.709074 235.973471,305.056127 L236,306.221703 L235.418258,307 L235.401203,307 L234.410157,306.985033 Z" id="Path" fill="#FFFFFF"></path>
                            <path d="M384.451615,314.280839 L385,315.074999 C385,316.717255 383.975088,316.551727 375.828736,318.839355 C375.828736,319.354536 370.620971,319.363835 342.439663,327.731343 C342.502066,329.680476 342.787604,336.286697 342.787604,345.904031 C342.787604,353.747059 343.04856,352.002511 342.49072,353.529456 L341.584939,354 L341.584939,354 L340.626211,353.654066 L340.121319,352.709257 C340.121319,351.757009 338.500747,341.81234 338.109314,329.524248 C337.990182,325.726415 337.899415,325.990515 338.222773,325.183336 C338.877053,324.099038 338.328668,324.396615 348.299817,321.506393 C374.081469,314.156228 374.992922,315.216348 374.992922,314.896452 C375.214167,314.868554 381.715364,314 383.449395,314 L384.451615,314.280839 Z" id="Path" fill="#000000" fill-rule="nonzero"></path>
                            <path d="M361.692911,352.033925 C373.485042,352.203407 371.373244,352.316396 383.533054,352.316396 L384.53993,352.706011 L385,353.641088 L385,353.656673 L384.64552,354.642399 L383.689554,355.143055 C383.689554,355.365136 371.622134,356.311901 361.112166,356.559307 C324.06896,356.734634 322.458714,358.869726 309.763411,357.597632 C307.195314,357.340486 304.436777,356.818401 304.214284,356.78918 L303.311113,356.245667 L303,355.291109 L303,355.26968 L303.47704,354.389149 C304.106614,354.022957 304.838923,353.891584 305.551128,354.017067 C314.616777,353.954728 339.249396,351.698855 361.692911,352.033925 Z" id="Path" fill="#000000" fill-rule="nonzero"></path>
                            <path d="M370.716151,373.473383 C370.946872,366.637746 371.646476,359.830049 372,353 C359.669469,353.141555 347.34638,353.614648 335.025152,353.715227 C328.675032,353.610261 322.323913,353.851511 316,354.437905 C318.134166,364.665283 320.567897,374.691504 323.018374,384.823892 C327.149018,385.486967 331.099179,387.094366 335.341463,386.99565 C344.330265,386.787042 354.271721,383.032098 362.043659,378.83945 C365.236029,377.448047 368.260333,375.698451 371.058511,373.624251" id="Path" fill="#000000" fill-rule="nonzero"></path>
                            <path d="M373.810781,352.237205 L373.810781,352.237205 C374.068518,352.935212 374.062955,352.906684 373.794093,355.87179 C372.030726,375.168754 371.776697,372.435683 372.349652,374.269141 C371.895367,375.265752 372.012183,375.159244 371.522668,375.581472 C369.23507,377.391278 366.760234,378.937343 364.142855,380.191746 C360.823436,382.160837 357.387008,383.91468 353.853763,385.44297 C350.515758,386.873607 347.068132,388.018666 343.54613,388.866441 C337.815005,390.491244 331.746387,390.366987 326.083044,388.508878 C322.124275,387.557914 322.41168,387.9383 321.547611,387.110961 C321.122994,386.528971 321.402982,387.989652 317.876247,372.584033 C317.242102,369.864276 315.819912,363.582207 314.648042,357.990538 C314.002772,354.899904 313.702388,354.470069 314.399576,353.300383 C315.150537,352.393163 315.636344,352.421692 316.798942,352.292361 C320.522225,351.898662 323.607655,351.780742 327.368022,351.708469 C375.499979,350.941992 372.816917,350.409452 373.810781,352.237205 Z M318.760712,356.550778 C319.999334,362.779593 323.418524,377.403519 324.918591,383.712215 C331.130243,384.944665 332.272445,386.274112 339.418626,385.423951 C350.497617,384.05266 359.989392,378.670203 365.429687,376.072169 C366.803059,375.43298 368.11799,374.669171 369.358788,373.789856 C369.358788,365.421371 369.694403,360.826313 369.844595,355.327838 C362.260817,355.626441 324.247362,356.050571 318.760712,356.550778 Z" id="Shape" fill="#000000" fill-rule="nonzero"></path>
                            <path d="M161.152456,281.956829 C161.795903,282.066869 162.265763,282.619027 162.265408,283.264716 C163.193182,372.171125 163.295218,368.424963 162.265408,369.435773 L162.265408,369.435773 C161.888386,369.752021 161.41066,369.926682 160.916261,369.929033 C156.06198,369.949585 69.4709668,370.115874 68.4449353,369.854297 C67.970273,369.679963 67.5702104,369.350309 67.3111989,368.920092 C66.8728208,367.972808 67.0258752,374.089981 67.0258752,283.270321 C67.028773,282.239005 67.7772383,281.35735 68.8039519,281.175834 C76.2941709,280.512549 160.937046,281.938145 161.152456,281.956829 Z M71.3435216,285.405914 L71.3435216,365.715769 C118.960454,365.715769 -0.200918612,365.769953 158.830186,365.779295 C159.043707,365.887663 158.654457,369.131222 159.569004,284.606234 C109.389828,285.52736 111.203806,285.405914 71.3435216,285.405914 Z" id="Shape" fill="#000000" fill-rule="nonzero"></path>
                            <path d="M185.335391,421.52479 C187.135898,422.239479 185.915574,421.471393 187.610272,422.605039 L188,423.486079 L188,423.500455 L187.569712,424.352742 L186.57864,424.935995 C181.610934,426.092231 185.696903,425.640416 177.092913,425.907398 C176.107612,426.109236 175.093315,425.979572 174.169073,425.533623 C173.012234,424.917512 173.597707,425.441207 172,423.654483 C173.520115,421.806147 172.989309,422.313413 174.095007,421.672656 C174.995949,421.178357 175.998621,420.991099 176.987105,421.132532 C183.455527,420.941537 182.774826,420.871711 185.335391,421.52479 Z" id="Path" fill="#000000" fill-rule="nonzero"></path>
                            <path d="M164.320949,451.033893 C165.050575,450.943858 165.791464,451.033881 166.47707,451.295875 C171.585868,453.837378 176.495076,456.751262 181.163773,460.013238 C185.249548,462.745601 186.232155,462.965149 185.957025,464.880202 C185.850013,465.360942 185.575927,465.789703 185.182169,466.09233 C184.54207,466.505598 184.433516,466.505598 183.15519,466.667953 C175.187649,467.690052 167.341764,466.09971 159.20952,465.299004 C142.522041,463.704972 132.040897,460.633139 118.480917,458.697792 C114.176161,458.066821 114.097552,457.976419 112.059344,457.563151 L111.20588,456.976459 L111,455.991259 C111.013101,455.969119 111.570848,455.173948 111.585821,455.151809 L112.499178,454.967314 L112.532867,454.941485 C119.905275,453.465526 127.369925,452.479336 134.876421,451.989574 C142.396641,451.437935 157.496975,451.017288 164.320949,451.033893 Z M163.572296,455.323389 C151.236363,455.349218 138.518618,456.072436 131.842504,456.334418 C125.261842,456.598245 125.838305,456.445115 128.247097,456.804879 C132.551853,457.4543 141.621785,458.834318 147.073852,459.550157 C147.073852,459.758635 172.18555,462.658888 177.431737,462.710547 C173.560751,460.106367 169.543425,457.720117 165.399009,455.563231 C164.856236,455.288335 165.172542,455.319699 163.572296,455.323389 Z" id="Shape" fill="#000000" fill-rule="nonzero"></path>
                            <path d="M149.778132,427.009361 C154.377342,426.940293 158.975172,427.253482 163.541913,427.946905 C166.067836,428.260982 165.350644,428.050035 166.588588,428.767256 L167,429.892308 L167,429.908715 L166.588588,431.033768 L165.598974,431.596294 C164.709434,431.596294 161.521915,432.250231 154.563117,432.468209 C150.391544,432.606497 152.057579,432.093192 136.801965,432.805725 L136.801965,432.805725 C132.884482,433.3071 128.927287,432.835751 125.152696,431.418161 L124.289101,430.675157 L124,429.573543 L124,429.554792 L124.485541,428.572715 C127.346895,427.208589 146.887127,426.995298 149.778132,427.009361 Z" id="Path" fill="#000000" fill-rule="nonzero"></path>
                            <path d="M78.8157406,444.002762 C80.1277348,444.053546 81.2114728,444.349015 85.6883654,444.494441 C92.2982078,444.665258 94.1453575,444.15973 97.9758437,444.35594 C104.152191,444.699884 103.154768,444.586775 104.497452,445.203104 L105,446.239553 L105,446.25802 L104.616376,447.368336 L103.5921,448.042374 C97.8460687,449.674846 91.933105,450.291492 86.0393814,449.872896 C78.0676737,449.674378 76.9321465,448.935706 74.3062399,447.564546 C74.0185218,447.41912 74.2064976,447.564546 73.2474375,446.595039 L73,445.535506 C73.0134268,445.507806 73.5313193,444.672184 73.5466643,444.646792 L74.5977942,444.219747 C74.8375592,444.196663 78.2882575,443.972753 78.8157406,444.002762 Z" id="Path" fill="#000000" fill-rule="nonzero"></path>
                            <polygon id="Path" fill="#000000" fill-rule="nonzero" points="539.486069 473.393919 540 474.301566 540 474.316088 539.502828 475.238257 538.301793 475.641253 538.301793 475.641253 526.047517 476.514409 472.54469 477.271386 444.578276 477.634445 417.744 477.946676 383.681172 478.257091 343.512621 478.62015 253.740414 479.440663 166.096552 480.243022 128.594483 480.586113 98.2427586 480.863853 84.3945517 480.93828 69.4030345 480.981847 39.2766207 481 2.17862069 480.947356 1.33696552 480.947356 0.405931034 480.56796 0 479.66939 0 479.654867 0.385448276 478.74722 1.31648276 478.351486 1.31648276 478.351486 2.16558621 478.333333 39.2542759 477.592693 69.3732414 477.048105 84.3628966 476.817563 98.2222759 476.636034 128.562828 476.358294 166.064897 476.015203 253.70131 475.214658 343.480966 474.394146 383.642069 474.031087 417.704897 473.718856 444.546621 473.537327 472.513034 473.386658 526.017724 473.165192 538.272 473 538.272 473"></polygon>
                            <path d="M26.9127728,423 C39.9962373,423.267226 40.7665048,423.28318 45.8794554,424.431853 C46.5148714,424.514548 47.1188681,424.776619 47.6305671,425.191653 L48,426.132926 L48,426.14888 L47.5252788,427.034316 C46.975523,427.383939 46.3494087,427.569105 45.7113635,427.570762 C42.2001929,428.028078 38.6564529,428.120236 35.1289594,427.845965 C31.7880402,427.920514 28.4459162,427.787346 25.1191763,427.44712 C22.124923,426.705269 22.3373469,426.683332 21.3694329,426.051163 L21,425.217578 L21,425.203618 L21.4008346,424.385986 L22.3391941,423.817632 C23.8230151,423.325605 25.3612481,423.050611 26.9127728,423 L26.9127728,423 Z" id="Path" fill="#FFFFFF"></path>
                            <path d="M58.8394958,445.287656 C63.1508506,445.678512 62.0261493,445.349733 63.525751,446.094659 L64,447.166065 L64,447.184458 L63.593233,448.297249 L62.5753784,448.908824 L62.5753784,448.908824 C51.9994376,450.709062 54.3838043,450.177958 34.6940344,450.883798 C31.5814408,451.159878 28.4528209,450.943513 25.385257,450.240035 L25.385257,450.240035 L24.425512,449.674443 L24,448.67661 L24,448.658216 L24.3580299,447.621298 L25.2802849,446.966039 C26.0300858,446.82579 26.1125639,446.667149 28.7593608,446.099257 C30.6767099,445.679631 32.6230784,445.492497 34.5703173,445.540563 C54.3800553,444.843919 51.9975631,444.889902 58.8394958,445.287656 Z" id="Path" fill="#FFFFFF"></path>
                            <path d="M60.686804,467.110421 L60.686804,467.110421 C61.8387303,468.002301 61.5545885,467.620067 62,468.752148 L62,468.752148 C60.0801229,470.423117 60.7770383,470.005375 59.312172,470.423117 C57.6917957,470.955739 56.2403686,470.863835 51.0874184,470.974537 L51.0874184,470.974537 C50.6591006,471.035971 50.2234956,470.985859 49.8164597,470.828327 C48.2383207,470.12652 48.4015103,470.103544 47,468.545366 C48.4802253,466.976744 48.2268015,467.062381 49.7838218,466.304179 C50.4193012,466.082775 50.031486,466.149614 51.7536158,466.095307 C57.171509,465.980428 57.5478049,465.727694 60.686804,467.110421 Z" id="Path" fill="#FFFFFF"></path>
                            <path d="M427.93947,344.744875 C429.595868,345.931103 429.133903,345.380217 430.438997,352.797027 C432.646943,365.78796 433.930959,371.509883 434.977845,378.801928 C436.2724,387.867557 436.358469,386.938536 435.114853,388 L435.099045,388 L434.185654,387.808054 L433.56209,386.930858 C433.56209,386.71012 433.528716,387.005718 431.981222,381.475741 C429.25159,371.170138 429.622216,371.333292 426.204028,352.382423 C425.325768,347.159561 425.896637,348.873642 424.020674,346.737278 C423.648292,346.326513 422.880693,345.495385 422.701528,345.305358 L422.701528,345.305358 C422.101675,344.626264 421.424571,344.034074 420.686799,343.54329 L420.047426,342.725598 L420,341.765866 L420,341.75243 L420.639373,341.086376 L421.617755,341 C423.901073,341.855023 426.037698,343.120722 427.93947,344.744875 Z" id="Path" fill="#000000" fill-rule="nonzero"></path>
                            <path d="M219.321375,287.710274 C225.189726,288.56699 222.939059,288.033367 226.096035,288.985968 C228.223973,289.807249 227.27046,289.219429 228.660134,290.226227 L229,291.110041 L229,291.124632 L228.575168,291.958419 L227.617879,292.487874 C225.81123,292.987409 223.937763,293.122987 222.087506,292.888092 C219.172212,292.519141 208.583502,290.949537 205.694642,290.242902 C200.494694,288.992222 201.667231,289.438298 200.356859,288.62744 L200,287.651909 L200,287.635233 L200.451266,286.705561 C201.138159,286.270202 201.926967,286.070638 202.717039,286.132332 C208.58539,285.715439 209.992057,286.294921 219.321375,287.710274 Z" id="Path" fill="#FFFFFF"></path>
                            <path d="M288.516308,363 L289.462788,363.400578 L289.993845,364.338423 C291.111634,372.06331 290.80542,365.986298 290.991718,391.313826 C291.053139,396.730321 290.772897,402.145625 290.152306,407.534379 L289.649086,408.567148 L288.634083,409 L288.623376,409 L287.608373,408.569047 C287.070892,407.467932 287.090164,408.219728 286.582662,402.135122 C286.107281,396.21948 286.000213,396.864961 286.000213,373.785225 C285.990343,370.606494 286.323775,367.434228 286.995944,364.311845 L287.548415,363.383492 L288.505601,363.003797 L288.516308,363 Z" id="Path" fill="#000000" fill-rule="nonzero"></path>
                            <circle id="Oval" fill="#000000" fill-rule="nonzero" cx="115.5" cy="283.5" r="10.5"></circle>
                            <path d="M117.622404,270.023882 C121.839045,270.15737 125.662002,272.619435 127.635912,276.472793 C129.609823,280.32615 129.430998,284.977954 127.167513,288.657308 C124.97749,292.492794 121.027902,294.889198 116.720089,294.99626 C112.412276,295.103321 108.355807,292.905892 105.989943,289.183632 L105.989943,289.183632 C103.803288,285.77676 103.391373,281.471657 104.890046,277.688123 C106.38872,273.90459 109.603368,271.133946 113.473816,270.289936 C114.842749,270.041602 116.234269,269.952362 117.622404,270.023882 Z M116.428566,272.844441 C112.050429,273.121547 108.548628,276.708623 108.241448,281.230929 C108.241448,291.24266 119.235951,293.579309 123.537499,286.197272 C123.793473,285.721076 124.003409,285.219962 124.164264,284.701199 C124.864421,282.049317 124.413463,279.213804 122.928828,276.933085 C121.444193,274.652367 119.072832,273.152191 116.432297,272.823234 L116.428566,272.844441 Z" id="Shape" fill="#000000" fill-rule="nonzero"></path>
                            <path d="M145.206871,351.029096 C154.079573,351.342063 157.858375,350.771685 165.762057,351.364285 C170.420085,351.723549 169.486609,351.592066 170.605284,352.105035 L171,352.956898 L171,352.971713 L170.625861,353.827279 C169.432358,354.408767 170.365835,354.197654 165.82566,354.690252 C159.428061,355.315824 152.995589,355.520597 146.570607,355.303223 C143.85623,369.799699 141.044577,380.118346 132.785463,392.840726 C132.336497,393.531476 132.598394,393.275917 131.578866,394 L130.598622,393.890739 L130.598622,393.890739 L130.598622,393.890739 L130,393.099989 C130.13469,391.864788 130.039285,392.212941 130.40407,391.496265 C132.241681,387.838785 133.872328,384.082936 135.288452,380.246125 C143.831911,357.219913 141.358854,353.160604 143.508281,351.397619 C144.007532,351.067726 144.614008,350.936146 145.206871,351.029096 L145.206871,351.029096 Z" id="Path" fill="#000000" fill-rule="nonzero"></path>
                            <path d="M150.67458,409.014308 C154.502898,409.041089 158.238053,410.193377 161.411565,412.326647 C164.070239,414.101543 166.238168,416.514012 167.715901,419.342106 C170.557055,425.090317 169.944367,426.893494 169.944367,444.690803 C169.907008,456.081155 170.00601,455.057679 169.643627,455.85599 C169.160455,456.716898 168.13844,457.123532 167.192875,456.831083 C166.359768,456.492406 166.733359,456.542649 166.210332,456.535206 C158.394823,456.468214 142.943129,456.818057 128.040612,457.848976 C136.96942,459.479093 143.26068,460.653299 150.708203,461.792148 C167.332971,464.274541 168.973033,463.180353 169.144884,465.312903 L169.118733,465.312903 C169.305528,480.317054 169.354095,478.833945 169.22147,479.3829 C169.108848,479.71932 168.880623,480.005331 168.577027,480.190515 C168.36408,480.294724 171.939339,481 66.1423031,481 C65.1044936,481.001294 64.2157812,480.259585 64.0352539,479.241475 C64.0091025,478.869302 63.9567999,428.356134 64.068877,426.77626 C64.8198922,417.650471 71.8879646,410.297841 81.0074611,409.155734 C82.9912256,408.936152 150.461633,409.012447 150.67458,409.014308 Z M138.785069,413.270105 C81.4744489,413.270105 81.8816624,412.711846 77.7030549,414.386624 C73.665224,416.029899 70.5340428,419.326865 69.1104781,423.434147 C67.9504802,426.379896 68.2848435,425.892349 68.2848435,476.755359 C122.171508,476.755359 113.405212,476.651151 166.271975,477.341532 L166.298126,477.373167 L166.298126,466.483387 C154.569259,465.141704 156.900462,466.01631 129.348178,461.475801 C122.623552,460.377891 115.676641,459.884762 113.40708,459.218572 C112.624381,458.913164 112.161905,458.104861 112.296958,457.278331 C112.432011,456.451802 113.127944,455.831347 113.967465,455.788999 C114.184147,455.777834 132.932777,452.521321 165.567757,452.381756 C165.797515,452.381756 165.661155,454.194238 165.661155,428.060256 C165.511768,421.268921 160.836863,415.409411 154.229291,413.7316 C151.791615,413.091462 150.358896,413.270105 138.785069,413.270105 L138.785069,413.270105 Z" id="Shape" fill="#000000" fill-rule="nonzero"></path>
                            <path d="M348.373048,93 C349.710426,93.0548078 351.030863,93.3118608 352.286872,93.7619145 C353.119722,94.0570872 352.802897,93.8984319 353.755267,94.6418981 L354,95.4794507 L354,95.4923645 L353.474489,96.18971 C351.844836,96.7579174 352.795309,96.4037102 350.643938,96.7431588 L350.643938,96.7431588 C347.358926,96.9444088 344.161579,97.8564222 341.285289,99.4126268 L341.285289,99.4126268 C339.523944,100.398721 337.915009,101.622296 336.506363,103.046941 L336.506363,103.046941 C334.220531,105.233902 332.200727,107.669063 330.486701,110.304499 L329.665234,110.983397 L328.705275,111 L328.686303,111 L328.04886,110.29343 C327.913594,109.475101 328.061037,108.636252 328.468131,107.908066 C329.498508,104.978414 331.188192,102.309269 333.414006,100.095214 L333.414006,100.095214 C335.106655,98.409516 337.025559,96.9537153 339.118741,95.767244 L339.118741,95.767244 C341.9235,94.1208788 345.101602,93.1705551 348.373048,93 Z" id="Path" fill="#FFFFFF"></path>
                            <path d="M325.998807,125.95511 L325.998807,125.95511 C325.861267,125.759857 325.740125,125.555923 325.636361,125.344955 C325.208391,123.947682 324.994395,122.505871 325.000112,121.058183 C325.098438,120.846819 325.226147,120.647125 325.380286,120.463718 L325.390135,120.463718 C325.528713,120.299958 325.680104,120.145005 325.843192,120 C329.207634,120.16387 328.40395,120 329.018532,120.543909 L329.018532,120.543909 C329.092545,120.641784 329.174161,120.734985 329.262789,120.822837 C329.308094,120.890826 329.341581,120.932665 329.390826,120.997167 L329.390826,120.997167 C329.505708,122.133696 329.708416,123.261927 329.997529,124.373938 C330.035858,125.660101 329.627465,126.925716 328.82746,128 C326.906891,126.987143 327.062507,127.199826 325.998807,125.95511 Z" id="Path" fill="#FFFFFF"></path>
                            <path d="M332.280571,272.050749 L333,272.733035 C333,272.75559 332.965741,273.710415 332.963838,273.731091 L332.22728,274.49232 L332.22728,274.49232 C329.705472,275.702768 325.676289,277.775941 323.523711,278.926243 C316.582554,282.798172 315.512926,282.713591 305.581761,288.795904 C297.277875,293.870763 294.778906,296.404433 287.120222,300.774451 L287.120222,300.774451 L286.09437,301 C286.065821,300.986843 285.262649,300.592132 285.236003,300.575216 L285,299.671139 L285.437748,298.73135 C285.437748,298.513319 289.655353,294.609437 290.521332,293.867004 C300.150926,286.561292 310.601572,280.37672 321.666138,275.435868 C330.230769,272.007518 331.210944,272.214272 331.210944,272 L332.280571,272.050749 Z" id="Path" fill="#FFFFFF"></path>
                        </g>
                    </g>
                </g>
            </g>
        </g>
    </g>
</svg>