<?xml version="1.0" encoding="UTF-8"?>
<svg width="95px" height="32px" viewBox="0 0 95 32" version="1.1" xmlns="http://www.w3.org/2000/svg" xmlns:xlink="http://www.w3.org/1999/xlink">
    <title>Color</title>
    <g id="⚙️-Symbols" stroke="none" stroke-width="1" fill="none" fill-rule="evenodd">
        <g id="Logos/Clients/Cocacola" transform="translate(0.000000, -17.000000)" fill="#000000">
            <path d="M19.4197801,17.0005151 L19.7564647,17.0120793 C20.5125459,17.1511355 21.1214959,17.5595168 21.4739459,18.1504168 C22.3148147,19.8105418 21.2458272,21.5917918 20.5225209,22.5219605 C19.8514647,23.3473918 18.2957209,23.660298 18.3577084,22.156923 C18.4006959,21.1748605 19.2009522,20.4447855 19.4924834,20.2186855 C19.8517022,19.984273 20.3164897,19.9406918 20.5931772,19.9406918 C20.8553772,19.6971355 21.0579647,17.9941418 18.8910147,18.550248 C16.0636959,19.4367168 13.9223959,21.6442793 11.6141334,24.2166418 C7.47854592,29.1616293 5.15033342,33.619623 4.28880217,38.2520605 C3.91735217,41.093748 4.41479592,43.0665418 5.80227092,44.2918043 C9.41381467,46.7860293 12.1638272,45.543548 20.4118459,43.6053105 C28.1486459,41.4587855 32.9460272,41.8583793 36.4809772,44.1355293 C38.2708959,45.2915605 40.4164709,46.9689043 41.1732647,48.1070043 C38.9018147,46.4386855 35.7824897,45.6132543 33.6202897,45.8127543 C31.1717097,45.8533299 30.0906278,47.6269276 29.9531591,47.8713687 L29.9379709,47.8991918 C26.7732834,42.136848 17.1417084,45.447598 15.2599959,45.8999168 C13.3784022,46.3514043 10.5807709,47.099173 8.26716467,47.3422543 C4.96840842,47.620248 2.20355217,46.2908418 0.871652174,43.7880668 C-0.849866576,40.1810355 0.298683424,35.7492855 1.56859592,32.6554918 C3.77140842,27.5278668 7.66438967,22.8434168 12.5310022,19.462723 C14.7563772,18.0982855 17.1674772,16.8641168 19.7564647,17.0120793 Z M83.9402459,18.811023 C85.0214647,18.0720418 86.3650022,17.1598043 87.5978647,17.3944543 C87.9760834,17.4640418 88.2655959,17.7681605 88.3328084,18.1679918 C88.5345647,19.410473 87.9873647,20.4536918 87.4934834,21.383148 C87.0676459,21.5225605 86.4193897,21.6442793 86.4193897,21.6442793 L86.4193897,21.6442793 L86.8770522,20.7055605 C87.2036147,20.0625293 87.4882584,19.4975168 87.4520397,18.7328855 C87.3566834,18.532673 87.2462459,18.5240043 87.1605084,18.532673 C86.3484959,18.6978543 85.3065834,19.705923 84.3008897,20.6879855 L84.3008897,20.6879855 L83.6504959,21.3139168 C79.5177584,25.4419043 74.6611209,34.0714668 73.9094334,35.8795543 C75.6062522,35.054123 81.2031772,29.5092105 83.9382272,25.6940105 C84.4981334,25.6767918 84.9723022,25.5810793 84.9723022,25.5810793 C84.5342334,26.441423 81.5371022,30.2914168 77.9819647,33.6898043 C76.3438084,35.2627668 74.5413022,36.696673 72.9616897,37.7916668 C72.1851834,39.4690105 71.4143772,41.3199668 71.0824709,43.2669918 C71.0453022,43.5364355 70.9567147,44.692823 71.8151584,44.6232355 C72.9146647,44.3796793 74.8955334,41.1045543 74.8955334,41.1045543 C76.7773647,38.158248 79.1634084,34.3802168 82.4336647,32.4679855 C83.1858272,32.0422668 84.2760709,31.8202043 85.0192084,32.2898605 C85.1924647,32.4025543 85.6133147,32.923748 85.7540334,33.1581605 C85.7540334,33.1581605 86.0631397,32.6128605 86.2077772,32.3753605 L86.2077772,32.3753605 L89.2495584,32.3753605 L84.8087834,40.251573 C84.8087834,40.251573 83.2144459,42.731073 82.8133084,43.9477855 C82.6524022,44.4256355 83.0829897,44.585948 83.3894834,44.377423 C85.1504272,43.3427543 86.5503709,41.1629793 87.6505897,39.500123 L87.6505897,39.500123 L88.6653084,39.500123 C87.8914147,40.806373 84.9106709,45.3244543 82.4206022,46.6803418 C81.7265084,47.0541668 81.1264647,47.4902168 80.3249022,47.3420168 C79.1552147,47.1945293 79.0972647,45.7168043 79.3107772,44.891373 C78.6458959,45.5950855 77.2131772,46.968548 75.9274709,47.3160105 C74.8081334,47.5330855 73.3399084,47.0895543 73.7446084,44.2565355 C71.8592147,46.620848 69.5414522,48.4108855 68.1415084,46.6814105 C67.1618209,45.456148 67.6414522,43.387523 68.6786147,40.346098 C68.6786147,40.346098 69.0278584,39.3028793 69.0665709,39.1729668 C69.0516084,39.1639418 69.0478084,39.1639418 69.0389022,39.1639418 C68.3629772,39.3380293 67.4695022,39.3639168 67.4044272,39.3724668 C65.7680522,42.2405168 63.6919459,45.3776543 60.7207022,46.9420668 C60.2835834,47.1678105 59.1708959,47.6372293 58.2869209,47.185623 C57.4271709,46.6988668 57.0903959,45.7253543 57.2558147,44.2134293 C57.4907022,42.2837418 58.3389334,40.5985605 59.1896584,39.025123 C60.7715272,36.5485918 62.9635334,33.5413668 65.8963022,32.3246543 C66.5510897,32.0294418 67.5221084,31.8468043 68.3077584,32.2379668 C68.9777459,32.7243668 69.1572959,33.4280793 69.1572959,34.1760855 C69.1572959,34.5236668 69.1162084,34.8796793 69.0720334,35.227498 C68.8168397,36.4442105 68.3066897,37.5655668 67.9015147,38.3996668 C68.0967397,38.530173 69.2456459,38.2604918 69.5429959,38.0348668 C73.6460459,29.465748 78.3389272,23.190998 83.8966647,18.8369105 L83.8966647,18.8369105 Z M63.0846584,17.2727355 C64.2969772,16.977048 65.9423772,16.873023 66.9455772,17.9680168 C66.9455772,17.9680168 67.4310272,17.8028355 67.9623147,17.6117668 C69.3140459,17.1250105 71.9702459,16.4994355 75.2333772,18.2808043 C76.6701334,19.0715605 78.1299272,19.871223 79.5109897,20.7142293 L79.5109897,20.7142293 L80.3737084,21.244448 C79.7777022,21.8094605 78.7194022,22.9391293 78.0754209,23.686423 C76.7551584,23.113098 72.8412772,20.1146605 71.0031459,19.5060668 C71.0031459,19.5060668 68.6508272,18.428648 67.5038209,19.0367668 C67.5213959,19.2455293 67.5322022,19.523523 67.5322022,19.732048 C67.5322022,21.4528543 66.8790772,22.9998105 66.1442522,24.5554355 C64.8768334,26.606248 63.3256022,28.8483668 60.9245959,29.4047105 C60.4031647,29.4395043 59.7557397,29.3872543 59.3910584,28.7268855 C58.6931647,27.457923 59.3861897,26.024373 59.8844647,24.9639355 C61.8432459,20.7835793 65.9524709,18.5240043 65.9524709,18.5240043 C65.2377147,18.2458918 64.4108584,18.3501543 63.5179772,18.801998 C59.1404959,20.9663355 55.8910209,25.0248543 52.9431709,28.9791105 C50.0842647,33.2374855 48.0864147,36.974548 47.6237647,41.3631918 C47.5195022,42.9100293 48.0133834,44.1097605 48.9816709,44.6830855 C50.5190084,45.6215668 52.2761522,44.4048543 53.4637709,43.3967855 C54.8070709,42.1977668 56.1346959,40.459148 57.0022834,38.7207668 C58.1748209,36.3574043 58.4849959,33.9151918 57.6026834,33.619623 C56.5929522,33.3329605 55.6937772,34.410498 55.2444272,35.0798918 C54.0569272,36.6964355 53.8240584,38.5127168 53.8240584,38.5127168 C52.1126334,39.2775855 50.6045084,40.676698 49.8650522,41.5281355 C50.0943584,39.633598 50.4440772,38.4431293 51.0848522,37.0003168 C52.3060772,34.193423 54.6317959,32.2380855 57.0095272,32.0206543 C57.7417397,31.9773105 58.4287084,32.3771418 58.7182209,33.0027168 C59.3551959,34.3412668 58.9446772,36.096748 58.5746522,37.339348 C57.0415897,41.5197043 53.9648959,45.152623 50.5416897,46.8386355 C48.9618397,47.4727605 46.7244709,47.854898 45.0371522,46.0911043 C43.0526022,44.0139293 43.2997209,40.5116355 44.1128022,38.1304605 C45.1676584,34.5934918 47.1467459,31.012823 50.3373209,26.8672605 C54.6770397,21.5744543 58.7248709,18.524123 63.0846584,17.2727355 Z M84.9347772,33.6461043 C84.4923147,33.4634668 84.0731272,33.6976418 83.6868334,33.976348 C81.3944834,35.809848 79.8336334,38.451798 78.4908084,40.6939168 L78.4908084,40.6939168 L78.3711084,40.946023 C77.9041834,41.9106293 77.4228897,42.901123 77.4465209,43.9701105 C77.4707459,44.1183105 77.5715647,44.3093793 77.7148959,44.3613918 C78.1539969,44.5306014 78.5293312,44.270449 78.8875172,43.960068 L79.0814709,43.7880668 C79.0814709,43.7880668 79.3740709,43.5274105 79.3753772,43.5274105 C80.8780397,41.658523 82.0801459,39.5296918 83.2389084,37.469973 C83.8318272,36.4271105 84.4414897,35.341023 85.0817897,34.3063543 C85.1085084,34.2630105 85.1550584,34.124073 85.1550584,34.0717043 C85.1550584,33.9067605 85.0365459,33.7415793 84.9347772,33.6461043 Z M63.9230334,36.8878605 C62.6262834,38.5503605 60.7927834,41.601998 60.8230647,43.3061793 C60.8282897,43.5835793 60.8806584,43.8400793 61.0385959,44.074848 C62.3561272,45.604348 65.5140459,41.211548 66.4347147,39.1603793 C65.6933584,38.8386855 64.4652459,38.0753605 63.9230334,36.8878605 L63.9230334,36.8878605 Z M28.8246897,24.816448 C29.5985834,24.4425043 30.7943959,24.321023 31.5782647,24.7900855 C32.1043272,25.0945605 32.4566584,25.7201355 32.4937084,26.3807418 C32.5973772,28.223148 30.4538209,31.2475918 29.3790147,29.7180918 C29.1577834,29.0574855 29.3995584,28.3534168 30.0954334,27.6233418 C30.4485959,27.2583043 30.8832209,27.0934793 31.4255522,27.1108168 C31.6393022,26.7717855 31.5847959,26.2768355 31.2468334,26.076623 C30.8923647,25.8593105 30.1777272,26.0075105 29.5204459,26.5199168 C27.1916397,28.3711105 25.1452209,31.4392543 23.9576022,34.8200668 C23.7472959,35.4543105 23.6325834,36.4201043 24.0054584,37.0807105 C25.0254022,38.6529605 27.4127522,36.4646355 27.4127522,36.4646355 C29.0241897,35.0307293 30.5782709,33.0441605 31.7989022,31.279773 C34.9694084,26.691273 39.1806397,22.734523 41.0402647,25.3068855 C41.0735147,25.3505855 41.1216084,25.4417855 41.1417959,25.459123 C41.1685147,25.4243293 41.4963834,24.893873 41.4963834,24.893873 L41.4963834,24.893873 L44.4979084,24.893873 C44.4979084,24.893873 38.1407459,35.9196918 38.1324334,35.937148 C38.0002647,36.205998 37.9158334,36.5856418 38.1299397,36.7681605 C38.3027209,36.889998 38.6028022,36.7359793 38.6054147,36.7359793 C40.2540209,35.936198 42.7927772,32.256373 42.8050084,32.256373 L42.8050084,32.256373 L43.8388459,32.256373 C42.2181459,34.6312543 40.2115084,37.3788918 37.7207272,39.1342543 C37.0291272,39.5948855 36.1193834,40.0855605 35.2205647,39.763748 C34.2681897,39.1639418 34.4469084,38.416648 34.5081834,37.513198 C34.5004647,37.513198 32.1419709,40.3813668 30.1677522,39.8073293 C29.5145084,39.5988043 28.4702209,39.0334355 29.2449459,36.3392355 C29.2449459,36.3392355 29.3042022,36.0963918 29.3496834,35.9144668 C29.1700147,36.0879605 28.8523584,36.3918418 28.8523584,36.3918418 C26.9882209,38.2169105 24.8751834,40.268198 22.2289584,39.8246668 C20.2435772,39.2077605 20.2965397,37.1741668 20.2270709,36.6174668 C20.0039397,34.7927543 22.1910772,31.1164918 22.1992709,31.0906043 C21.6254709,31.2557855 21.1162709,31.3775043 20.6935209,31.4554043 C20.6608647,31.5076543 19.9768647,32.6374418 19.9768647,32.6374418 C19.2325397,33.8717293 18.4637522,35.1580293 17.4685084,36.2270168 L17.4685084,36.2270168 L17.2796959,36.4271105 C15.8162209,38.1388918 12.3747272,41.336948 10.5210397,39.1382918 C9.27475842,37.2697605 10.4198647,33.2290543 13.0717897,29.7524105 C15.9717834,25.8765293 19.5924709,23.6169543 21.3939084,24.798873 C23.2303772,26.1370668 21.4846334,29.7088293 21.2733772,30.2738418 C21.9196147,30.4392605 23.9864584,28.9620105 25.1915334,27.6321293 C26.1487772,26.5716918 27.7885959,25.207373 28.8246897,24.816448 Z M67.7124647,33.4285543 C67.3223709,33.2900918 66.7906084,33.3853293 66.4375647,33.6636793 C65.6151022,34.1498418 64.7649709,35.114448 65.0188584,36.348973 C65.3182272,37.7828793 66.8668459,38.3046668 66.9544834,38.2433918 C67.451304,37.3780656 67.8341608,36.4521364 68.0935334,35.4886293 L68.0935334,35.4886293 L68.1008959,35.4275918 C68.1345022,35.1582668 68.1726209,34.8630543 68.1726209,34.5756793 C68.1726209,34.1072105 68.0745334,33.672348 67.7124647,33.4285543 Z M40.5611084,26.4413043 C40.5128959,26.0591668 39.9559584,25.5198043 38.5625459,26.7456605 C38.1482272,27.1105793 36.4487959,29.2746793 35.8649022,30.082773 C33.5170959,33.2463918 32.7563834,35.5316168 32.6935647,36.2787918 C32.6713584,36.504773 32.7491397,36.7220855 32.9462647,36.852473 C33.1100209,36.9746668 33.3560709,36.9572105 33.5053397,36.9133918 C34.5521209,36.3312793 35.1938459,35.496823 35.8311772,34.5237855 C35.8311772,34.5237855 36.2857522,33.8287418 36.2827834,33.8372918 C37.7258334,31.4385418 39.2606772,28.770348 40.5611084,26.4413043 Z M16.8574209,29.2485543 C16.8472084,29.2485543 16.8189459,29.257223 16.8063584,29.265773 C15.7972209,30.7171355 14.7606522,32.2817855 14.1072897,34.0544855 L14.1072897,34.0544855 L14.0265397,34.3152605 C13.7986584,35.045098 13.5181709,35.949023 14.0624022,36.6009605 C14.3191397,36.922298 14.8229959,36.8438043 15.1874397,36.7222043 C16.4169772,36.0880793 17.4005834,34.766748 18.1883709,33.7149793 C18.1883709,33.7149793 19.4937897,31.5860293 19.4971147,31.5860293 C19.5099397,31.5603793 19.5361834,31.4818855 19.5361834,31.4818855 C19.5707397,31.4039855 19.5852272,31.3689543 19.5851091,31.3430668 C19.5851091,31.3256105 19.5792897,31.3169418 19.5739459,31.3169418 C18.6860522,31.0558105 17.4987897,30.4911543 16.8656147,29.2746793 C16.8639522,29.257223 16.8599147,29.257223 16.8574209,29.2485543 Z M20.7977834,26.085173 C20.3897584,25.7634793 19.6871147,25.9285418 19.2351522,26.2416855 C18.7641897,26.5978168 17.6950834,27.5798793 17.9552647,28.8313855 C18.1439584,29.4744168 18.7559959,30.0133043 19.5674147,30.265173 L19.5674147,30.265173 L19.8258147,30.308873 C19.9766272,30.3436668 20.1082022,30.3783418 20.1914459,30.308873 C20.1914459,30.308873 20.7670272,28.987898 20.7728459,28.9705605 C20.9705647,28.379423 21.1448897,27.7450605 21.144771,27.1804043 C21.144771,26.762998 21.0494147,26.3807418 20.7977834,26.085173 Z M66.5484772,19.3585793 C64.0594772,20.6362105 61.7394584,23.130198 60.3807209,26.0679543 C59.4579147,28.2490355 60.4915147,28.5182418 61.0972584,28.3967605 C62.0968959,28.153798 66.1366522,25.1031105 66.5898022,19.9060168 C66.6074959,19.7145918 66.6091584,19.5758918 66.5484772,19.3585793 Z M49.4864772,24.8941105 L47.8780084,27.5066105 L45.0281272,27.5066105 L46.6360022,24.8941105 L49.4864772,24.8941105 Z M94.9999084,17.012198 C94.9999084,17.012198 93.7725084,19.6279043 91.3786272,21.7050793 C89.1157272,23.7645605 85.0583959,25.9285418 81.2312022,24.955148 C81.9093834,24.0514605 82.6452772,23.1737793 83.4008834,22.3218668 C86.1276209,22.5998605 88.3803084,21.8005543 90.5533147,20.5662668 C93.2055959,19.0630105 94.9999084,17.012198 94.9999084,17.012198 Z" id="Color"></path>
        </g>
    </g>
</svg>