<?xml version="1.0" encoding="UTF-8"?>
<svg width="80px" height="26px" viewBox="0 0 80 26" version="1.1" xmlns="http://www.w3.org/2000/svg" xmlns:xlink="http://www.w3.org/1999/xlink">
    <title>Color</title>
    <g id="⚙️-Symbols" stroke="none" stroke-width="1" fill="none" fill-rule="evenodd">
        <g id="Logos/Clients/Visa" transform="translate(-8.000000, -20.000000)" fill="#000000">
            <path d="M60.3159555,20 C63.3107626,20 66.1835789,21.092555 66.1835789,21.092555 L66.1835789,21.092555 L65.2525612,26.4735557 C62.4608486,24.9352651 56.1072729,24.5713036 56.1066026,27.4045734 C56.1066026,30.237173 65.2110039,30.8437756 65.2110039,37.3588886 C65.2110039,43.6327012 58.4948071,45.937791 54.0428132,45.937791 C49.5921599,45.937791 46.6791268,44.5228318 46.6791268,44.5228318 L46.6791268,44.5228318 L47.6490207,38.8965089 C50.320083,41.0407318 58.4137033,41.6500155 58.4137033,38.2496896 C58.4137033,34.8493636 49.3904058,34.7689301 49.3904058,28.2953744 C49.3904058,21.4149592 57.0785073,20 60.3159555,20 Z M18.4027319,20.4470762 C21.0605105,20.4470762 21.4558201,22.4380489 21.4939741,22.6793789 L21.4974106,22.7032357 L23.6925747,33.9719682 L23.6925747,33.9719682 L23.6925747,33.9726385 L23.6919044,33.9712979 L24.4278709,37.6826334 L30.6473909,20.4477465 L37.6685646,20.4477465 L27.2892925,45.5061313 L20.4919919,45.5061313 L14.8241117,23.7361358 C11.1442793,21.5262256 8,20.8720331 8,20.8720331 L8,20.8720331 L8.004,20.859 L8.12065024,20.4470762 Z M46.7374411,20.4477465 L42.6594629,45.505461 L36.1356363,45.505461 L40.2129441,20.4477465 L46.7374411,20.4477465 Z M82.7280783,20.4470762 L87.9508932,45.505461 L81.9606088,45.505461 L81.1964906,41.7834011 L72.903127,41.7834011 L71.5431307,45.505461 L64.7424788,45.505461 L74.4722504,22.3144738 C74.4722504,22.3144738 75.0620961,20.4470762 77.4838145,20.4470762 L77.4838145,20.4470762 L82.7280783,20.4470762 Z M78.2097268,27.2644851 L74.7819194,36.64169 L80.1381198,36.64169 L78.2097268,27.2644851 Z" id="Color"></path>
        </g>
    </g>
</svg>