<?xml version="1.0" encoding="UTF-8"?>
<svg width="1920px" height="1024px" viewBox="0 0 1920 1024" version="1.1" xmlns="http://www.w3.org/2000/svg" xmlns:xlink="http://www.w3.org/1999/xlink">
    <title>Illustration Copy</title>
    <defs>
        <rect id="path-1" x="0" y="4.54747351e-13" width="1920" height="1024"></rect>
    </defs>
    <g id="⚡️-UI-Kit" stroke="none" stroke-width="1" fill="none" fill-rule="evenodd">
        <g id="Illustration-Copy">
            <mask id="mask-2" fill="white">
                <use xlink:href="#path-1"></use>
            </mask>
            <use id="Mask" fill="#FFFFFF" opacity="0" xlink:href="#path-1"></use>
            <g id="Group-3" mask="url(#mask-2)">
                <g transform="translate(801.500000, 456.000000) rotate(-90.000000) translate(-801.500000, -456.000000) translate(-32.000000, -730.000000)">
                    <g id="Group-18" transform="translate(0.000000, 1583.500000)">
                        <path d="M1440.55776,166 C1440.48856,175.994471 1428.40556,194.204882 1424.61718,202.516256 C1386.25775,286.697116 1347.24098,421.362198 1240.0335,438.496816 C1198.88901,445.073039 1157.26016,428.623806 1122.13555,406.153598 C1054.89627,363.139201 997.145216,307.883312 922.285942,277.084378 C826.037069,237.50558 783.698981,326.327968 797.572381,410.699694 C810.018655,486.360961 850.886369,542.579859 871.212111,613.200512 C882.066922,650.931374 892.921732,721.213673 844.555117,721.473945 L1436.32827,718.298619 L1440.55776,166" id="Fill-17" fill="#FF6363"></path>
                        <path d="M860.5,694.843691 C860.370513,691.579063 859.240853,688.059875 857.628965,684.344184 C855.199971,678.784046 851.610062,672.817504 848.180894,667.364549 C844.756191,661.920525 841.469906,656.963293 839.746392,653.712064 C815.224271,607.591943 790.032391,547.176237 754.472637,496.201602 C718.944139,445.249297 672.788793,403.550491 606.491552,395.614454 C600.222605,394.86417 593.958123,394.506892 587.711501,394.506892 C543.163578,394.52029 499.73192,412.634284 462.640649,435.687645 C381.939119,485.889667 313.467393,549.123402 223.822343,585.574688 C203.269662,593.934993 184.766445,597.659615 168.339482,597.659615 C135.574857,597.628354 110.9679,582.957627 94.2507082,559.971255 C77.5603064,536.980417 68.9605969,505.580149 68.965062,472.540868 C68.965062,462.827373 69.7062623,452.970967 71.197593,443.154755 C83.9051595,359.167635 131.806345,295.380118 154.604951,215.582082 C159.52545,198.307692 164.289671,175.102487 164.294136,153.469306 C164.280741,137.753541 161.802631,122.814856 154.725508,111.547201 C151.184714,105.920073 146.456213,101.235266 140.383729,98.0063661 C134.311245,94.7685344 126.934962,93 118.15665,93 C117.687819,93 117.214522,93 116.741226,93.0134063 L116.834992,97.479381 C117.281498,97.4704491 117.719074,97.4659831 118.15665,97.4659831 C126.345574,97.4659831 132.940471,99.1005299 138.28515,101.945356 C146.277611,106.214828 151.61336,113.253204 155.029132,122.225347 C158.435975,131.188558 159.833539,142.036411 159.829074,153.469306 C159.833539,174.454921 155.158619,197.374303 150.309562,214.358405 C127.917276,293.142665 79.8017675,357.144548 66.7816467,442.480393 C65.2590605,452.52437 64.5,462.599609 64.5,472.540868 C64.5,506.343831 73.2515215,538.614964 90.638473,562.592782 C107.994169,586.575066 134.190688,602.152386 168.339482,602.12559 C185.44067,602.12559 204.515415,598.249124 225.505671,589.71018 C316.088384,552.830161 384.756573,489.341865 464.998202,439.479258 C501.656361,416.680457 544.4004,398.963935 587.711501,398.972867 C593.783986,398.972867 599.87433,399.321213 605.96021,400.049167 C670.547332,407.793167 715.581947,448.295092 750.811287,498.75614 C786.013836,549.194858 811.14767,609.405129 835.803742,655.806606 C838.357757,660.598597 843.354162,667.802214 847.779038,675.238062 C849.984779,678.944821 852.038707,682.69624 853.538968,686.130574 C855.043694,689.560443 855.967962,692.700023 856.034938,695 L860.5,694.843691" id="Fill-1680" fill="#F8F8F8" transform="translate(462.500000, 394.000000) rotate(-165.000000) translate(-462.500000, -394.000000) "></path>
                    </g>
                    <g id="Group-1084" transform="translate(237.000000, 0.500000)">
                        <path d="M163.39578,564.87554 C258.591024,558.925968 394.172392,496.967163 344.008849,381.236719 C308.962967,300.414477 223.944575,249.279383 137.450018,284.751319 C68.2873695,313.111522 37.0100487,376.145759 38.1909803,448.42525 C38.7206629,480.896381 40.0665776,519.828783 67.2019545,541.944537 C93.0608832,563.036896 131.276177,566.870294 163.39578,564.87554" id="Fill-1082" fill="#121212"></path>
                        <path d="M1261.13011,961 C1261.38779,959.63363 1261.5,958.179779 1261.5,956.646779 C1261.48753,949.827426 1259.33885,941.341768 1256.94912,933.243527 C1254.55939,925.174445 1251.89536,917.49278 1250.80648,912.827126 C1238.00168,858.268139 1227.97728,788.399975 1205.63019,726.288461 C1194.45041,695.228538 1180.18268,666.084866 1160.86951,641.76098 C1141.56049,617.441261 1117.17277,597.945494 1085.91926,586.327183 C1068.16045,579.720284 1049.58705,576.900063 1030.86403,576.900063 C998.86243,576.904229 966.399505,585.114946 936.509177,596.783246 C846.06101,632.129738 764.353021,684.08929 668.481206,702.826888 C657.297269,705.013913 646.919607,706.042857 637.319126,706.042857 C603.297682,706.013696 579.117769,693.212309 563.179308,672.833401 C547.253316,652.441995 539.651896,624.252282 539.656052,593.542283 C539.656052,568.610196 544.659939,542.049297 554.164831,516.771452 C586.677628,430.144427 648.523843,372.994335 689.726946,293.315802 C702.232507,269.046071 717.294041,232.324878 717.331445,202.36055 C717.331445,190.992185 715.141206,180.515293 709.58872,172.129614 C704.04039,163.735603 695.100721,157.616099 682.283456,155 L681.443933,159.082447 C693.425832,161.565241 701.17687,167.001561 706.126728,174.433281 C711.068274,181.877498 713.179549,191.50874 713.175393,202.36055 C713.212797,230.971005 698.408939,267.492242 686.036371,291.399551 C645.352775,370.274093 583.28629,427.586649 550.274766,515.300938 C540.603632,541.028685 535.5,568.051984 535.5,593.542283 C535.5,624.918804 543.234413,654.024984 559.904339,675.39951 C576.565953,696.790699 602.254512,710.237779 637.319126,710.208619 C647.214686,710.208619 657.858336,709.14635 669.275012,706.913501 C766.135968,687.938454 848.064227,635.770614 938.017824,600.665736 C967.575668,589.122409 999.577271,581.061659 1030.86403,581.065825 C1049.1756,581.065825 1067.24196,583.819394 1084.47295,590.230502 C1114.9576,601.573873 1138.6845,620.519759 1157.61532,644.35625 C1186.00947,680.09849 1203.52723,726.888331 1216.29877,775.03621 C1229.07864,823.184089 1237.11644,872.652515 1246.75848,913.781086 C1247.95127,918.846652 1250.60699,926.449168 1252.96762,934.426603 C1255.32826,942.374877 1257.35642,950.69807 1257.34395,956.646779 C1257.34395,957.975657 1257.2442,959.179562 1257.04887,960.212671 L1261.13011,961" id="Fill-1080" fill="#DBDBDB" opacity="0.300000012" transform="translate(898.500000, 558.000000) scale(1, -1) rotate(-240.000000) translate(-898.500000, -558.000000) "></path>
                        <path d="M-216.782311,723.857823 C-216.782311,701.597321 -216.061136,652.258706 -216.061136,600.304495 C-216.061136,540.788532 -216.061136,481.272569 -216.061136,421.756606 C-216.061136,376.810848 -216.061136,331.865091 -216.061136,286.919333 C-216.061136,276.987897 -220.516762,263.12189 -213.746671,255.118617 C-211.404253,252.346533 -207.708935,250.273059 -202.017809,249.317361 C-160.089086,242.275375 -117.780209,232.103617 -75.2365313,225.413729 C-34.4594503,219.008875 12.3497764,212.872287 52.3106449,224.743064 C114.588775,243.253428 148.377736,294.760529 147.695695,344.574199 C146.929797,400.870969 117.305756,453.143745 88.0562791,503.605726 C69.6076409,535.439976 44.4839499,566.257049 37.1939426,603.188356 C28.8417409,645.51293 58.6614489,673.043743 99.7907312,674.072097 C156.472775,675.486083 208.402896,644.903742 255.832668,617.428817 C300.981517,591.272868 341.864817,558.538809 386.331626,531.315383 C427.03044,506.388987 462.675445,493.204824 511.03883,498.65398 C592.430868,507.825329 659.052814,564.882185 700.685241,632.535555 C713.235905,652.923782 730.449044,679.124443 730.5,703.771395 C730.5,705.777802 730.471406,730 730.5,730 L-216.782311,723.857823" id="Fill-1677" fill="#FF6363" transform="translate(256.500000, 474.000000) rotate(-270.000000) translate(-256.500000, -474.000000) "></path>
                    </g>
                </g>
            </g>
        </g>
    </g>
</svg>