<?xml version="1.0" encoding="UTF-8"?>
<svg width="250px" height="210px" viewBox="0 0 250 210" version="1.1" xmlns="http://www.w3.org/2000/svg" xmlns:xlink="http://www.w3.org/1999/xlink">
    <title>Vector/Browser</title>
    <g id="⚙️-Symbols" stroke="none" stroke-width="1" fill="none" fill-rule="evenodd">
        <g id="Cards/Feature/Large/Outline" transform="translate(-146.000000, -125.000000)" fill="#000000" fill-rule="nonzero">
            <g id="Feature-Outline">
                <g id="Vector/Browser" transform="translate(146.000000, 105.000000)">
                    <path d="M235.289062,20 C243.917969,20 250,23.478125 250,30.7264063 L250,30.7264063 L250,221.038906 C250,228.287187 244.734375,230 236.105469,230 L236.105469,230 L13.4492188,230 C4.8203125,230 0,228.287188 0,221.038906 L0,221.038906 L0,34.0076563 C0,26.759375 4.8203125,20 13.4492188,20 L13.4492188,20 Z M239.00463,69.6153846 L10.9953704,69.6153846 L10.9953704,219.615385 L239.00463,219.615385 L239.00463,69.6153846 Z M107.760952,113.692898 C109.699333,113.041005 111.898086,113.812222 112.726195,115.434466 L112.726195,115.434466 L143.245566,180.523695 C144.031271,182.202148 143.062916,184.102677 141.082685,184.768644 C139.102454,185.434611 136.860221,184.613829 136.074516,182.935375 L136.074516,182.935375 L105.555145,117.846146 C104.845776,116.183969 105.822572,114.344791 107.760952,113.692898 Z M89.4184884,119.24773 C90.4561142,119.158948 91.4930852,119.421178 92.3005474,119.976548 C93.1115795,120.530116 93.6263209,121.333188 93.7304613,122.207424 C93.8346018,123.08166 93.5195207,123.954691 92.8551891,124.632641 L92.8551891,124.632641 L71.4365784,146.715161 L92.9377953,170.452299 C94.2543531,171.904594 93.9233686,173.979612 92.1982731,175.088536 C91.36988,175.622675 90.3225701,175.856988 89.2882155,175.739599 C88.2538609,175.62221 87.3177942,175.162804 86.6872586,174.463091 L86.6872586,174.463091 L63.3057669,148.647754 C62.201303,147.431087 62.2354944,145.735376 63.3883731,144.550922 L63.3883731,144.550922 L86.7698648,120.449769 C87.4278822,119.769008 88.3808626,119.336512 89.4184884,119.24773 Z M159.711094,119.253903 C161.131518,119.111783 162.531243,119.631847 163.364161,120.611191 L163.364161,120.611191 L186.696208,146.390559 C187.797965,147.60553 187.763857,149.298879 186.613804,150.481683 L186.613804,150.481683 L163.289606,174.55256 C162.633245,175.232646 161.682191,175.664481 160.646811,175.752544 C159.61143,175.840608 158.577052,175.577644 157.772475,175.021817 C156.96434,174.469533 156.450815,173.668834 156.345507,172.79686 C156.240199,171.924886 156.55179,171.053513 157.211345,170.375516 L157.211345,170.375516 L178.577472,148.320459 L157.128941,124.619699 C156.226768,123.684877 156.000091,122.410683 156.537348,121.294246 C157.074604,120.17781 158.290671,119.396023 159.711094,119.253903 Z M239.00463,32.6923077 L10.9953704,32.6923077 L10.9953704,62.6923077 L239.00463,62.6923077 L239.00463,32.6923077 Z M39.0625,45.3846154 C41.13996,45.3846154 42.8240741,46.9343989 42.8240741,48.8461538 C42.8240741,50.7579087 41.13996,52.3076923 39.0625,52.3076923 L39.0625,52.3076923 L31.5393519,52.3076923 C29.4618919,52.3076923 27.7777778,50.7579087 27.7777778,48.8461538 C27.7777778,46.9343989 29.4618919,45.3846154 31.5393519,45.3846154 L31.5393519,45.3846154 Z M62.2106481,45.3846154 C64.2881081,45.3846154 65.9722222,46.9343989 65.9722222,48.8461538 C65.9722222,50.7579087 64.2881081,52.3076923 62.2106481,52.3076923 L62.2106481,52.3076923 L54.6875,52.3076923 C52.61004,52.3076923 50.9259259,50.7579087 50.9259259,48.8461538 C50.9259259,46.9343989 52.61004,45.3846154 54.6875,45.3846154 L54.6875,45.3846154 Z M85.3587963,45.3846154 C87.4362563,45.3846154 89.1203704,46.9343989 89.1203704,48.8461538 C89.1203704,50.7579087 87.4362563,52.3076923 85.3587963,52.3076923 L85.3587963,52.3076923 L77.8356481,52.3076923 C75.7581882,52.3076923 74.0740741,50.7579087 74.0740741,48.8461538 C74.0740741,46.9343989 75.7581882,45.3846154 77.8356481,45.3846154 L77.8356481,45.3846154 Z" id="Combined-Shape"></path>
                </g>
            </g>
        </g>
    </g>
</svg>