<?xml version="1.0" encoding="UTF-8"?>
<svg width="250px" height="244px" viewBox="0 0 250 244" version="1.1" xmlns="http://www.w3.org/2000/svg" xmlns:xlink="http://www.w3.org/1999/xlink">
    <title>Icon/Cloud</title>
    <g id="⚙️-Symbols" stroke="none" stroke-width="1" fill="none" fill-rule="evenodd">
        <g id="Cards/Feature/Large/Fill" transform="translate(-145.000000, -111.000000)" fill="#FFFFFF">
            <g id="Feature-Fill">
                <g id="Vector/Cloud" transform="translate(145.000000, 108.000000)">
                    <path d="M126.209088,123.046274 C127.831015,122.106563 129.730845,121.764367 131.578789,122.079089 C132.488082,122.21419 133.36787,122.502513 134.180726,122.931791 L134.180726,122.931791 L180.972147,144.198033 C184.944147,146.00213 186.791956,150.684098 184.98363,154.651533 C183.179252,158.622916 178.682127,160.371746 174.710127,158.567648 L174.710127,158.567648 L140.541453,142.855816 L140.541453,239.104607 C140.541453,243.465112 137.006016,247 132.644833,247 C128.28365,247 124.748213,243.465112 124.748213,239.104607 L124.748213,239.104607 L124.748213,141.399116 L86.6272808,158.571596 C82.6710742,160.379641 77.7909631,158.626864 75.9865855,154.647586 C74.1822079,150.684098 75.7496869,145.998182 79.7216867,144.194085 L79.7216867,144.194085 Z M132.205868,3 C174.175237,3 206.756927,37.2046126 206.756927,79.2458191 L206.756927,79.2458191 L206.756927,79.9682306 C234.275246,84.8484341 250,106.493295 250,135.908006 L250,135.908006 L250,137.29001 C250,171.510327 231.696386,193.587065 201.897978,193.587065 L201.897978,193.587065 L155.046074,193.587065 C150.703803,193.587065 147.183697,190.071471 147.183697,185.734766 C147.183697,181.398061 150.703803,177.882468 155.046074,177.882468 L155.046074,177.882468 L201.901909,177.882468 C225.343586,177.882468 234.279177,158.828865 234.279177,137.29001 L234.279177,137.29001 L234.279177,135.908006 C234.279177,112.272587 220.19766,96.1125564 198.407082,94.734478 C194.263872,94.4753527 191.036291,91.0438892 191.036104,86.897884 L191.036104,86.897884 L191.036104,79.2497452 C191.036104,45.3003324 166.171337,18.7085233 132.312011,18.7085233 C105.406957,18.7085233 83.0778061,36.4115304 75.4866811,61.8254947 C94.7259175,64.5659469 112.011353,76.3404686 122.837846,94.0905895 C125.094349,97.7929483 123.922854,102.794862 120.215744,105.052398 C116.504702,107.309934 111.665409,106.218465 109.408907,102.520032 C99.7145957,86.6269797 84.1942636,77.5536487 66.8302041,77.5536487 C38.6514451,77.5536487 15.7247539,99.2338451 15.7247539,127.557086 C15.7247539,156.053078 38.6514451,177.878541 66.8302041,177.878541 L66.8302041,177.878541 L100.005504,177.878541 C104.347775,177.878541 107.867881,181.394135 107.867881,185.73084 C107.867881,190.067545 104.347775,193.583139 100.005504,193.583139 L100.005504,193.583139 L66.8302041,193.583139 C29.9792433,193.583139 0,164.733794 0,127.580643 C0,92.9598585 26.2760638,64.989971 59.8680693,61.5624427 C68.0095607,27.2793072 96.7504796,3 132.205868,3 Z" id="Color"></path>
                </g>
            </g>
        </g>
    </g>
</svg>