<?xml version="1.0" encoding="UTF-8"?>
<svg width="101px" height="22px" viewBox="0 0 101 22" version="1.1" xmlns="http://www.w3.org/2000/svg" xmlns:xlink="http://www.w3.org/1999/xlink">
    <title>Logo</title>
    <g id="⚡️-UI-Kit" stroke="none" stroke-width="1" fill="none" fill-rule="evenodd">
        <g id="Homepage-Desktop" transform="translate(-295.000000, -5918.000000)" fill="#FFFFFF">
            <g id="Testimonial" transform="translate(0.000000, 5314.000000)">
                <g id="Content" transform="translate(164.000000, 140.000000)">
                    <g id="Person" transform="translate(1.000000, 395.000000)">
                        <path d="M153.104182,73.9677419 C155.764964,73.9677419 157.949548,74.9011982 159.426279,76.6663594 C160.440566,77.8807373 161.099852,79.477788 161.344828,81.2659539 L161.344828,81.2659539 L150.109029,86.0637419 C150.947105,86.91447 152.135453,87.3997788 153.653444,87.3997788 C155.340339,87.3997788 156.397174,87.0635576 158.246957,85.6545253 L158.246957,85.6545253 L161.026359,87.8536774 C159.60378,89.5489401 156.56264,91 153.588547,91 C148.280306,91 144.627586,87.4568479 144.627586,82.4843134 C144.627586,77.6374194 148.27171,73.9677419 153.104182,73.9677419 Z M222.670196,73.9677419 C227.341067,73.9677419 231,77.6539201 231,82.483871 C231,87.2580712 227.316009,91 222.61298,91 C217.942526,91 214.282759,87.3133794 214.282759,82.483871 C214.282759,77.7083433 217.967585,73.9677419 222.670196,73.9677419 Z M189.236131,73.9677419 C193.905749,73.9677419 197.565517,77.6539201 197.565517,82.483871 C197.565517,87.2580712 193.880691,91 189.178079,91 C184.507208,91 180.848276,87.3133794 180.848276,82.483871 C180.848276,77.7083433 184.532267,73.9677419 189.236131,73.9677419 Z M172.295564,73.9677419 C176.140068,73.9677419 178.758621,76.6467901 178.758621,80.3392643 L178.758621,80.3392643 L178.758621,90.2903226 L174.388526,90.2903226 L174.388526,81.155695 C174.388526,79.0331474 172.517765,77.764533 170.709818,77.764533 C168.370298,77.764533 167.106744,79.5116259 167.106744,81.155695 L167.106744,81.155695 L167.106744,90.2903226 L162.737931,90.2903226 L162.737931,74.2371555 L167.107598,74.2371555 L167.106744,76.5373005 L167.107598,76.5364383 C168.379699,74.8246925 170.46326,73.9677419 172.295564,73.9677419 Z M201.923851,73.9677419 L205.924571,85.0898786 L209.924858,73.9677419 L214.97931,73.9677419 L208.348804,90.2903226 L203.499472,90.2903226 L196.868966,73.9677419 L201.923851,73.9677419 Z M134.511275,69 L134.511275,86.1579457 L144.627586,86.1579457 L144.627586,90.2903226 L130,90.2903226 L130,69 L134.511275,69 Z M222.61298,77.8450651 C220.228263,77.8450651 218.496315,79.7600548 218.496315,82.483871 C218.496315,85.0846818 220.330584,87.1226768 222.670196,87.1226768 C225.056166,87.1226768 226.787279,85.1550338 226.787279,82.483871 C226.787279,79.8830601 224.953427,77.8450651 222.61298,77.8450651 Z M189.178079,77.8450651 C186.792945,77.8450651 185.061833,79.7600548 185.061833,82.483871 C185.061833,85.0846818 186.895684,87.1226768 189.236131,87.1226768 C191.621266,87.1226768 193.351961,85.1550338 193.351961,82.483871 C193.351961,79.8830601 191.518527,77.8450651 189.178079,77.8450651 Z M153.184122,77.5670783 C151.743921,77.5670783 150.552135,78.1740461 149.803454,79.2088111 C149.12053,80.152 148.702352,81.4685714 148.911656,83.151447 L148.911656,83.151447 L156.590576,79.8719631 C155.969111,78.4978802 154.76744,77.5670783 153.184122,77.5670783 Z" id="Logo"></path>
                    </g>
                </g>
            </g>
        </g>
    </g>
</svg>