<?xml version="1.0" encoding="UTF-8"?>
<svg width="1920px" height="1024px" viewBox="0 0 1920 1024" version="1.1" xmlns="http://www.w3.org/2000/svg" xmlns:xlink="http://www.w3.org/1999/xlink">
    <title>Group-3 Clipped</title>
    <defs>
        <rect id="path-1" x="0" y="4.54747351e-13" width="1920" height="1024"></rect>
    </defs>
    <g id="Page-1" stroke="none" stroke-width="1" fill="none" fill-rule="evenodd">
        <g id="banner-bg">
            <g id="Group-3-Clipped">
                <mask id="mask-2" fill="white">
                    <use xlink:href="#path-1"></use>
                </mask>
                <g id="path-1"></g>
                <g id="Group-3" mask="url(#mask-2)">
                    <g transform="translate(-385.000000, 539.000000)" id="Group">
                        <g transform="translate(475.000000, 257.000000) rotate(-90.000000) translate(-475.000000, -257.000000) translate(218.500000, -217.500000)">
                            <g id="Group-1084" transform="translate(0.000000, 0.500000)" fill-rule="nonzero">
                                <path d="M163.39578,564.87554 C258.591024,558.925968 394.172392,496.967163 344.008849,381.236719 C308.962967,300.414477 223.944575,249.279383 137.450018,284.751319 C68.2873695,313.111522 37.0100487,376.145759 38.1909803,448.42525 C38.7206629,480.896381 40.0665776,519.828783 67.2019545,541.944537 C93.0608832,563.036896 131.276177,566.870294 163.39578,564.87554" id="Fill-1082" fill="#121212"></path>
                                <path d="M-216.782311,723.857823 C-216.782311,701.597321 -216.061136,652.258706 -216.061136,600.304495 C-216.061136,540.788532 -216.061136,481.272569 -216.061136,421.756606 C-216.061136,376.810848 -216.061136,331.865091 -216.061136,286.919333 C-216.061136,276.987897 -220.516762,263.12189 -213.746671,255.118617 C-211.404253,252.346533 -207.708935,250.273059 -202.017809,249.317361 C-160.089086,242.275375 -117.780209,232.103617 -75.2365314,225.413729 C-34.4594504,219.008875 12.3497763,212.872287 52.3106448,224.743064 C114.588775,243.253428 148.377736,294.760529 147.695695,344.574199 C146.929797,400.870969 117.305756,453.143745 88.056279,503.605726 C69.6076408,535.439976 44.4839498,566.257049 37.1939425,603.188356 C28.8417408,645.51293 58.6614488,673.043743 99.7907311,674.072097 C156.472775,675.486083 208.402896,644.903742 255.832668,617.428817 C300.981517,591.272868 341.864817,558.538809 386.331626,531.315383 C427.03044,506.388987 462.675445,493.204824 511.03883,498.65398 C592.430868,507.825329 659.052814,564.882185 700.685241,632.535555 C713.235905,652.923782 730.449044,679.124443 730.5,703.771395 C730.5,705.777802 730.471406,730 730.5,730 L-216.782311,723.857823" id="Fill-1677" fill="#FF6363" transform="translate(256.500000, 474.000000) rotate(90.000000) translate(-256.500000, -474.000000) "></path>
                            </g>
                        </g>
                    </g>
                </g>
            </g>
        </g>
    </g>
</svg>