<?xml version="1.0" encoding="UTF-8"?>
<svg width="19px" height="24px" viewBox="0 0 19 24" version="1.1" xmlns="http://www.w3.org/2000/svg" xmlns:xlink="http://www.w3.org/1999/xlink">
    <title>Path</title>
    <g id="⚙️-Symbols" stroke="none" stroke-width="1" fill="none" fill-rule="evenodd">
        <g id="Icon/Profile" transform="translate(-7.000000, -4.000000)" fill="#000000">
            <path d="M19.975,15.625 C21.6625,14.4625 22.75,12.55 22.75,10.375 C22.75,6.85 19.9,4 16.375,4 C12.85,4 10,6.85 10,10.375 C10,12.55 11.0875,14.4625 12.775,15.625 C9.4375,16.675 7,19.825 7,23.5 L7,28 L25.75,28 L25.75,23.5 C25.75,19.825 23.3125,16.675 19.975,15.625 Z M11.5,10.375 C11.5,7.675 13.675,5.5 16.375,5.5 C19.075,5.5 21.25,7.675 21.25,10.375 C21.25,13.075 19.075,15.25 16.375,15.25 C13.675,15.25 11.5,13.075 11.5,10.375 Z M24.25,26.5 L8.5,26.5 L8.5,23.5 C8.5,19.7875 11.5375,16.75 15.25,16.75 L17.5,16.75 C21.2125,16.75 24.25,19.7875 24.25,23.5 L24.25,26.5 Z" id="Color"></path>
        </g>
    </g>
</svg>