<?xml version="1.0" encoding="UTF-8"?>
<svg width="492px" height="290px" viewBox="0 0 492 290" version="1.1" xmlns="http://www.w3.org/2000/svg" xmlns:xlink="http://www.w3.org/1999/xlink">
    <title>Path</title>
    <g id="⚡️-UI-Kit" stroke="none" stroke-width="1" fill="none" fill-rule="evenodd">
        <g id="up-arrow" fill="#FFFFFF" fill-rule="nonzero">
            <path d="M484.136,227.473 L264.988,8.329 C259.924,3.265 253.172,0.485 245.816,0.485 C238.608,0.485 231.852,3.265 226.796,8.329 L7.852,227.265 C2.788,232.333 0,239.089 0,246.297 C0,253.505 2.784,260.265 7.852,265.329 L23.976,281.453 C29.04,286.517 35.8,289.313 43.008,289.313 C50.216,289.313 56.972,286.517 62.04,281.453 L245.892,97.601 L429.948,281.665 C435.012,286.725 441.768,289.517 448.98,289.517 C456.188,289.517 462.94,286.725 468.008,281.665 L484.136,265.533 C494.624,255.041 494.624,237.965 484.136,227.473 Z" id="Path"></path>
        </g>
    </g>
</svg>