<?xml version="1.0" encoding="UTF-8"?>
<svg width="445px" height="311px" viewBox="0 0 445 311" version="1.1" xmlns="http://www.w3.org/2000/svg" xmlns:xlink="http://www.w3.org/1999/xlink">
    <title>Illustration</title>
    <g id="⚡️-UI-Kit" stroke="none" stroke-width="1" fill="none" fill-rule="evenodd">
        <g id="Support-Desktop" transform="translate(-165.000000, -1786.000000)" fill-rule="nonzero">
            <g id="Content">
                <g id="Contact" transform="translate(165.000000, 1677.000000)">
                    <g id="Left" transform="translate(0.000000, 1.000000)">
                        <g id="Illustration" transform="translate(0.000000, 108.000000)">
                            <polygon id="Path" fill="#FFFFFF" points="327 103 443 170.391098 443 287 327 219.688771"></polygon>
                            <polygon id="Path" fill="#FFFFFF" points="269 69 327 102.669667 327 161 269 127.330333"></polygon>
                            <polygon id="Path" fill="#FFFFFF" points="386 79 444 112.641012 444 171 386 137.279154"></polygon>
                            <polygon id="Path" fill="#FFFFFF" points="235.488788 225 19 225 163.747768 310 380 310"></polygon>
                            <path d="M124.806423,105.412654 L112.38251,58.9729099 C110.800923,53.1062433 114.26708,47.0669197 120.137457,45.4609327 L120.374366,45.3810892 C126.251966,43.8043113 132.301578,47.2631928 133.912062,53.1213025 L135.415054,58.728773 L184,240.372739 L177.978802,261 L162.390452,246.232023 L124.806423,105.412654 Z" id="Path" fill="#000000"></path>
                            <polygon id="Path" fill="#000000" points="317 272.703816 365.068776 272 430 310 379.489256 310"></polygon>
                            <polygon id="Path" fill="#9EF2EB" points="289 255 317.304098 272 365 271.36667 335.83553 255"></polygon>
                            <polygon id="Path" fill="#FFDB43" points="262 239.557114 288.429448 255 336 254.521811 309.966258 239"></polygon>
                            <polygon id="Path" fill="#FFC5FF" points="236 225 262.287888 241 310 240.425723 285.0455 225"></polygon>
                            <path d="M95.1510326,133.226646 L22,139 L45.6733691,82.5333659 C48.8888018,74.9097777 56.0751254,69.7171859 64.3082738,69.0684206 C72.5414222,68.4196553 80.449195,72.4228448 84.8139734,79.4491186 L101.229309,105.941973 L161.28029,101.750718 C164.002103,101.559507 166.365759,103.610077 166.566949,106.337113 L166.566949,106.417064 C166.758605,109.14514 164.712071,111.514512 161.990599,111.715327 C164.712411,111.524117 167.076067,113.574686 167.277257,116.301723 L167.277257,116.381674 C167.468914,119.10975 165.42238,121.479121 162.700907,121.679937 C165.423276,121.48875 167.787176,123.540218 167.987566,126.26787 L167.987566,126.346283 C168.179222,129.074359 166.132688,131.443731 163.411216,131.644547 L97.677767,136.310893 L95.1510326,133.226646 Z" id="Path" fill="#DDDDDD"></path>
                            <path d="M100,39.6553666 L67.0300353,44 L72.9602942,29.34346 L72.2486017,28.3345881 L54.6176867,19.5699199 C54.6176867,19.5699199 49.9524882,16.6217219 51.2175486,12.7445777 C52.482609,8.86743353 54.932799,8.16770778 54.932799,8.16770778 L64.8949576,2.88960405 C66.8387534,1.82437001 69.1777428,1.70949539 71.2202597,2.57894994 L72.1702079,3.0449311 C74.9370472,4.82893016 75.3320904,7.31114694 74.9370472,8.16469172 C74.542004,9.01823649 73.6689125,27.7102639 73.6689125,27.7102639 L74.1438866,28.7960452 L100,39.6553666 Z" id="Path" fill="#FFDB43"></path>
                            <path d="M81.8819323,135 L131,188.68723 L108.124636,238.996943 L73.6562437,238.996943 L93.7902195,198.277237 L87.2870367,198.984835 C85.9905095,199.156582 84.6731935,198.908693 83.5267654,198.277237 C82.0388006,197.491697 80.0802308,195.99856 80.3939675,194.268538 C80.4328027,193.613991 80.4328027,192.957706 80.3939675,192.303159 C80.7077042,190.102425 82.9830567,188.451874 85.0939259,187.90169 L90.1076209,186.486495 L65.0391457,165.496988 L43.7309418,239 L3,239 L11.4617526,226.737017 C11.4617526,226.737017 16.161711,218.331433 15.8479743,214.474034 C15.3677139,210.985769 14.6078138,207.542065 13.5756678,204.176429 C13.5756678,204.176429 11.6962937,197.652168 13.8894045,192.935871 C15.1250492,190.219783 16.6765955,187.659938 18.5116902,185.309713 C18.5116902,185.309713 26.5835564,176.66266 27.2064608,170.373755 C27.7547385,164.084849 24.6996133,156.145393 24.6996133,156.145393 C24.6996133,156.145393 24.1513356,149.463718 26.1891011,145.847788 C27.5328005,143.501091 29.0243011,141.24279 30.6545184,139.086642 L81.8819323,135 Z" id="Path" fill="#FFDB43"></path>
                            <path d="M7,266 L13.8125367,240.72457 L46.6953955,240 C46.6953955,240 57.8923134,240.72457 60.8685166,249.41784 C62.6504017,254.576519 63.70492,259.970798 64,265.43662 L7,266 Z" id="Path" fill="#000000"></path>
                            <path d="M79,265.989115 L86.0219193,240.155493 L115.529932,240 C115.529932,240 125.390989,241.279708 129.888208,248.085641 C134.385427,254.891573 133.99123,259.601459 133.99123,259.601459 L133.99123,266 L79,265.989115 Z" id="Path" fill="#000000"></path>
                            <polygon id="Path" fill="#FFDB43" points="327 161.641573 269 128 269 186.280126 327 220"></polygon>
                            <polygon id="Path" fill="#DDDDDD" points="327 44.6702298 269 11 269 69.3297702 327 103"></polygon>
                            <polygon id="Path" fill="#FF6363" points="386 78.7208464 328 45 328 103.358988 386 137"></polygon>
                            <path d="M295.137774,43 L315.522145,74.8098902 C315.522145,74.8098902 318.440561,79.3424387 316.075108,81.765977 C313.709654,84.1895153 310.699077,82.4694869 309.359678,81.4529683 C307.609159,79.5845948 306.023342,77.5715759 304.619555,75.4359076 L287,46.90957 L295.137774,43 Z" id="Path" fill="#FFFFFF"></path>
                            <path d="M281.24116,29.4949076 C281.24116,29.4949076 278.879698,31.5689401 280.671371,35.965373 C282.567687,39.8578245 284.830565,43.5533851 287.428127,47 L295,43.6809029 L288.729147,32.3156564 C288.729147,32.3156564 285.880198,27.9192235 281.402601,29.2513782" id="Path" fill="#000000"></path>
                            <polygon id="Path" fill="#000000" points="377 162 396.680477 227.685051 413 237 393.319523 171.316484"></polygon>
                            <path d="M66.8707097,43.3563148 L100,39 L95.7107539,49.890787 L98.887916,59.0708129 L91.6578257,59.5382092 C91.6578257,59.5382092 86.1761785,73.9321994 72.0419001,68.9526895 C57.9076218,63.9731797 64.5677691,48.8032209 64.5677691,48.8032209 L66.8707097,43.3563148 Z" id="Path" fill="#FFFFFF"></path>
                            <circle id="Oval" fill="#FFC5FF" cx="137" cy="63" r="5"></circle>
                            <circle id="Oval" fill="#FFC5FF" cx="141" cy="75" r="5"></circle>
                            <circle id="Oval" fill="#FFC5FF" cx="144" cy="86" r="5"></circle>
                            <polygon id="Path" fill="#FFC5FF" points="116.824986 73 122 93.0484863 96.278107 99 85 80.5958306"></polygon>
                            <circle id="Oval" fill="#000000" cx="85.5" cy="51.5" r="2.5"></circle>
                            <path d="M285.444847,222.661063 L181.31579,222.661063 L157.772554,134.323662 L162.994827,133.928873 C164.619911,133.81802 166.133652,133.06344 167.200474,131.832413 C168.267297,130.601387 168.799064,128.995617 168.677889,127.371081 L168.677889,127.291202 C168.534801,125.328964 167.483073,123.54633 165.834822,122.472324 C166.07136,122.234221 166.307899,122.077535 166.545973,121.839433 C167.619128,120.593994 168.158292,118.97576 168.046609,117.335464 L168.046609,117.25712 C167.966122,115.620596 167.189689,114.096619 165.913156,113.069596 C165.683598,112.841407 165.416554,112.65435 165.123671,112.516585 C166.612308,111.236126 167.428193,109.341238 167.335458,107.379725 L167.335458,107.301382 C167.254971,105.664858 166.478538,104.14088 165.202006,103.113858 C163.956699,102.040465 162.338814,101.500739 160.698563,101.611511 L149.243353,102.402624 L146.632216,92.5252287 C149.696807,91.2964253 151.359699,87.9709125 150.504378,84.7815352 C149.7939,82.2856908 147.693388,80.4334225 145.128509,80.0409999 C145.796256,79.5413761 146.337576,78.8921366 146.709015,78.1454003 C147.581578,76.6679255 147.809777,74.8971009 147.340295,73.2466424 C146.629985,70.7504132 144.529539,68.8976028 141.964426,68.504571 C144.114713,66.7765018 144.946439,63.8829596 144.042036,61.2766391 C143.137634,58.6703185 140.692441,56.9141444 137.93406,56.8897988 C137.642497,56.8766948 137.350514,56.9035707 137.066241,56.9696782 L135.880477,52.6239315 C135.045216,49.492753 133.001131,46.8213194 130.197415,45.1966833 C127.408415,43.5528216 124.067564,43.124201 120.953992,44.0107815 L120.715918,44.0906609 C114.225705,45.8500665 110.377274,52.5241611 112.105311,59.0235005 L115.817732,72.9301971 L85.2459306,79.8827773 L85.1675965,79.804434 C83.3341513,76.8135628 80.8497754,74.2748134 77.8994209,72.3771858 L78.1359592,72.3771858 C84.4451067,72.3951833 90.1337134,68.5814687 92.5141061,62.7378927 L92.9887186,61.630334 L100.975725,61.0773228 L97.419971,50.7267957 C98.2109918,48.7513167 101.76521,40.1397028 101.76521,40.1397028 L102.239822,39.0336803 L75.0624978,27.8198412 L76.4049292,8.14493022 C76.5773314,6.0565539 75.8600032,3.99245979 74.4296812,2.46120358 C72.9904835,0.881200209 70.9481675,-0.0133249197 68.8111296,0.000150070665 C67.5745589,0.00695538778 66.3569415,0.304817112 65.2569118,0.869760116 L54.3515766,6.63797458 C51.8388958,7.97286474 50.281005,10.5984338 50.3133346,13.4437681 C50.3456641,16.2891025 51.96281,18.8785874 54.5051728,20.1560271 L72.2824053,29.0856225 L63.5996081,50.7267957 C60.9222277,57.1621929 62.8603386,64.5933242 68.339589,68.9008957 C66.7662178,68.7161663 65.178309,68.6894065 63.5996081,68.8210163 C54.8719843,69.4359666 47.2483224,74.9482443 43.9285336,83.0441582 L19.5067265,141.197899 L27.8009251,140.566544 L27.4845168,140.881453 C22.8334474,146.732931 21.6305749,154.610972 24.3235055,161.584043 L24.4033756,161.820609 C27.1094979,168.634072 25.493146,176.40495 20.2946753,181.573864 L17.1352,184.735245 C11.5145076,190.464979 9.64465022,198.894624 12.315349,206.463978 L12.9481657,208.359578 C14.98393,213.994327 14.1654132,220.266159 10.751739,225.189553 L0,240.598597 L11.53508,240.598597 L4.42357261,266.276752 L64.633311,266.276752 L64.633311,259.640617 C64.6156781,256.996868 64.1315915,254.376982 63.2033297,251.901532 L78.925444,261.146037 L77.5031425,266.203017 L87.5375869,266.203017 L163.145352,310.846386 L163.452544,311 L435,311 L285.759719,222.899165 L285.444847,222.661063 Z M52.933883,13.5122115 C52.9138846,11.5640706 53.9797237,9.76673739 55.6986159,8.85001955 L66.6039511,3.08180508 C67.3608922,2.67772182 68.2035488,2.46071237 69.0614915,2.44891444 C70.5190178,2.47569432 71.9082323,3.07169293 72.9321175,4.1094843 C73.9599899,5.15134341 74.4545661,6.60638245 74.2745489,8.05890624 L73.0104516,26.8643607 L55.85682,18.2542829 C54.0859467,17.3301033 52.9638752,15.5096935 52.933883,13.5122115 L52.933883,13.5122115 Z M75.1331521,30.4988735 L75.1331521,30.3452592 L96.3862681,39.1150958 L69.6036863,42.5883137 L74.6600756,30.2623076 L75.1331521,30.4988735 Z M65.8113944,61.7885567 C64.4674121,58.5512128 64.4674121,54.9119394 65.8113944,51.6745956 L68.503937,45.1168039 L98.9927969,41.1658458 L95.9116557,48.5162869 C95.1221708,50.491766 94.8840966,50.9664339 95.280375,51.3612225 L97.8085696,58.866814 L91.408213,59.2616026 L90.3821899,61.7117496 C90.3023198,61.9483155 90.1441157,62.1864176 90.0657816,62.4229835 C89.4048234,62.6490994 88.7090184,62.7562388 88.0106635,62.7394288 C84.5347882,62.7586094 81.6201305,60.1189756 81.2954345,56.6578413 L81.2954345,55.9466074 L78.925444,55.9466074 C78.9122429,56.2646399 78.9390767,56.5830705 79.0053141,56.8944072 C79.4861576,61.5546582 83.4060995,65.1005824 88.0905335,65.1127687 L88.4069418,65.1127687 C85.9062899,68.1695711 82.1633513,69.9391569 78.2142933,69.9318804 C76.4760868,69.9422246 74.7545076,69.5928475 73.157904,68.9055041 L72.9213658,68.8256247 C69.6876578,67.5529246 67.1175821,65.0092016 65.8113944,61.7885567 L65.8113944,61.7885567 Z M292.001871,255.768002 L336.718354,255.768002 L361.447354,270.385933 L316.730871,270.385933 L292.001871,255.768002 Z M287.973041,253.397735 L266.162371,240.518717 L310.878853,240.518717 L332.689524,253.397735 L287.973041,253.397735 Z M270.828625,232.06379 L261.90161,238.076251 L241.437979,225.986811 L270.828625,232.06379 Z M249.102433,225.032867 L281.257812,225.032867 L273.673228,230.16819 L249.102433,225.032867 Z M274.146305,232.696681 L299.981198,238.073179 L266.166979,238.073179 L274.146305,232.696681 Z M276.832704,230.879424 L285.126902,225.269432 L304.246566,236.567759 L276.832704,230.879424 Z M183.527577,240.282151 L178.151707,258.692817 L164.328043,245.497355 L135.098672,135.982695 L155.322693,134.561764 L183.527577,240.282151 Z M96.3862681,138.669408 L132.648812,136.057966 L155.718972,222.656454 L117.012711,222.656454 L133.049698,189.076383 L84.2982416,136.062575 L94.0162777,135.271461 L96.3862681,138.669408 Z M148.134388,85.3345464 C148.434356,86.3926955 148.293436,87.5272111 147.743711,88.4797935 C147.193986,89.4323759 146.282242,90.1219533 145.216059,90.391527 C144.854488,90.4873473 144.482627,90.5389291 144.10863,90.5451412 C142.637284,90.515493 141.289789,89.7146585 140.560362,88.4363577 C139.830934,87.1580569 139.826924,85.5904194 140.549804,84.3084033 C141.084213,83.3450355 142.003734,82.6550346 143.077999,82.4112675 C143.439218,82.3162994 143.810467,82.2647309 144.183892,82.2576533 C146.043283,82.2765341 147.660619,83.536216 148.134388,85.3345464 L148.134388,85.3345464 Z M145.053247,73.7996536 C145.359225,74.8626072 145.216573,76.0045108 144.658504,76.9594984 C144.123794,77.9226037 143.204407,78.6125045 142.13031,78.8566342 C141.76859,78.9517089 141.396819,79.0032782 141.022881,79.0102484 C138.967241,78.966229 137.254222,77.4224739 136.997109,75.3822634 C136.739995,73.3420529 138.016427,71.4214701 139.996857,70.868694 C140.357927,70.7729818 140.729267,70.7214008 141.102751,70.7150798 C142.964339,70.7348944 144.582388,71.9982779 145.053247,73.7996536 L145.053247,73.7996536 Z M141.972106,62.2632247 C142.271627,63.3213618 142.130508,64.4556712 141.58085,65.408138 C141.031192,66.3606049 140.119725,67.0502505 139.053776,67.3202052 C138.692056,67.41528 138.320285,67.4668492 137.946347,67.4738195 C136.474343,67.4428567 135.126952,66.6403832 134.398439,65.3607711 C133.669926,64.081159 133.66753,62.5127698 134.39213,61.230937 C134.926264,60.2676282 135.846004,59.5780222 136.920324,59.3353374 C137.281394,59.2396252 137.652734,59.1880442 138.026217,59.1817232 C139.865357,59.2585058 141.451725,60.4973638 141.972106,62.2632247 L141.972106,62.2632247 Z M121.351806,46.3027058 L121.588344,46.2228264 C126.842425,44.8354837 132.233919,47.9371542 133.676371,53.1769428 L134.860598,57.6010327 C133.818497,58.1830766 132.94688,59.0277863 132.332404,60.0511797 C131.460536,61.5288937 131.232376,63.2994244 131.701123,64.9499376 C132.411601,67.445782 134.512114,69.2980503 137.076992,69.6904729 C135.03796,71.3032345 134.163494,73.9808065 134.857526,76.4863666 C135.568005,78.982211 137.668517,80.8344793 140.233396,81.2269018 C139.566475,81.7273957 139.025333,82.3764213 138.65289,83.1225014 C137.781197,84.6002751 137.553046,86.3707325 138.021609,88.0212594 C138.777197,90.8514746 141.333249,92.8258356 144.262226,92.841674 L144.342096,92.841674 L146.870291,102.480967 L126.644734,103.903435 L114.478373,58.392146 C113.057726,53.1579025 116.127714,47.7582091 121.351806,46.3027058 L121.351806,46.3027058 Z M124.194873,104.061658 L101.284453,105.642348 L98.2816461,100.745126 L121.904753,95.3686281 L124.194873,104.061658 Z M116.453621,75.2221214 L121.187458,93.0782399 L96.8532008,98.6083523 L86.589898,81.9381357 L116.453621,75.2221214 Z M46.1387839,83.9136147 C49.1831647,76.7124259 55.9854095,71.8073477 63.7787717,71.1934727 C71.5721338,70.5795977 79.0583012,74.3591927 83.1923484,80.9949443 L100.020356,108.097104 L160.853695,103.831236 C161.867763,103.742424 162.872081,104.086722 163.618428,104.779036 C164.374082,105.443861 164.829801,106.385312 164.882525,107.390478 L164.882525,107.470357 C165.021968,109.538568 163.472716,111.334486 161.406642,111.499659 L138.416352,113.080349 L138.569948,115.450617 L161.560238,113.869926 C162.574211,113.781894 163.578221,114.126087 164.324971,114.817726 C165.080625,115.482551 165.536344,116.424002 165.589068,117.429168 L165.589068,117.507511 C165.67709,118.521603 165.332938,119.525731 164.641379,120.272568 C163.976043,121.027316 163.034927,121.482426 162.030243,121.535277 L139.039953,123.115967 L139.193549,125.486235 L162.197663,123.894791 C164.265915,123.75448 166.062141,125.304359 166.226493,127.371081 L166.226493,127.449425 C166.366815,129.518214 164.817322,131.315095 162.750609,131.480262 L97.5704954,136.140918 L72.7631616,100.898741 L70.7879136,102.241329 L92.435772,132.978001 L23.1484941,138.42977 L46.1387839,83.9136147 Z M12.8775114,226.612021 C16.71214,221.062006 17.6523914,214.009295 15.405706,207.648344 L14.7744253,205.752744 C12.4135576,199.036738 14.0694415,191.562654 19.0459376,186.472622 L22.2069489,183.312777 C27.9843149,177.436991 29.7777762,168.718174 26.7887257,161.038713 L26.7103916,160.802147 C24.2832675,154.637099 25.3378127,147.644646 29.4751245,142.469824 L31.1339642,140.416002 L81.3814484,136.465044 L130.284965,189.641683 L107.056601,238.38348 L75.6860987,238.38348 L95.7534515,196.743269 L86.9846404,198.165737 C85.7917471,198.38091 84.5628971,198.09533 83.5870909,197.37616 C82.5947621,196.691713 81.9134067,195.642502 81.6917129,194.457489 L81.6917129,194.37761 C81.2454895,191.958462 82.8313752,189.631447 85.2459306,189.162407 L92.5939762,187.819818 L66.442675,164.507322 L69.3610042,154.235139 L67.0708838,153.603784 L42.6629003,238.306672 L4.73998093,238.306672 L12.8775114,226.612021 Z M65.7392041,167.035813 L87.3870626,186.237592 L84.775926,186.71226 C81.0962541,187.454858 78.6779814,190.994124 79.3232584,194.692519 L79.3232584,194.770863 C79.6517768,196.584231 80.6716897,198.199098 82.1678613,199.274832 C83.6588506,200.327026 85.5028346,200.75278 87.3041206,200.460734 L91.5694891,199.7495 L80.5105575,222.742478 L49.5363335,222.742478 L65.7392041,167.035813 Z M62.5797288,263.986364 L7.82112214,263.986364 L14.2998129,240.67694 L43.5322552,240.67694 C54.0510361,240.67694 62.5781929,249.205094 62.5781929,259.725105 L62.5781929,263.992508 L62.5797288,263.986364 Z M61.3939656,248.025845 C57.7805194,242.434844 51.751932,238.865048 45.1127608,238.385016 L48.9849228,225.11121 L79.4783906,225.11121 L71.9736768,240.67694 L84.9295223,240.67694 L79.8700611,258.929383 L61.3939656,248.025845 Z M87.3087285,240.67694 L114.083631,240.67694 C124.602411,240.67694 133.129568,249.205094 133.129568,259.725105 L133.129568,263.992508 L80.7532396,263.992508 L87.3087285,240.67694 Z M92.4434519,266.356631 L135.571749,266.356631 L135.571749,259.71896 C135.562432,247.897142 125.982401,238.315991 114.161965,238.306672 L109.658522,238.306672 L115.979009,225.11121 L156.430123,225.11121 L162.196127,246.7616 L179.340542,263.115371 L179.578617,262.325794 C184.863306,264.138027 190.318364,265.408792 195.859821,266.118529 C195.920017,271.384882 198.432028,276.322017 202.653384,279.470679 C206.800285,282.467293 211.498025,284.615456 216.477049,285.791904 C226.771015,288.631005 237.401266,290.066451 248.079482,290.059308 C255.236348,290.075136 262.378659,289.413695 269.410932,288.083829 L269.016189,285.791904 C251.788767,288.950306 234.069937,288.167273 217.1882,283.501516 C212.514225,282.419864 208.107267,280.403974 204.232354,277.575079 C200.675628,274.914986 198.500495,270.798779 198.30661,266.36124 C211.877155,267.938846 225.627595,266.175938 238.361446,261.225916 C241.640111,260.04209 244.648745,258.214031 247.210127,255.849418 C248.451387,254.749778 249.309597,253.282848 249.659987,251.661894 C249.993928,249.136078 248.936387,246.627063 246.895254,245.102566 C245.041414,243.796734 242.90028,242.956831 240.653102,242.653955 C231.409678,240.994922 221.060362,243.128623 209.920024,248.975181 C206.558097,250.590365 203.487881,252.753005 200.834805,255.37475 C198.548627,257.659121 196.935758,260.52914 196.173158,263.669919 C190.763201,262.958942 185.441719,261.687877 180.294375,259.877183 L185.977437,240.123929 L181.948607,224.874644 L235.433901,224.874644 L377.169468,308.629732 L164.329579,308.629732 L92.4434519,266.356631 Z M198.54622,264.144586 C199.234012,261.521608 200.595927,259.124208 202.496716,257.19047 C204.991786,254.754969 207.87541,252.75255 211.028989,251.265569 C221.694714,245.655577 231.491084,243.600219 240.181561,245.180909 C242.058863,245.397427 243.853174,246.076178 245.403835,247.156388 C246.746147,248.14186 247.464289,249.766057 247.289997,251.422256 C246.996784,252.557998 246.362638,253.57661 245.472953,254.340926 C243.1077,256.473824 240.339917,258.11223 237.332351,259.159805 C224.99829,263.949745 211.682706,265.660721 198.53854,264.144586 L198.54622,264.144586 Z M381.837259,308.786419 L320.767381,272.7562 L365.483864,272.7562 L426.555277,308.866298 L381.829579,308.866298 L381.837259,308.786419 Z" id="Shape" fill="#000000"></path>
                            <polygon id="Path" fill="#000000" points="343.487766 129.250397 356.756923 136.769231 358 134.644827 341 125 341 142 343.487766 142"></polygon>
                            <polygon id="Path" fill="#000000" points="343.487766 199 341 199 341 214.22904 356.756923 223 358 220.9274 343.487766 212.874176"></polygon>
                            <path d="M357.674817,202.533514 L351.19987,198.83082 L350,200.879705 L366.4749,210.25282 L367.67477,208.203935 L359.760601,203.71415 L367.354598,188.197441 L389.49935,200.800078 L397.654426,227.974607 L417,239 L396.212095,170.160205 L378.383456,160 L357.674817,202.533514 Z M394.210239,171.735918 L412.917022,233.960477 L399.646956,226.398895 L380.938619,164.171274 L394.210239,171.735918 Z M388.459567,197.49246 L368.391273,186.068928 L378.703628,164.959895 L388.459567,197.49246 Z" id="Shape" fill="#000000"></path>
                            <polygon id="Path" fill="#000000" points="427.51247 260.769767 414.244571 253.205953 413 255.320279 430 265 430 248 427.51247 248"></polygon>
                            <polygon id="Path" fill="#000000" points="427.51247 192 430 192 430 176.720627 414.244571 168 413 170.081006 427.51247 178.079969"></polygon>
                            <path d="M387.062907,76.9424052 L387.062907,76.9424052 L329.205071,43.1845062 L329.205071,43.1845062 L269,8 L269,186.299696 L326.857836,220.057595 L326.857836,220.057595 L445,289 L445,110.780416 L387.062907,76.9424052 Z M384.711099,78.3690123 L384.711099,134.077557 L345.041291,110.939099 L329.205071,101.666153 L329.205071,45.8790373 L384.711099,78.3690123 Z M271.267978,67.9082541 L271.267978,12.1195976 L326.774006,44.5310014 L326.774006,100.319658 L299.099487,84.1540119 L271.267978,67.9082541 Z M271.267978,126.391442 L271.267978,70.682897 L299.021754,86.848543 L326.774006,103.01573 L326.774006,158.801305 L279.734793,131.304455 L271.267978,126.391442 Z M271.267978,184.95166 L271.267978,129.164544 L278.637384,133.444365 L326.774006,161.575948 L326.774006,217.363064 L271.267978,184.95166 Z M442.568934,170.608558 L442.568934,284.878862 L329.127338,218.715721 L329.127338,104.440796 L384.633366,136.850659 L384.633366,136.850659 L404.703755,148.579342 L442.568934,170.608558 Z M387.062907,135.504164 L387.062907,79.7170482 L442.561314,112.126911 L442.561314,167.915568 L387.062907,135.504164 Z" id="Shape" fill="#000000"></path>
                            <path d="M315.241719,73.9640446 L296.628153,44.0377289 L298.781048,43.09801 L297.858592,40.9033018 L295.316981,42.0014175 L290.555197,34.3313617 C288.5548,31.1116441 285.480945,29.0007034 282.942324,29.0007034 C282.388577,28.9902182 281.838733,29.0970587 281.327653,29.3144507 L281.251405,29.3144507 C280.24539,29.7773069 279.487218,30.6636593 279.174759,31.7421848 C278.68297,34.2577168 279.239687,36.8683087 280.711686,38.9492348 L285.326953,46.3146815 L283.172564,47.2544004 L284.096514,49.4475856 L286.638126,48.350993 L305.475951,78.6687313 C307.474854,81.8808337 310.551699,83.9993896 313.088825,83.9993896 C313.642508,84.009125 314.192203,83.9023135 314.703495,83.6856423 L314.781239,83.6856423 C315.787338,83.2221199 316.545447,82.3352847 316.857885,81.2563851 C317.295342,78.70331 316.713507,76.0779969 315.241719,73.9640446 L315.241719,73.9640446 Z M282.63434,37.6135242 C281.554012,36.0995841 281.086197,34.2205651 281.327653,32.3651103 C281.424825,31.9463613 281.709376,31.5983967 282.096117,31.4253914 L282.17386,31.4253914 C282.395075,31.3370934 282.628807,31.2856667 282.866075,31.2730869 C284.403003,31.2730869 286.787632,32.7611021 288.556295,35.5025835 L293.170067,42.8665071 L287.479848,45.2972873 L282.63434,37.6135242 Z M314.549504,80.4659247 C314.452016,80.8849914 314.16686,81.233018 313.779545,81.4056436 L313.703297,81.4056436 C312.318866,81.9539399 309.396013,80.5436 307.320862,77.2538223 L288.704306,47.3275066 L294.394526,44.8997725 L313.232351,75.2175108 C314.358972,76.7091318 314.835137,78.6064915 314.549504,80.4659247 L314.549504,80.4659247 Z" id="Shape" fill="#000000"></path>
                            <polygon id="Path" fill="#000000" points="225.827631 62 228.173889 62 228.173889 49.13116 241 49.13116 241 46.7915087 228.173889 46.7915087 228.173889 34 225.827631 34 225.827631 46.7915087 213 46.7915087 213 49.13116 225.827631 49.13116"></polygon>
                            <path d="M207.999898,178 C210.831092,178 213.383509,176.29453 214.46696,173.678847 C215.550411,171.063165 214.95153,168.052384 212.949573,166.050427 C210.947616,164.04847 207.936835,163.449589 205.321153,164.53304 C202.70547,165.616491 201,168.168908 201,171.000102 C201.002588,174.864966 204.135034,177.997412 207.999898,178 Z M207.999898,166.334024 C209.216244,166.333195 210.383033,166.815912 211.243266,167.675852 C212.1035,168.535792 212.586615,169.702416 212.5862,170.918763 C212.586832,172.773891 211.469817,174.446703 209.756084,175.157068 C208.04235,175.867433 206.069444,175.475435 204.757446,174.163885 C203.445449,172.852335 203.052777,170.879562 203.762558,169.165587 C204.472339,167.451611 206.144769,166.334024 207.999898,166.334024 Z" id="Shape" fill="#000000"></path>
                        </g>
                    </g>
                </g>
            </g>
        </g>
    </g>
</svg>