<?xml version="1.0" encoding="UTF-8"?>
<svg width="523px" height="373px" viewBox="0 0 523 373" version="1.1" xmlns="http://www.w3.org/2000/svg" xmlns:xlink="http://www.w3.org/1999/xlink">
    <title>Illustration</title>
    <g id="⚡️-UI-Kit" stroke="none" stroke-width="1" fill="none" fill-rule="evenodd">
        <g id="Homepage-Desktop" transform="translate(-752.000000, -2333.000000)">
            <g id="Feature-02" transform="translate(0.000000, 2084.000000)">
                <g id="Content" transform="translate(165.000000, 220.000000)">
                    <g id="Illustration" transform="translate(587.000000, 29.000000)">
                        <path d="M342,85.2585895 C338.987991,94.1797419 331.543296,100.910147 322.32971,103.041591 L322.32971,115 L309.997154,115 L309.997154,103.041591 C298.511549,100.362422 290.047314,90.6578121 289,78.9674503 L289.163586,73.0650995 C290.702531,61.5274722 299.46242,52.2494019 310.940499,50 L342,85.2585895 Z" id="Path" fill="#FFFFFF" fill-rule="nonzero"></path>
                        <rect id="Rectangle" fill="#FFFFFF" fill-rule="nonzero" x="396" y="66" width="126" height="126"></rect>
                        <path d="M264.206745,66.1549304 L300.533077,75.0002349 C300.806015,75.0607745 301,75.3004039 301,75.5770247 C301,75.8536456 300.806015,76.0932749 300.533077,76.1538145 L177,106 L177,45 L208.580633,52.8457744 L239.851529,58.8465379 L250.118178,75.7686909 L250.118178,61.9239443 L264.206745,66.1549304 Z" id="Path" fill="#FF6363"></path>
                        <polygon id="Path" fill="#FF6363" points="109 45 139 52.1543431 139 98.7704234 109 106"></polygon>
                        <rect id="Rectangle" fill="#000000" fill-rule="nonzero" x="29" y="158" width="139" height="29"></rect>
                        <rect id="Rectangle" fill="#FF6363" x="1" y="158" width="29" height="29"></rect>
                        <rect id="Rectangle" fill="#FFFFFF" fill-rule="nonzero" x="1" y="186" width="148" height="91"></rect>
                        <circle id="Oval" fill="#FFFFFF" fill-rule="nonzero" cx="162.5" cy="74.5" r="33.5"></circle>
                        <path d="M162.5,64 C154.810286,64.0009605 147.57606,67.7111234 143,74.0008185 C147.576025,80.2903492 154.810436,84 162.5,84 C170.189564,84 177.423975,80.2903492 182,74.0008185 C177.42394,67.7111234 170.189714,64.0009605 162.5,64 L162.5,64 Z" id="Path" fill="#FFFFFF" fill-rule="nonzero"></path>
                        <circle id="Oval" fill="#FFFFFF" fill-rule="nonzero" cx="94.5" cy="74.5" r="33.5"></circle>
                        <path d="M115,73.9625412 C110.497925,80.2752814 103.382122,83.9988827 95.8184136,84 C93.5119237,83.9863872 91.2179908,83.6461953 89,82.9888243 L89,65.012368 C91.2102698,64.3180667 93.5093853,63.9771062 95.8184136,64.0011923 C103.37953,63.9382137 110.511839,67.6421522 115,73.9625412 Z" id="Path" fill="#FFFFFF" fill-rule="nonzero"></path>
                        <rect id="Rectangle" fill="#FF6363" x="149" y="186" width="19" height="53"></rect>
                        <rect id="Rectangle" fill="#FFDB43" fill-rule="nonzero" x="149" y="240" width="19" height="37"></rect>
                        <path d="M88,65 L88,83 C82.7832366,81.475888 78.2162724,78.3007571 75,73.9618952 C78.2760525,69.7003249 82.8237731,66.5652329 88,65 Z" id="Path" fill="#000000" fill-rule="nonzero"></path>
                        <path d="M156,65 L156,83 C150.783237,81.475888 146.216272,78.3007571 143,73.9618952 C146.244236,69.6676645 150.803802,66.5244067 156,65 Z" id="Path" fill="#000000" fill-rule="nonzero"></path>
                        <path d="M373.970367,238 L276.35696,201.022474 L277.60027,176.112588 L263.066031,190.967008 C253.748079,200.403213 238.726399,201.175475 228.481382,192.744999 L228.170102,192.512617 C222.353508,187.695426 218.992683,180.551253 219,173.019569 L219,123.044875 L263.393598,123.044875 L263.393598,145.56249 L298.141126,114 L340.031805,114 C340.031805,114 372.984044,228.0292 373.606604,230.9691 C373.940459,233.297034 374.062209,235.650244 373.970367,238 Z" id="Path" fill="#71A7C3" fill-rule="nonzero"></path>
                        <path d="M374,238.281352 L278.03967,201.926736 C273.002114,199.994177 267.649774,199.002029 262.250828,199 L261.787669,199 C239.787918,198.991401 221.124163,215.069759 217.982239,236.737285 L208,306.202361 L275.48599,330 L266.352575,250.060017 L323.468858,271.700267 C336.157823,276.485639 350.459279,274.005806 360.773849,265.231685 L361.159514,264.92323 C369.193108,258.372886 373.895624,248.615945 374,238.281352 L374,238.281352 Z" id="Path" fill="#EDEDED" fill-rule="nonzero"></path>
                        <path d="M306.227256,266 L323.4675,272.556849 C333.24224,276.291833 344.147256,275.704033 353.461961,270.940092 L353.461961,270.940092 L341.092981,320.852984 L374.025322,308.66443 L400,372 L321.921153,372 C310.946693,372 300.610897,366.850641 294.014052,358.098604 C287.417207,349.346567 285.326685,338.009148 288.369552,327.487078 L306.227256,266 Z" id="Path" fill="#D8D8D8" fill-rule="nonzero"></path>
                        <polygon id="Path" fill="#FF6363" points="400.055004 372 453 372 405.127804 311 380 323.199643"></polygon>
                        <path d="M342.151525,53 L309,43.6672537 L327.7118,6.28601502 C329.762955,2.19115121 334.455792,0.120944602 338.891875,1.35401752 L339.045547,1.43119216 C343.488733,2.67002401 346.399519,6.89105105 345.955354,11.4513312 L342.151525,53 Z" id="Path" fill="#000000" fill-rule="nonzero"></path>
                        <rect id="Rectangle" fill="#FF6363" x="219" y="123" width="44" height="13"></rect>
                        <path d="M264,42.9146488 L264,123 L219.462663,123 L219.462663,100.784116 L197.940496,64.9695486 C197.039948,63.5006168 196.772136,61.7320138 197.197649,60.0638486 C197.623161,58.3956835 198.706039,56.9689251 200.201304,56.1063476 L200.279388,56.0285685 C201.754431,55.1321951 203.529967,54.8659938 205.204549,55.2901528 C206.879132,55.7143117 208.311338,56.7930099 209.177348,58.2823539 C208.271692,56.8147059 208.000979,55.0444051 208.426878,53.3747248 C208.852777,51.7050444 209.939018,50.2781738 211.438156,49.419153 L211.51624,49.3413739 C212.983228,48.4522582 214.745203,48.1814259 216.413023,48.5886917 C218.080843,48.9959575 219.517291,50.0478141 220.40512,51.5119537 C219.512208,50.0424319 219.248913,48.2773697 219.674301,46.6127299 C220.09969,44.9480901 221.178149,43.5232312 222.667744,42.6577968 L222.745829,42.5800177 C224.220393,41.6824808 225.996102,41.4154281 227.67096,41.8393165 C229.345818,42.2632049 230.778183,43.3421859 231.643788,44.8319943 L249.89187,75.2038324 L249.89187,42.9146488 C249.899861,39.0998424 253.002511,36.009312 256.832278,36.0013521 L256.988447,36.0013521 C258.846695,35.9645898 260.640715,36.6788256 261.961609,37.9812691 C263.282502,39.2837126 264.017715,41.0633813 264,42.9146488 Z" id="Path" fill="#FFFFFF" fill-rule="nonzero"></path>
                        <polygon id="Path" fill="#FF6363" points="279 372 274.356595 330.911368 229.380819 315 181 372"></polygon>
                        <path d="M342.99962,76.3125472 C343.015275,79.2664869 342.547345,82.2024595 341.61503,85 L311,49.5467365 C312.698625,49.2066818 314.424008,49.0236943 316.155047,49 C323.27671,48.9932338 330.108604,51.8686196 335.144383,56.9921836 C340.180162,62.1157475 343.006282,69.0667367 342.99962,76.3125472 L342.99962,76.3125472 Z" id="Path" fill="#FFDB43" fill-rule="nonzero"></path>
                        <path d="M379.788763,321.00201 L373.987067,306.748582 L342.030895,318.679964 L353.713564,271.185378 C356.24572,269.874271 358.610029,268.260975 360.754877,266.38071 L361.142257,266.070382 C369.308684,259.003134 374.136979,248.827338 374.450122,238.023606 L374.605074,237.635696 L374.450122,237.558114 C374.50999,233.924721 374.06736,230.300515 373.134831,226.788657 L340.328224,112.80995 L323.53754,112.80995 L323.53754,102.971476 C334.546748,100.02322 342.697606,90.7233174 344.188177,79.4096735 C345.678747,68.0960295 340.215373,56.9975482 330.346424,51.2910736 L365.165607,61.2143461 L365.785416,58.9662738 L342.803854,52.6135752 L346.519101,11.7820155 C346.981822,6.63810063 343.730188,1.89028336 338.771495,0.469484892 L338.616543,0.391902944 C337.663445,0.105776889 336.670638,-0.0251944616 335.676056,0.0039932034 C331.598721,-0.0183108512 327.869288,2.30095512 326.081637,5.97058629 L307.986473,42.6975197 L285.004911,36.1896572 L284.386904,38.4359252 L306.909015,44.86801 L306.909015,44.86801 L317.123243,47.7349336 L316.34668,47.7349336 C314.765683,47.7446955 313.187669,47.8737628 311.626046,48.1210391 L311.626046,48.1210391 C300.006189,50.1562069 290.873649,59.2091373 288.723762,70.8236822 L264.504385,64.8570892 L264.504385,43.3885403 C264.5063,41.250919 263.65914,39.2002981 262.149676,37.6887709 C260.640211,36.1772438 258.592389,35.3289259 256.457686,35.3308431 L256.147781,35.3308431 C254.013077,35.3289259 251.965255,36.1772438 250.455791,37.6887709 C248.946327,39.2002981 248.099167,41.250919 248.101082,43.3885403 L248.101082,71.2801528 L232.162634,44.5504653 C229.992561,40.9478355 225.327154,39.7718349 221.712375,41.9162875 L221.634899,41.9938695 C219.386225,43.3660732 217.987539,45.788068 217.921453,48.42415 C217.394323,48.1837347 216.852742,47.9764478 216.299861,47.8034944 C214.352564,47.3411313 212.302268,47.6467058 210.57384,48.6568958 L210.496364,48.7344778 C209.545349,49.2743934 208.746833,50.0473052 208.175686,50.9807458 L171.886259,42.0714514 L171.886259,42.0714514 C168.890924,41.2258197 165.791234,40.8085207 162.679221,40.8319445 C153.780062,40.8357568 145.232136,44.3095587 138.847224,50.5170584 L104.638841,42.0714514 L104.638841,42.0714514 C101.621809,41.1948082 98.495803,40.7513572 95.3543259,40.7543625 C76.3809555,40.7543629 61,56.1563401 61,75.1556417 C61,94.1549433 76.3809555,109.556921 95.3543259,109.556921 C99.0058792,109.550868 102.634237,108.975649 106.109084,107.851922 L106.109084,107.851922 L138.838215,99.871807 C145.233698,106.111317 153.81872,109.588889 162.747688,109.556921 C166.398764,109.544892 170.026209,108.969818 173.502446,107.851922 L173.502446,107.851922 L215.825996,97.4685709 L218.148476,101.34406 L218.148476,173.246288 C218.147515,181.154473 221.664361,188.652121 227.742895,193.700858 L228.0528,193.933604 C232.838152,197.902525 238.860515,200.067845 245.07411,200.053557 C245.926347,200.053557 246.854258,199.975975 247.704692,199.898393 C241.847025,201.764143 236.425882,204.795075 231.766245,208.809492 C223.498009,215.934351 218.083697,225.814555 216.523281,236.625327 L206.386529,307.441407 L228.20595,315.199602 L179.378014,372.999979 L281.125703,372.999979 L266.978214,251.966706 L303.963123,266.066774 L286.39948,326.811635 C283.230589,337.726385 285.379169,349.498195 292.198705,358.584879 C299.018241,367.671564 309.712565,373.01227 321.063711,372.999979 L455,372.999979 L404.7829,308.769321 L379.788763,321.00201 Z M328.258174,6.97373892 C329.667594,4.11594573 332.579616,2.31173518 335.762541,2.32423472 C336.547728,2.31276484 337.33031,2.4173328 338.085021,2.63456252 L338.239973,2.71214446 C342.123832,3.80712013 344.665929,7.53160525 344.274097,11.5528781 L340.560652,51.9189461 L310.229675,43.3109584 L328.258174,6.97373892 Z M316.265601,49.975789 C330.528181,49.9996186 342.085194,61.5700072 342.111975,75.852075 C342.131416,77.9694475 341.8709,80.0800827 341.337214,82.1289959 L313.325114,50.1291486 C314.330501,50.0515667 315.265619,49.9739847 316.265601,49.9739847 L316.265601,49.975789 Z M310.694531,50.5946403 L340.638128,84.7649779 C337.648871,92.9778606 330.723138,99.1259714 322.222248,101.113118 L321.294337,101.345864 L321.294337,113.0445 L311.384609,113.0445 L311.384609,101.345864 L310.456698,101.113118 C305.832836,100.054071 301.597778,97.7189493 298.231696,94.3725099 C298.769697,94.4369521 299.311603,94.4628785 299.853288,94.4500918 C305.239452,94.4743466 310.362779,92.1213782 313.858437,88.018007 L312.080092,86.4681723 C308.988285,90.045347 304.502047,92.1079679 299.777614,92.1244376 C298.391952,92.1397143 297.01117,91.9574644 295.676788,91.5831682 C292.922865,87.9393897 291.166498,83.638869 290.581386,79.1069084 L299.557798,76.9418308 C299.616551,76.9336966 299.671,76.9064348 299.71275,76.8642488 L310.930563,81.2810072 L311.7828,79.1159295 L301.572176,75.0780598 L311.941355,68.4150334 L310.70354,66.4772889 L299.638878,73.528225 C299.561402,73.528225 299.561402,73.528225 299.483926,73.4506431 L290.655258,71.2855655 C292.663175,61.027898 300.517366,52.9175916 310.694531,50.5928361 L310.694531,50.5946403 Z M220.245735,124.357031 L262.106231,124.357031 L262.106231,134.585218 L220.242132,134.585218 L220.245735,124.357031 Z M264.349433,85.5389932 L288.419263,79.6481778 C289.884095,90.9320715 298.016993,100.20896 309.000869,103.124836 L309.000869,112.965114 L297.316398,112.965114 L264.354838,143.095778 L264.349433,85.5389932 Z M296.847938,75.157446 L264.349433,83.1375612 L264.349433,67.1737222 L296.847938,75.157446 Z M136.832846,52.3754167 C132.813257,56.9268496 130.063753,62.4595114 128.861821,68.4150334 C127.123879,59.7439993 122.106582,52.081066 114.858474,47.0276749 L136.832846,52.3754167 Z M63.1711307,75.1556417 C63.170402,62.1813685 70.9746878,50.4842201 82.9447841,45.5186751 C94.9148803,40.55313 108.693419,43.2970933 117.855352,52.4710319 C127.017285,61.6449704 129.758278,75.4421862 124.800183,87.4289214 C119.842089,99.4156567 108.161344,107.231267 95.2047791,107.231267 C77.5281774,107.196525 63.2068191,92.8564003 63.1711307,75.1556417 Z M128.861821,81.973832 C130.070168,87.8880237 132.789927,93.3871952 136.75537,97.9340625 L114.93595,103.28 C122.087596,98.1834839 127.059659,90.5763757 128.861821,81.973832 L128.861821,81.973832 Z M130.483413,75.1556417 C130.482684,62.1813685 138.28697,50.4842201 150.257066,45.5186751 C162.227163,40.55313 176.005701,43.2970933 185.167634,52.4710319 C194.329567,61.6449704 197.07056,75.4421862 192.112466,87.4289214 C187.154371,99.4156567 175.473627,107.231267 162.517061,107.231267 C144.841867,107.194541 130.522698,92.8549952 130.487017,75.1556417 L130.483413,75.1556417 Z M182.325708,103.202418 C191.472594,96.7523688 196.901689,86.2392916 196.87083,75.0367669 C196.83997,63.8342422 191.353038,53.3513175 182.170756,46.9518972 L207.085616,53.0736542 C207.085616,53.1512361 207.00814,53.3045958 207.00814,53.3821778 C206.855069,53.9375861 206.776899,54.5110065 206.775711,55.0871764 C204.450695,53.8834314 201.668928,53.9715045 199.424494,55.3199222 L199.347018,55.3975042 C195.750159,57.5711761 194.57596,62.2421744 196.716436,65.862046 L214.366563,95.3810752 L182.325708,103.202418 Z M198.651536,64.6947083 C197.949552,63.476457 197.728439,62.0391876 198.031727,60.6658597 C198.328542,59.2882925 199.202853,58.1051767 200.431683,57.4182433 L200.509159,57.3406613 C203.014892,55.8652623 206.238126,56.6545784 207.781098,59.1214377 L224.106926,86.396003 L226.119502,85.2322738 L209.793674,57.9595127 C209.09085,56.7415575 208.869687,55.3039629 209.173866,53.9306641 C209.471552,52.5534916 210.345623,51.3706998 211.573822,50.6830477 L211.649496,50.6054657 C214.156386,49.1312288 217.379572,49.9211371 218.923237,52.3880463 L235.249064,79.6608074 L237.26164,78.4988824 L220.935813,51.3037032 C219.462247,48.7939987 220.25043,45.5657871 222.714159,44.0200213 L222.791635,43.9424393 C225.298376,42.4671889 228.522309,43.2572803 230.065375,45.7250199 L251.506425,81.5209699 L253.517199,80.3590449 L250.42176,75.1682713 L250.42176,43.3885403 C250.418401,41.866801 251.020598,40.4064197 252.095165,39.3303849 C253.169731,38.2543501 254.628119,37.6513301 256.147781,37.6546791 L256.302733,37.6546791 C257.822396,37.6513301 259.280784,38.2543501 260.35535,39.3303849 C261.429916,40.4064197 262.032113,41.866801 262.028769,43.3885403 L262.028769,122.108958 L220.164656,122.108958 L220.164656,100.793769 L198.651536,64.6947083 Z M229.214941,192.151024 L228.905036,191.918278 C223.361662,187.306704 220.156754,180.462911 220.161048,173.246288 L220.161048,136.907264 L262.021548,136.907264 L262.021548,150.078153 L264.342226,150.078153 L264.342226,146.204468 L298.156022,115.213186 L338.544472,115.213186 L370.810549,227.481482 C371.643977,230.483808 372.060495,233.586771 372.048622,236.702909 L277.808646,200.748186 C277.655496,200.670604 277.500544,200.670604 277.345592,200.593022 L278.583407,176.957592 L300.402828,154.565276 L298.781236,152.941468 L262.102627,190.446025 C253.23378,199.450729 238.968692,200.190356 229.218544,192.151024 L229.214941,192.151024 Z M263.724219,192.073442 L276.104173,179.443822 L275.023112,199.820811 C270.68496,198.492078 266.174316,197.813553 261.637771,197.807289 L261.174716,197.807289 C258.842515,197.795435 256.51332,197.976474 254.21088,198.348558 C257.802856,196.973974 261.052855,194.832668 263.73503,192.073442 L263.724219,192.073442 Z M184.026578,370.744668 L230.222129,316.11976 L273.706019,331.538721 L278.116749,370.744668 L184.026578,370.744668 Z M273.394313,328.982125 L208.554057,305.969154 L218.463786,237.011432 C221.665497,215.837884 239.791079,200.154434 261.176518,200.053334 L261.639573,200.053334 C266.906103,200.036403 272.129095,201.008867 277.037489,202.920481 L372.131245,239.259504 C371.508988,248.961865 367.02042,258.007178 359.673816,264.363579 L359.286435,264.672103 C349.316156,273.269069 335.433179,275.680802 323.153763,270.949024 L264.275561,248.479127 L273.394313,328.982125 Z M294.13087,357.261648 C287.708914,348.768732 285.698591,337.725636 288.714753,327.509873 L306.20092,266.920175 L322.294319,273.040128 C331.581823,276.564511 341.872678,276.342657 351.0001,272.421277 L338.697623,322.319099 L372.666371,309.689479 L397.58123,370.672499 L321.139385,370.672499 C310.508748,370.80916 300.460895,365.818985 294.136276,357.261648 L294.13087,357.261648 Z M400.134337,370.744668 L380.71307,323.170696 L404.157687,311.780584 L450.272159,370.744668 L400.134337,370.744668 Z" id="Shape" fill="#000000" fill-rule="nonzero"></path>
                        <path d="M95,63.0006292 C86.9152315,62.9434784 79.2974732,66.7825408 74.5334914,73.3149762 L74,74.0031921 L74.5334914,74.6896297 C79.3368475,81.1749954 86.9296388,85 95,85 C103.070361,85 110.663153,81.1749954 115.466509,74.6896297 L116,74.0031921 L115.466509,73.3149762 C110.702331,66.7827711 103.0847,62.9437725 95,63.0006292 Z M76.9004149,73.9978571 C79.507976,70.7087467 82.9687418,68.1989403 86.9051571,66.7422475 L86.9051571,81.2516884 C82.9798551,79.7751545 79.5241446,77.2696286 76.9004149,73.9978571 L76.9004149,73.9978571 Z M95,82.7028103 C93.0390064,82.7218984 91.0850736,82.4650811 89.1956135,81.9399043 L89.1956135,65.9793415 C91.0922317,65.4899569 93.0413509,65.2331751 95,65.2146571 C102.052307,65.1758187 108.729433,68.3875073 113.101363,73.9213887 C108.758814,79.5009753 102.070119,82.7458276 95,82.7028103 L95,82.7028103 Z" id="Shape" fill="#000000" fill-rule="nonzero"></path>
                        <path d="M163,63.0006228 C154.9153,62.9437661 147.297669,66.7827658 142.533491,73.3149728 L142,74.0031889 L142.533491,74.6896267 C147.336847,81.1749943 154.929639,85 163,85 C171.070361,85 178.663153,81.1749943 183.466509,74.6896267 L184,74.0031889 L183.466509,73.3149728 C178.69106,66.7960608 171.080719,62.9607352 163,63.0006228 L163,63.0006228 Z M144.816835,73.9978539 C147.424396,70.7087425 150.885161,68.1989354 154.821577,66.7422422 L154.821577,81.2516873 C150.906827,79.7555988 147.455868,77.2535173 144.816835,73.9978539 L144.816835,73.9978539 Z M162.992887,82.7028097 C161.0319,82.7217799 159.077984,82.4649646 157.1885,81.9399034 L157.1885,65.979336 C159.085142,65.4900724 161.034246,65.2332925 162.992887,65.2146514 C170.045785,65.1780772 176.722361,68.3924415 181.092472,73.9284988 C176.72924,79.4767414 170.058301,82.7119487 163,82.7028097 L162.992887,82.7028097 Z" id="Shape" fill="#000000" fill-rule="nonzero"></path>
                        <path d="M28.3073653,157 L0,157 L0,278 L169,278 L169,157 L28.3073653,157 Z M16.97005,172.35235 L28.3073653,160.951876 L28.3073653,183.754631 L16.97005,172.35235 Z M15.2726857,170.726807 L3.93357424,159.328139 L26.6117972,159.328139 L15.2726857,170.726807 Z M13.6561484,172.35235 L2.31703688,183.754631 L2.31703688,160.957294 L13.6561484,172.35235 Z M15.2726857,173.977893 L26.6117972,185.380174 L3.93357424,185.380174 L15.2726857,173.977893 Z M2.31344457,275.664637 L2.31344457,187.791396 L148.182591,187.791396 L148.182591,275.671861 L2.31344457,275.664637 Z M166.686555,275.664637 L150.411617,275.664637 L150.411617,240.986387 L166.682963,240.986387 L166.686555,275.664637 Z M166.686555,238.665473 L150.411617,238.665473 L150.411617,187.791396 L166.682963,187.791396 L166.686555,238.665473 Z M166.686555,159.319108 L166.686555,185.457839 L30.622606,185.457839 L30.622606,159.328139 L166.686555,159.319108 Z" id="Shape" fill="#000000" fill-rule="nonzero"></path>
                        <path d="M480.775377,65 L394,65 L394,193 L523,193 L523,65 L480.775377,65 Z M438.552562,67.3116865 L478.447438,67.3116865 L478.447438,106.8973 L438.552562,106.8973 L438.552562,67.3116865 Z M478.447438,148.792807 L438.552562,148.792807 L438.552562,109.208987 L478.447438,109.208987 L478.447438,148.792807 Z M396.329747,67.3116865 L436.224623,67.3116865 L436.224623,106.8973 L396.329747,106.8973 L396.329747,67.3116865 Z M396.329747,109.207193 L436.224623,109.207193 L436.224623,148.792807 L396.329747,148.792807 L396.329747,109.207193 Z M436.224623,190.767223 L396.329747,190.767223 L396.329747,151.104493 L436.224623,151.104493 L436.224623,190.767223 Z M478.447438,190.767223 L438.552562,190.767223 L438.552562,151.104493 L478.447438,151.104493 L478.447438,190.767223 Z M520.672061,190.767223 L480.775377,190.767223 L480.775377,151.104493 L520.672061,151.104493 L520.672061,190.767223 Z M520.672061,148.801774 L480.775377,148.801774 L480.775377,109.208987 L520.672061,109.208987 L520.672061,148.801774 Z M480.775377,106.906267 L480.775377,67.3116865 L520.672061,67.3116865 L520.672061,106.8973 L480.775377,106.906267 Z" id="Shape" fill="#000000" fill-rule="nonzero"></path>
                        <path d="M92.0561037,209.892852 C87.0110384,204.810425 80.1361049,201.966882 72.9747008,202.000291 C65.8202955,202.002317 58.9584429,204.84045 53.8932978,209.892852 C48.8112458,214.938071 45.9676553,221.812294 46.0002776,228.973111 C46.0034612,236.126855 48.8415865,242.987867 53.8932978,248.053371 C64.1162789,258.272474 80.5803602,258.610174 91.213831,248.818865 L104.393972,262 L106,260.394068 L92.818075,247.212933 C102.646474,236.593843 102.309756,220.101972 92.0561037,209.892852 Z M55.5796278,246.376064 C50.9394352,241.749467 48.3450554,235.457654 48.3754293,228.905305 C48.3802292,222.359887 50.9692719,216.081017 55.5796278,211.434547 C60.2063891,206.794464 66.4986533,204.200209 73.0514333,204.230777 C83.0464064,204.212042 92.0656596,210.223946 95.8931429,219.456498 C99.7206262,228.689049 97.6002715,239.31848 90.5232388,246.376064 C80.8554252,255.980371 65.2474414,255.980371 55.5796278,246.376064 L55.5796278,246.376064 Z" id="Shape" fill="#000000" fill-rule="nonzero"></path>
                    </g>
                </g>
            </g>
        </g>
    </g>
</svg>