<?xml version="1.0" encoding="UTF-8"?>
<svg width="95px" height="24px" viewBox="0 0 95 24" version="1.1" xmlns="http://www.w3.org/2000/svg" xmlns:xlink="http://www.w3.org/1999/xlink">
    <title>Singular</title>
    <g id="⚙️-Symbols" stroke="none" stroke-width="1" fill="none" fill-rule="evenodd">
        <g id="Logos/Brand-Logo" fill="#000000">
            <path d="M7.03124329,18.6988458 C11.2926029,18.6988458 13.7982823,16.6619159 13.806805,13.4658962 C13.7982823,10.559649 11.6079435,9.01703686 8.57385546,8.33521932 L7.00567514,7.96021968 C5.48863113,7.6107882 4.21874598,7.04828873 4.24431413,5.79544902 C4.24431413,4.67045009 5.24147227,3.84374633 7.04828873,3.84374633 C8.8124916,3.84374633 9.89487693,4.64488193 10.0312404,6.01703972 L13.5681689,6.01703972 C13.5170326,2.90624723 10.9602168,0.758522004 7.07385689,0.758522004 C3.24715599,0.758522004 0.443181396,2.87215635 0.460226834,6.04260787 C0.451704115,8.61646906 2.26704329,10.0908995 5.21590412,10.7982852 L7.11647049,11.2755574 C9.01703686,11.7357843 10.073854,12.2812383 10.0823767,13.4573735 C10.073854,14.7357814 8.86362791,15.6050988 6.9886297,15.6050988 C5.07101789,15.6050988 3.69033739,14.718736 3.57101932,12.9715785 L0,12.9715785 C0.0937499106,16.7471431 2.79545188,18.6988458 7.03124329,18.6988458 Z M17.8420887,3.67329195 C18.924474,3.67329195 19.8108368,2.84658819 19.8108368,1.83238462 C19.8108368,0.826703757 18.924474,0 17.8420887,0 C16.7682261,0 15.8818633,0.826703757 15.8818633,1.83238462 C15.8818633,2.84658819 16.7682261,3.67329195 17.8420887,3.67329195 Z M19.6489052,18.4516869 L19.6489052,5.36079034 L16.0182268,5.36079034 L16.0182268,18.4516869 L19.6489052,18.4516869 Z M25.9853142,18.4516869 L25.9853142,10.8835123 C25.993837,9.19601396 26.9995178,8.20737854 28.4654255,8.20737854 C29.9228105,8.20737854 30.8006506,9.16192308 30.7921278,10.7641943 L30.7921278,18.4516869 L34.4228062,18.4516869 L34.4228062,10.1164676 C34.4228062,7.06533417 32.6330352,5.19033596 29.9057651,5.19033596 C27.9625851,5.19033596 26.5563364,6.1448805 25.9682688,7.67044723 L25.8148599,7.67044723 L25.8148599,5.36079034 L22.3546359,5.36079034 L22.3546359,18.4516869 L25.9853142,18.4516869 Z M42.983653,23.548273 C46.7251267,23.548273 49.3842151,21.8437292 49.3842151,18.5795277 L49.3842151,5.36079034 L45.7791049,5.36079034 L45.7791049,7.55965188 L45.6427414,7.55965188 C45.1569464,6.49431199 44.0916065,5.19033596 41.9012677,5.19033596 C39.0291113,5.19033596 36.6001364,7.42328838 36.6001364,11.8806705 C36.6001364,16.23578 38.9609296,18.2641871 41.9097904,18.2641871 C43.9978566,18.2641871 45.1654691,17.2158927 45.6427414,16.1335073 L45.7961503,16.1335073 L45.7961503,18.5283914 C45.7961503,20.241458 44.6455832,20.9403209 43.0688802,20.9403209 C41.466609,20.9403209 40.6569507,20.241458 40.3586555,19.5340723 L37.0007042,19.9857764 C37.4353628,21.9630472 39.4552473,23.548273 42.983653,23.548273 Z M43.0603575,15.536917 C41.2791092,15.536917 40.3075192,14.1221456 40.3075192,11.863625 C40.3075192,9.63919535 41.2620637,8.07953775 43.0603575,8.07953775 C44.8245603,8.07953775 45.8131958,9.5710136 45.8131958,11.863625 C45.8131958,14.1732819 44.8075192,15.536917 43.0603575,15.536917 Z M56.521768,18.6221413 C58.4905162,18.6221413 59.9052875,17.6079378 60.4933552,16.0738483 L60.6297187,16.0738483 L60.6297187,18.4516869 L64.1155108,18.4516869 L64.1155108,5.36079034 L60.4848324,5.36079034 L60.4848324,12.8778286 C60.4933552,14.6335088 59.2916518,15.5539624 57.9876757,15.5539624 C56.6155179,15.5539624 55.7291551,14.5908952 55.7206324,13.048283 L55.7206324,5.36079034 L52.0899541,5.36079034 L52.0899541,13.6960097 C52.0984768,16.7556658 53.8882478,18.6221413 56.521768,18.6221413 Z M70.4519279,18.4516869 L70.4519279,0.99715814 L66.8212495,0.99715814 L66.8212495,18.4516869 L70.4519279,18.4516869 Z M76.8906096,18.6988458 C78.8252669,18.6988458 80.0781066,17.8550966 80.7173105,16.6363478 L80.8195831,16.6363478 L80.8195831,18.4516869 L84.2627617,18.4516869 L84.2627617,9.62214991 C84.2627617,6.50283471 81.6207187,5.19033596 78.7059488,5.19033596 C75.5695881,5.19033596 73.5070901,6.69033596 73.0042497,9.07669589 L76.362201,9.3494229 C76.6093599,8.48010555 77.3849273,7.84090161 78.6889033,7.84090161 C79.9246976,7.84090161 80.6320833,8.46306011 80.6320833,9.53692272 L80.6320833,9.58805904 C80.6320833,10.4318082 79.7371978,10.5426036 77.4616318,10.7641943 C74.8707252,11.0028304 72.5440228,11.8721478 72.5440228,14.7954404 C72.5440228,17.3863471 74.3934529,18.6988458 76.8906096,18.6988458 Z M77.9303813,16.1931664 C76.8139051,16.1931664 76.0127695,15.6732805 76.0127695,14.6761224 C76.0127695,13.6533961 76.8565187,13.1505556 78.1349266,12.9715785 C78.9275395,12.8607832 80.2229928,12.6732834 80.6576515,12.3835109 L80.6576515,13.7727141 C80.6576515,15.1448719 79.5241298,16.1931664 77.9303813,16.1931664 Z M90.5224733,18.4516869 L90.5224733,11.045444 C90.5224733,9.43465009 91.6986086,8.3266966 93.3008798,8.3266966 C93.8037202,8.3266966 94.4940605,8.4119238 94.8349692,8.52271914 L94.8349692,5.30113131 C94.5111059,5.22442684 94.0594018,5.17329052 93.6929249,5.17329052 C92.2270172,5.17329052 91.0253138,6.02556244 90.5480415,7.64487907 L90.411678,7.64487907 L90.411678,5.36079034 L86.891795,5.36079034 L86.891795,18.4516869 L90.5224733,18.4516869 Z" id="Singular"></path>
        </g>
    </g>
</svg>