<?xml version="1.0" encoding="UTF-8"?>
<svg width="558px" height="647px" viewBox="0 0 558 647" version="1.1" xmlns="http://www.w3.org/2000/svg" xmlns:xlink="http://www.w3.org/1999/xlink">
    <title>Group-18</title>
    <g id="Page-1" stroke="none" stroke-width="1" fill="none" fill-rule="evenodd">
        <g id="banner-bg" transform="translate(-1364.000000, 152.000000)" fill="#FF6363" fill-rule="nonzero">
            <g id="Group-3-Clipped">
                <g id="Group-3" transform="translate(-385.000000, -152.000000)">
                    <g id="Group" transform="translate(1153.500000, 602.500000) rotate(-90.000000) translate(-1153.500000, -602.500000) translate(551.500000, -550.500000)">
                        <g id="Group-18" transform="translate(558.000000, 1749.500000)">
                            <path d="M645.55776,0 C645.48856,9.994471 633.40556,28.204882 629.61718,36.516256 C591.25775,120.697116 552.24098,255.362198 445.0335,272.496816 C403.88901,279.073039 362.26016,262.623806 327.13555,240.153598 C259.89627,197.139201 202.145216,141.883312 127.285942,111.084378 C31.037069,71.50558 -11.301019,160.327968 2.572381,244.699694 C15.018655,320.360961 55.886369,376.579859 76.212111,447.200512 C87.066922,484.931374 97.921732,555.213673 49.555117,555.473945 L641.32827,552.298619 L645.55776,0" id="Fill-17"></path>
                        </g>
                    </g>
                </g>
            </g>
        </g>
    </g>
</svg>