<?xml version="1.0" encoding="UTF-8"?>
<svg width="23px" height="24px" viewBox="0 0 23 24" version="1.1" xmlns="http://www.w3.org/2000/svg" xmlns:xlink="http://www.w3.org/1999/xlink">
    <title>Color</title>
    <g id="⚙️-Symbols" stroke="none" stroke-width="1" fill="none" fill-rule="evenodd">
        <g id="Icon/Notification" transform="translate(-5.000000, -4.000000)" fill="#000000">
            <path d="M27.5,23.875 C25.85,23.875 24.5,22.525 24.5,20.875 L24.5,14.5 C24.5,10.7125 21.95,7.5625 18.5,6.55 L18.5,6.25 C18.5,5.0125 17.4875,4 16.25,4 C15.0125,4 14,5.0125 14,6.25 L14,6.55 C10.55,7.5625 8,10.7125 8,14.5 L8,20.875 C8,22.525 6.65,23.875 5,23.875 L5,25.375 L12.95,25.375 C13.2875,26.875 14.6375,28 16.25,28 C17.8625,28 19.2125,26.875 19.55,25.375 L27.5,25.375 L27.5,23.875 Z M15.5,6.25 C15.5,5.8375 15.8375,5.5 16.25,5.5 C16.6625,5.5 17,5.8375 17,6.25 L17,6.2875 C16.7375,6.25 16.5125,6.25 16.25,6.25 C15.9875,6.25 15.7625,6.25 15.5,6.25 L15.5,6.25 Z M16.25,26.5 C15.5,26.5 14.825,26.05 14.525,25.375 L17.975,25.375 C17.675,26.05 17,26.5 16.25,26.5 Z M8.3375,23.875 C9.05,23.0875 9.5,22.0375 9.5,20.875 L9.5,14.5 C9.5,10.7875 12.5375,7.75 16.25,7.75 C19.9625,7.75 23,10.7875 23,14.5 L23,20.875 C23,22.0375 23.45,23.0875 24.1625,23.875 L8.3375,23.875 Z" id="Color"></path>
        </g>
    </g>
</svg>