<?xml version="1.0" encoding="UTF-8"?>
<svg width="24px" height="23px" viewBox="0 0 24 23" version="1.1" xmlns="http://www.w3.org/2000/svg" xmlns:xlink="http://www.w3.org/1999/xlink">
    <title>Color</title>
    <g id="⚙️-Symbols" stroke="none" stroke-width="1" fill="none" fill-rule="evenodd">
        <g id="Icon/Settings" transform="translate(-4.000000, -5.000000)" fill="#000000">
            <path d="M18.625,20 C20.425,20 21.9625,21.275 22.3,23 L22.3,23 L28,23 L28,24.5 L22.3,24.5 C21.9625,26.225 20.425,27.5 18.625,27.5 C16.825,27.5 15.2875,26.225 14.95,24.5 L14.95,24.5 L4,24.5 L4,23 L14.95,23 C15.2875,21.275 16.825,20 18.625,20 Z M18.625,21.5 C17.3875,21.5 16.375,22.5125 16.375,23.75 C16.375,24.9875 17.3875,26 18.625,26 C19.8625,26 20.875,24.9875 20.875,23.75 C20.875,22.5125 19.8625,21.5 18.625,21.5 Z M10.375,12.5 C12.175,12.5 13.7125,13.775 14.05,15.5 L14.05,15.5 L28,15.5 L28,17 L14.05,17 C13.7125,18.725 12.175,20 10.375,20 C8.575,20 7.0375,18.725 6.7,17 L6.7,17 L4,17 L4,15.5 L6.7,15.5 C7.0375,13.775 8.575,12.5 10.375,12.5 Z M10.375,14 C9.1375,14 8.125,15.0125 8.125,16.25 C8.125,17.4875 9.1375,18.5 10.375,18.5 C11.6125,18.5 12.625,17.4875 12.625,16.25 C12.625,15.0125 11.6125,14 10.375,14 Z M21.25,5 C23.05,5 24.5875,6.275 24.925,8 L24.925,8 L28,8 L28,9.5 L24.925,9.5 C24.5875,11.225 23.05,12.5 21.25,12.5 C19.45,12.5 17.9125,11.225 17.575,9.5 L17.575,9.5 L4,9.5 L4,8 L17.575,8 C17.9125,6.275 19.45,5 21.25,5 Z M21.25,6.5 C20.0125,6.5 19,7.5125 19,8.75 C19,9.9875 20.0125,11 21.25,11 C22.4875,11 23.5,9.9875 23.5,8.75 C23.5,7.5125 22.4875,6.5 21.25,6.5 Z" id="Color"></path>
        </g>
    </g>
</svg>