<?xml version="1.0" encoding="UTF-8"?>
<svg width="93px" height="39px" viewBox="0 0 93 39" version="1.1" xmlns="http://www.w3.org/2000/svg" xmlns:xlink="http://www.w3.org/1999/xlink">
    <title>Color</title>
    <g id="⚙️-Symbols" stroke="none" stroke-width="1" fill="none" fill-rule="evenodd">
        <g id="Logos/Clients/Disney" transform="translate(-1.000000, -13.000000)" fill="#000000">
            <path d="M47.7838822,17.8210388 C48.411105,17.8503698 49.0102049,18.0899403 49.4847112,18.5011733 C50.1313318,19.1132943 50.3008726,20.1339888 49.9948121,20.9506431 C48.8050696,23.39962 45.9756117,25.0353927 44.0421569,25.5765432 C42.8854355,25.848597 41.4231464,25.848597 40.3684451,25.4405163 C39.8578514,25.7465768 39.4270995,26.7357289 38.8036429,26.3246911 C37.9012326,25.6199141 38.6824016,24.5169134 38.161458,23.7342659 C38.0540165,23.5731036 37.7834412,23.5612752 37.6474143,23.2975998 C36.9327803,21.7327977 37.817448,20.236009 38.8036429,19.0457737 C40.4477941,17.211382 45.1648717,15.1675287 47.7838822,17.8210388 L47.7838822,17.8210388 Z M42.3073212,19.0452808 C41.3886468,19.2153145 40.3511953,19.6150167 39.7903308,20.2700157 C39.2289734,20.924522 38.8721492,21.5627641 39.2122165,22.2428986 C40.4029447,21.3587237 40.981059,20.1339888 42.307814,19.3858409 C42.3073212,19.2493212 42.5113615,19.147301 42.3073212,19.0452808 Z M47.8523885,19.3858409 C45.5049389,19.1813077 43.7360964,20.9506431 42.0692741,22.6509792 C41.9672539,22.923033 41.3551329,23.2290935 41.831227,23.535154 C44.0766565,23.7391944 46.2195729,23.0935595 47.8523885,21.596278 C48.3289755,21.1541906 48.668057,20.5760763 48.4309957,19.9634624 C48.3289755,19.7259082 48.088957,19.4878611 47.8523885,19.3858409 Z M68.1928448,29.5223088 C69.2815528,32.1758189 70.1997344,36.3591388 68.1928448,38.9106287 C67.6487373,39.5227498 66.696549,40.0870642 66.084428,39.6247699 C63.8389985,37.8224136 62.8873031,35.2369169 61.4925346,32.923474 C61.2884943,32.8214538 61.2884943,33.0940005 61.1864741,33.1960206 C60.6763732,35.5429774 61.6285615,38.6045682 60.0302455,40.4409313 C59.4181245,40.5429515 58.8454315,40.2280196 58.635477,39.6247699 C57.8528295,37.2097997 58.668498,34.6923165 58.8725383,32.2773463 C59.3491253,31.0526114 59.5531657,29.624329 60.6078669,28.7056546 C62.308696,29.385789 63.1248573,31.2911513 64.1105595,32.6859198 C64.8256864,33.7401282 65.4033078,34.9308564 66.2194692,35.8830446 C66.9336104,35.5769841 66.5822076,34.6435242 66.5600293,34.0801954 C66.2869898,31.8692656 65.6748687,29.8283693 65.0962616,27.7194596 C65.0632406,27.175352 64.7571801,26.2566776 65.3343087,25.9166104 C66.8670755,26.5972377 67.5122175,28.1955537 68.1928448,29.5223088 L68.1928448,29.5223088 Z M57.9203501,28.7056546 C57.9203501,29.2162483 57.5122694,29.8539976 57.1712165,29.9303895 C53.9060782,30.4404903 50.266373,30.1344298 47.2052751,31.1546315 C47.1032549,31.5287055 47.5453423,31.5967189 47.7833894,31.6987391 C50.4019071,32.1068198 53.1579302,32.20884 55.7094202,32.8554606 C57.0583536,33.197992 57.546769,34.7948295 57.6487891,36.1210917 C57.7113812,37.1669217 57.3092148,38.4340418 56.2880274,39.1486758 C53.7715298,40.7474847 49.9277843,40.6789784 47.3758015,39.2171821 C46.4004493,38.6701174 45.4709322,37.7888997 45.4029187,36.7001917 C45.4088329,35.8357309 45.7774855,35.1551036 46.3896065,34.8293291 C48.8390763,33.8426412 51.8661676,34.3877345 53.9755702,35.6454904 C54.1106113,36.3261178 53.3742919,36.2891539 53.0219033,36.5301581 C50.6744537,37.8909199 48.9061041,35.0003484 46.7291809,36.0535711 C46.4231204,36.2576115 46.2018303,36.8268544 46.5591473,37.0062522 C49.2461713,38.1969804 52.2397487,37.3463195 54.892766,36.5981715 C55.1988265,36.4961514 55.5733933,36.1900909 55.6069072,35.8840303 C55.504887,34.7953223 54.280645,34.5577681 53.4979975,34.2517076 C51.1850474,33.6735933 48.6340503,33.6735933 46.1505738,33.4355463 C45.6744797,33.3335261 45.06778,33.0018373 44.9263317,32.6193849 C44.6542779,31.8032235 44.6542779,30.6805088 45.266399,30.0003743 C48.4295171,27.2108373 53.2254508,27.4493772 57.2392299,28.1975251 C57.5117765,28.2975739 57.8178371,28.3995941 57.9203501,28.7056546 L57.9203501,28.7056546 Z M43.0559619,29.9984029 C43.3620225,33.2635412 43.5320561,36.2916182 43.4640426,39.7267901 C43.3960292,40.1683847 42.8859283,40.2708977 42.5458611,40.4409313 C42.0017535,40.5429515 41.298455,40.4271315 41.0830791,40.1348708 C40.3009245,38.8756363 40.5729783,37.175793 40.5049648,35.6449976 C40.606985,33.2305202 40.5729783,30.6110168 41.2536056,28.3655873 C41.3837183,28.0393199 41.7637064,27.7534663 42.069767,27.9570138 C42.8859283,28.3655873 43.0219552,29.1822416 43.0559619,29.9984029 L43.0559619,29.9984029 Z M80.8477817,29.5223088 C81.0114082,29.7973197 81.1824275,30.2221573 80.8477817,30.4064836 C79.3169862,31.0866181 77.2425761,30.7805576 75.4732408,30.9845979 C74.9971467,31.3926786 74.6225798,32.0728131 74.7921206,32.6854269 C74.9631399,32.7874471 75.1154309,32.9426952 75.3032072,32.9229811 C76.3909295,32.9914874 78.0242379,32.4128803 78.7393648,33.433082 C78.9138341,33.7366783 78.7157079,34.8702357 78.2292639,34.895864 C76.902016,35.0668833 74.7196715,34.7292803 74.0784723,35.0668833 C73.2623109,35.6109909 73.3298315,36.6651993 73.023771,37.5163531 C73.6023781,37.890427 74.2080921,37.5074818 74.8941408,37.4138401 C76.1538681,37.2097997 77.5486366,36.8357258 78.8063925,37.1077795 C79.0444396,37.549867 79.3849997,38.0264539 79.1464598,38.5705615 C77.0020648,40.2713905 74.2361846,42.0146048 71.2894281,40.7814914 C70.1834703,40.2856832 69.6906192,38.6045682 70.065186,37.1767787 C70.3027403,36.1560841 71.3569487,35.1698892 70.7113138,34.0811812 C70.6092936,33.6045942 70.8818403,33.1970063 71.2899209,33.0949862 C72.4121428,33.0949862 72.1736029,31.7002177 72.75221,31.0535971 C72.1060823,30.3394559 70.4737596,30.3734626 70.6437932,28.9446873 C71.4264407,28.5366067 72.3791218,28.6726336 73.2623109,28.5366067 C75.2692004,28.1280331 77.514137,27.8899861 79.5565119,28.1280331 C79.963114,28.2098464 80.5077144,29.0122079 80.8477817,29.5223088 Z M32.2728735,21.7668044 C35.4118419,24.3325871 39.4842703,28.7061474 38.9741694,33.7401282 C38.3615555,37.7203934 34.1437361,40.7134779 30.5720444,41.6661591 C27.1023729,42.6863608 22.7485266,42.5843406 19.2103488,41.7681792 C18.9723018,42.4147998 18.7342547,43.1964616 17.9861068,43.4690082 C17.5100127,43.6390419 16.8973988,43.5370217 16.5233248,43.2309612 C15.4691164,42.2442733 16.3192845,40.339404 14.7884891,39.7277758 C11.7949117,38.4690342 8.56328726,35.9855577 7.03298471,32.9244597 C6.82894436,32.3123387 7.06699143,31.7002177 7.44106539,31.2241235 C9.78851501,29.3532609 12.7475928,28.605113 15.7071635,28.0265058 C15.8771971,28.0945193 15.8091836,27.8564722 15.9452105,27.7884587 C16.1152441,25.7475625 16.1832576,23.6721666 16.8293853,21.8353107 C16.9767478,21.5775496 17.3394862,21.4952435 17.5780261,21.6652771 C19.4488888,23.0935595 18.5642211,25.7815692 19.3808753,27.7199524 C22.952567,27.8899861 26.5242586,28.0600197 29.3473096,30.0674021 C30.2999907,30.8495567 30.5321235,32.3433883 30.2314844,33.1970063 C29.9313381,34.0491458 28.9392289,34.6597883 28.0205545,34.726816 C27.4079406,34.726816 26.251712,34.786451 26.3197255,34.3192282 C26.3877389,33.8515126 28.4005427,33.0861148 27.7825074,32.4478727 C26.8938969,31.5306769 22.4478875,30.9850908 19.6923572,30.6450235 C19.3522899,30.5770101 19.0403152,30.6790302 19.0403152,31.0531042 C18.9723018,33.638108 18.7682614,36.4951657 19.2103488,38.979135 C19.2443556,39.1496615 19.4483959,39.3537019 19.6189224,39.3867229 C24.4828695,40.1693704 29.6193633,39.7267901 33.4291021,36.9377459 C35.1979446,35.5099564 35.7765517,33.5015883 35.4699983,31.2911513 C33.9392029,25.1344558 27.5104536,21.4262443 22.2379329,19.0452808 C17.101932,16.8003442 11.4208377,15.6436228 5.33215568,15.9501761 C4.36271763,16.0211467 2.82650086,16.3557926 2.81516529,16.6988169 C2.80382971,17.0418413 4.5554224,16.9339069 4.34546785,17.5829917 C4.13600614,18.2315837 2.35582809,17.846667 1.82847745,17.6850119 C1.30112681,17.5233568 1.35238332,16.7663375 1.48841022,16.2902434 C2.81516529,13.9432866 6.51746249,13.7535389 8.18970616,13.6712328 C17.4415064,13.4326929 26.3882318,16.9560852 32.2728735,21.7668044 L32.2728735,21.7668044 Z M15.6051433,30.8830706 C13.2576937,30.9170773 10.77471,31.1551244 8.59778684,31.9712857 C8.15569943,32.1413194 7.61109901,32.6174135 7.95116624,33.1960206 C8.83534105,34.386256 10.0999969,35.3635796 11.2848108,36.0530783 C12.4696248,36.7415912 14.0403412,37.6178804 15.4691164,37.8224136 C15.8091836,35.6109909 15.8091836,33.4340677 15.7751769,31.1551244 C15.6386572,31.0871109 15.7746841,30.951084 15.6051433,30.8830706 L15.6051433,30.8830706 Z M85.9152763,27.787473 C85.8132561,30.7465508 83.057233,32.5838996 83.057233,35.5429774 C83.1592531,35.6449976 83.2282523,35.7810245 83.3632935,35.7139967 C85.5752091,33.2985337 87.7516394,29.8628689 90.9832638,28.8426672 C91.8349105,28.7746537 92.604251,29.5144232 92.9226328,30.0674021 C94.0453475,32.3123387 93.7742794,35.4759497 92.2089844,37.5168459 C90.5939115,39.5202855 87.786139,41.530625 84.5899998,41.1900649 C83.2637376,44.4556961 82.3435846,47.8913609 81.8334838,51.4630525 C81.56143,52.1771937 80.9157951,51.531066 80.5077144,51.3950391 C77.752677,49.2181159 80.0148634,43.4552084 80.2016539,42.7198746 C80.3884445,41.9865122 81.1257497,40.256605 81.6649287,38.8081157 C80.3721804,36.4956585 81.1883417,33.7056286 82.2425502,31.5627122 C83.0587115,30.133937 84.182412,28.7051617 85.5086742,27.6169466 C85.6772292,27.6174394 85.8132561,27.6514461 85.9152763,27.787473 L85.9152763,27.787473 Z M91.3928231,31.4611849 C90.9847424,31.3931714 90.8142159,31.9377719 90.4746415,32.039792 C88.9103322,33.8086345 87.3450372,35.577477 86.5623898,37.6863867 C87.6175839,37.8224136 88.5012658,37.1422791 89.4204331,36.7682052 C90.9847424,35.7815173 91.9714302,34.1496874 91.86941,32.278332 C91.8009037,31.9712857 91.5288499,31.7332387 91.3928231,31.4611849 Z" id="Color"></path>
        </g>
    </g>
</svg>