<?xml version="1.0" encoding="UTF-8"?>
<svg width="95px" height="31px" viewBox="0 0 95 31" version="1.1" xmlns="http://www.w3.org/2000/svg" xmlns:xlink="http://www.w3.org/1999/xlink">
    <title>Color</title>
    <g id="⚙️-Symbols" stroke="none" stroke-width="1" fill="none" fill-rule="evenodd">
        <g id="Logos/Clients/Google" transform="translate(0.000000, -18.000000)" fill="#000000">
            <path d="M68.327783,27.1616038 C68.9491787,27.4324686 69.4590419,27.8945321 69.9529718,28.3565956 C69.9689051,27.9263986 69.9529718,27.4802683 69.9689051,27.034138 C71.0364311,27.0500712 72.1039571,27.034138 73.1874163,27.0500712 L73.1874163,41.1031748 C73.1714831,43.2222936 72.6297535,45.4688782 71.100164,47.014401 C69.4271754,48.7192559 66.8619264,49.2450523 64.5516089,48.8945214 C62.0819592,48.5280572 59.9309739,46.7276029 58.9749805,44.4491519 C59.9309739,43.9870884 60.934767,43.6206242 61.9226269,43.1904272 C62.4802898,44.4969516 63.6115487,45.6122772 65.0296056,45.8672088 C66.4476625,46.1221404 68.0887846,45.7716095 69.0129116,44.5925509 C70.0007715,43.3816259 70.0007715,41.7245706 69.9529718,40.2427807 C69.2200435,40.9597758 68.3755827,41.5971048 67.3558563,41.8361031 C65.1411382,42.4574989 62.7033549,41.6927041 60.9984999,40.1949811 C59.2777117,38.697258 58.2579854,36.3869405 58.3535847,34.0925563 C58.4013844,31.4954407 59.867241,28.9939246 62.0819592,27.6396005 C63.9142799,26.4924084 66.3520632,26.1737439 68.327783,27.1616038 Z M36.9871313,28.0219979 C38.5645205,29.1373236 39.663913,30.8899782 39.9985107,32.8019651 C40.4287077,35.0166833 39.8869781,37.4385333 38.4529879,39.191188 C36.9074652,41.1509745 34.3740826,42.2025673 31.9044329,42.0432351 C29.641915,41.9157693 27.4431301,40.7845104 26.1047393,38.9362564 C24.591083,36.8968037 24.2246189,34.0925563 25.0531465,31.7025727 C25.8816742,29.1373236 28.2238581,27.177537 30.8687733,26.7154735 C32.9719589,26.3171429 35.2504099,26.7632732 36.9871313,28.0219979 Z M12.5774321,18 C15.5091453,18.0637329 18.3930589,19.2427915 20.464378,21.3300438 C19.6995833,22.1107718 18.9188553,22.8596333 18.1699937,23.6403613 C17.0068684,22.5887685 15.6047447,21.7761741 14.0751552,21.4893761 C11.8126374,21.0113793 9.37485409,21.4415764 7.47880043,22.7321675 C5.4074813,24.0864916 4.00535759,26.3808758 3.70262633,28.8345923 C3.36802863,31.2564424 4.05315726,33.8057582 5.63054644,35.6858787 C7.14420272,37.5181994 9.45452021,38.6653916 11.8445038,38.7450577 C14.0751552,38.8725235 16.4014059,38.1873948 18.0265947,36.6259389 C19.3012527,35.5265464 19.8907819,33.8535579 20.0819806,32.2283691 C17.4370654,32.2283691 14.7921503,32.2443023 12.1472351,32.2283691 L12.1472351,28.9461249 L23.2845587,28.9461249 C23.8581547,32.4673674 23.0296271,36.4347402 20.3528454,38.9521896 C18.5683243,40.7367107 16.0986746,41.7883035 13.5812252,41.9954354 C11.143442,42.2344337 8.62599256,41.7723702 6.45907409,40.5933117 C3.86195857,39.2071212 1.79063945,36.8649372 0.770913111,34.1084895 C-0.18508033,31.5751069 -0.201013554,28.7071265 0.691246991,26.1578107 C1.50384142,23.83156 3.06529737,21.7761741 5.0728836,20.3421839 C7.00080371,18.924127 9.34298764,18.143399 11.7329712,18 L12.5774321,18 Z M54.5933439,28.6115272 C57.5250571,31.2405092 57.8437216,36.1638754 55.3422054,39.191188 C53.8285491,41.1031748 51.3748326,42.1547676 48.9529826,42.0432351 C46.6426651,41.9795022 44.364214,40.83231 42.9939568,38.9362564 C41.448434,36.849004 41.1138363,33.9810237 41.9901637,31.5432404 C42.866491,29.0576575 45.1608752,27.1616038 47.7579908,26.7154735 C50.1639076,26.25341 52.7928896,26.9226055 54.5933439,28.6115272 Z M90.4430979,27.0022716 C92.7693486,27.8785989 94.2511385,30.093317 95,32.3717681 C91.5424904,33.8057582 88.100914,35.2238152 84.6434044,36.6578053 C85.1214011,37.5659991 85.8543294,38.3945268 86.8421893,38.7291245 C88.2283798,39.2230544 89.8854351,39.0477889 91.0485604,38.1236619 C91.5106239,37.773131 91.8770881,37.3110675 92.227619,36.8649372 C93.1039463,37.4544665 93.9802737,38.0280626 94.856601,38.6175919 C93.6138095,40.4817791 91.5265572,41.7883035 89.2799726,41.9954354 C86.7943896,42.2981666 84.1494744,41.3421732 82.5402188,39.3983199 C79.8953036,36.3391409 80.1502352,31.2086427 83.1297481,28.452195 C85.041735,26.6676739 87.9893814,26.0622114 90.4430979,27.0022716 Z M79.0349095,18.8285276 L79.0349095,41.5811716 C77.9036506,41.5811716 76.7564585,41.5971048 75.6251996,41.5652383 C75.6411328,33.9969569 75.6251996,26.4127423 75.6251996,18.8285276 L79.0349095,18.8285276 Z M65.3801365,29.6790532 C64.4082099,29.8383855 63.5000161,30.3801151 62.8786204,31.1289766 C61.3808973,32.9134977 61.3808973,35.7655448 62.8945536,37.5181994 C63.7549477,38.553859 65.1411382,39.1274551 66.479529,38.984056 C67.7382537,38.8565902 68.901379,38.059929 69.5227748,36.9605366 C70.5743676,35.0963494 70.3991021,32.5629668 68.9810452,30.9377779 C68.1047178,29.9339848 66.7025941,29.4400549 65.3801365,29.6790532 Z M48.2359875,29.7427861 C47.3755934,29.9658512 46.5789322,30.4597812 46.0053361,31.1449098 C44.4757466,32.9612974 44.5394795,35.924877 46.1806016,37.6615984 C47.1525283,38.697258 48.6661845,39.2071212 50.0683082,38.9203231 C51.3110997,38.6813248 52.4264254,37.8527971 53.0318879,36.7374715 C54.0675475,34.8254846 53.7648162,32.2124358 52.1396274,30.730646 C51.1039678,29.7746526 49.5903115,29.3922552 48.2359875,29.7427861 Z M31.34677,29.7427861 C30.4863759,29.9658512 29.6897147,30.4597812 29.1161187,31.160843 C27.5705959,33.009097 27.6661953,36.0204764 29.3710502,37.7412646 C30.3429769,38.7291245 31.8088335,39.191188 33.1631576,38.9203231 C34.4218823,38.697258 35.5212747,37.8527971 36.1267372,36.7374715 C37.17833,34.8414178 36.8755988,32.2283691 35.2663431,30.7465792 C34.2306836,29.7905858 32.7170273,29.3922552 31.34677,29.7427861 Z M84.8346031,31.3998414 C84.2928735,32.1805694 84.0698083,33.1365628 84.0857415,34.076623 C86.396059,33.1206296 88.7063765,32.1646362 91.016694,31.1927095 C90.6342966,30.3004489 89.7101696,29.7587193 88.7701094,29.6153203 C87.2564531,29.3444555 85.6790639,30.1570499 84.8346031,31.3998414 Z" id="Color"></path>
        </g>
    </g>
</svg>