<?xml version="1.0" encoding="UTF-8"?>
<svg width="83px" height="31px" viewBox="0 0 83 31" version="1.1" xmlns="http://www.w3.org/2000/svg" xmlns:xlink="http://www.w3.org/1999/xlink">
    <title>Color</title>
    <g id="⚙️-Symbols" stroke="none" stroke-width="1" fill="none" fill-rule="evenodd">
        <g id="Logos/Clients/Nike" transform="translate(-6.000000, -17.000000)" fill="#000000">
            <path d="M16.6319634,18.5492827 C11.2309217,24.918748 6.05234974,32.8186855 6,38.7226414 C5.98019738,40.9442415 6.68586936,42.8836814 8.3803567,44.3537691 C10.818232,46.468324 13.5037211,47.2143469 16.1766383,47.21875 C20.0827049,47.223679 23.9614411,45.6416055 26.9983996,44.4212899 C32.1130184,42.3671195 88.6504082,17.7099383 88.6504082,17.7099383 C89.1959238,17.4360123 89.0931613,17.0934676 88.4109935,17.26474 C88.1355027,17.3339077 26.8617474,34.0104557 26.8617474,34.0104557 C25.678886,34.3436683 24.4708805,34.5165875 23.2951249,34.5231749 C18.5860899,34.5511713 14.3957867,31.926093 14.4296765,26.3943252 C14.4433417,24.2292669 15.1030985,21.6195593 16.6319634,18.5492827" id="Color"></path>
        </g>
    </g>
</svg>