<?xml version="1.0" encoding="UTF-8"?>
<svg width="75px" height="100px" viewBox="0 0 75 100" version="1.1" xmlns="http://www.w3.org/2000/svg" xmlns:xlink="http://www.w3.org/1999/xlink">
    <title>Color</title>
    <g id="⚙️-Symbols" stroke="none" stroke-width="1" fill="none" fill-rule="evenodd">
        <g id="Vector/Bulb" transform="translate(-38.000000, -25.000000)" fill="#000000">
            <path d="M75.5,25 C96.2109375,25 113,41.7890625 113,62.5 C113,77.6296875 104.026562,90.634375 91.125,96.5625 L91.125,96.5625 L91.125,118.75 C91.125,122.204687 88.3296875,125 84.875,125 L84.875,125 L66.125,125 C62.6703125,125 59.875,122.204687 59.875,118.75 L59.875,118.75 L59.875,96.5625 C46.9734375,90.634375 38,77.6296875 38,62.5 C38,41.7890625 54.7890625,25 75.5,25 Z M88,115.625 L63,115.625 L63,118.75 C63,120.47589 64.3991102,121.875 66.125,121.875 L66.125,121.875 L84.875,121.875 C86.6008898,121.875 88,120.47589 88,118.75 L88,118.75 L88,115.625 Z M88,106.25 L63,106.25 L63,112.5 L88,112.5 L88,106.25 Z M88,96.875 L63,96.875 L63,103.125 L88,103.125 L88,96.875 Z M75.5,60.9375 C73.7741102,60.9375 72.375,62.3366102 72.375,64.0625 L72.375,64.0625 L72.375,93.75 L78.625,93.75 L78.625,64.0625 C78.625,62.3366102 77.2258898,60.9375 75.5,60.9375 Z M75.5,28.125 C56.515625,28.125 41.125,43.515625 41.125,62.5 C41.125,76.3796875 49.3609375,88.3203125 61.203125,93.75 L61.203125,93.75 L69.25,93.75 L69.25,64.0625 C69.25,62.3366102 67.8508898,60.9375 66.125,60.9375 C64.3991102,60.9375 63,62.3366102 63,64.0625 C63,64.9254449 62.3004449,65.625 61.4375,65.625 C60.5745551,65.625 59.875,64.9254449 59.875,64.0625 C59.875,60.6107203 62.6732203,57.8125 66.125,57.8125 C67.9262934,57.8173198 69.6367209,58.6041165 70.8125,59.96875 C71.9578125,58.6578125 73.6234375,57.8125 75.5,57.8125 C77.3765625,57.8125 79.0421875,58.6578125 80.1875,59.96875 C81.3632791,58.6041165 83.0737066,57.8173198 84.875,57.8125 C88.3267797,57.8125 91.125,60.6107203 91.125,64.0625 C91.125,64.9254449 90.4254449,65.625 89.5625,65.625 C88.6995551,65.625 88,64.9254449 88,64.0625 C88,62.3366102 86.6008898,60.9375 84.875,60.9375 C83.1491102,60.9375 81.75,62.3366102 81.75,64.0625 L81.75,64.0625 L81.75,93.75 L89.796875,93.75 C101.639062,88.321875 109.875,76.3796875 109.875,62.5 C109.875,43.515625 94.484375,28.125 75.5,28.125 Z M75.5,34.374978 C82.9612308,34.3656679 90.1186945,37.3295292 95.3890625,42.6109375 C95.3890625,42.6109375 96.9734375,44.1515625 95.8125,45.3125 C94.6515625,46.4734375 93.1765625,44.8234375 93.1765625,44.8234375 C88.653125,40.2984375 82.403125,37.5 75.5,37.5 C74.6370551,37.5 73.9375,36.8004449 73.9375,35.9375 C73.9375,35.0745551 74.6370551,34.374978 75.5,34.374978 Z" id="Color"></path>
        </g>
    </g>
</svg>