<?xml version="1.0" encoding="UTF-8"?>
<svg width="100px" height="75px" viewBox="0 0 100 75" version="1.1" xmlns="http://www.w3.org/2000/svg" xmlns:xlink="http://www.w3.org/1999/xlink">
    <title>Color</title>
    <g id="⚙️-Symbols" stroke="none" stroke-width="1" fill="none" fill-rule="evenodd">
        <g id="Vector/Cloud" transform="translate(-25.000000, -38.000000)" fill="#000000">
            <path d="M78.125,38 C93.834375,38 106.798438,49.603125 109.007812,64.7 C118.357813,68.3171875 125,77.371875 125,88 C125,101.809375 113.807813,113 100,113 L100,113 L43.75,113 C33.3953125,113 25,104.604688 25,94.25 C25,86.303125 29.9515625,79.528125 36.93125,76.8 C35.334375,74.7 34.375,72.090625 34.375,69.25 C34.3744253,65.4966364 36.0604711,61.9416707 38.9673295,59.5672417 C41.8741878,57.1928127 45.6941533,56.2502656 49.371875,57 C54.1359375,45.83125 65.2140625,38 78.125,38 Z M78.125,41.125 C66.584375,41.125 56.6796875,48.0796875 52.34375,58.0234375 C53.5919177,58.62735 54.7309069,59.4347281 55.7140625,60.4125 C55.7140625,60.4125 57.421875,61.83125 56.25,63.003125 C55.078125,64.171875 53.5046875,62.621875 53.5046875,62.621875 C50.8236378,59.9403711 46.7912651,59.1379669 43.2879127,60.5888329 C39.7845602,62.039699 37.5001778,65.458102 37.5,69.25 C37.5015256,71.7226857 38.4844244,74.0936693 40.2328125,75.8421875 C41.3734375,75.625 42.5453125,75.5 43.75,75.5 L43.75,75.5 L43.78125,75.503125 L43.7578125,75.503125 C44.5927043,75.5425257 45.2487429,76.2319798 45.2466512,77.0677981 C45.2445596,77.9036164 44.5850785,78.5897784 43.75,78.625 C35.121875,78.625 28.125,85.6203125 28.125,94.25 C28.125,102.879688 35.121875,109.875 43.75,109.875 L43.75,109.875 L100,109.875 C112.08125,109.875 121.875,100.079688 121.875,88 C121.875,75.9203125 112.08125,66.125 100,66.125 C99.1370551,66.125 98.4375,65.4254449 98.4375,64.5625 C98.4375,63.6995551 99.1370551,63 100,63 C101.923554,63.0059823 103.839952,63.2345868 105.710938,63.68125 L105.710938,63.68125 L105.69375,63.6765625 C103.10625,50.8125 91.75,41.125 78.125,41.125 Z M54.41875,80.6265625 C55.590625,79.4796875 57.0078125,80.9921875 57.0078125,80.9921875 C60.4,84.3859375 62.5,89.0734375 62.5,94.25 C62.5,95.1129449 61.8004449,95.8125 60.9375,95.8125 C60.0745551,95.8125 59.375,95.1129449 59.375,94.25 C59.3805273,90.1044462 57.7334701,86.1276663 54.7984375,83.2 C54.7984375,83.2 53.246875,81.7734375 54.41875,80.6265625 Z M100,72.375 C108.628125,72.375 115.625,79.3703125 115.625,88 C115.625,88.8629449 114.925445,89.5625 114.0625,89.5625 C113.199555,89.5625 112.5,88.8629449 112.5,88 C112.5,81.0964406 106.903559,75.5 100,75.5 C99.1370551,75.5 98.4375,74.8004449 98.4375,73.9375 C98.4375,73.0745551 99.1370551,72.375 100,72.375 Z" id="Color"></path>
        </g>
    </g>
</svg>