<?xml version="1.0" encoding="UTF-8"?>
<svg width="100px" height="100px" viewBox="0 0 100 100" version="1.1" xmlns="http://www.w3.org/2000/svg" xmlns:xlink="http://www.w3.org/1999/xlink">
    <title>Color</title>
    <g id="⚙️-Symbols" stroke="none" stroke-width="1" fill="none" fill-rule="evenodd">
        <g id="Vector/Compass" transform="translate(-25.000000, -25.000000)" fill="#000000">
            <path d="M75,25 C102.614063,25 125,47.3859375 125,75 C125,102.614063 102.614063,125 75,125 C47.3859375,125 25,102.614063 25,75 C25,47.3859375 47.3859375,25 75,25 Z M75,28.1234375 C49.1125,28.1234375 28.125,49.1109375 28.125,74.9984375 C28.125,100.885938 49.1125,121.873437 75,121.873437 C100.8875,121.873437 121.875,100.885938 121.875,74.9984375 C121.875,49.1109375 100.8875,28.1234375 75,28.1234375 Z M75,31.2484375 C99.1625,31.2484375 118.75,50.8359375 118.75,74.9984375 C118.75,99.1609375 99.1625,118.748437 75,118.748437 C50.8375,118.748437 31.25,99.1609375 31.25,74.9984375 C31.25,50.8359375 50.8375,31.2484375 75,31.2484375 Z M76.5625,34.4125 L76.5625,42.1859375 C76.5625,42.744165 76.2646892,43.2599885 75.78125,43.5391023 C75.2978108,43.818216 74.7021892,43.818216 74.21875,43.5391023 C73.7353108,43.2599885 73.4375,42.744165 73.4375,42.1859375 L73.4375,42.1859375 L73.4375,34.4125 C63.7478576,34.7719178 54.509307,38.5983034 47.403125,45.1953125 L47.403125,45.1953125 L49.5859375,47.378125 C49.9806043,47.7727918 50.1347393,48.3480313 49.9902812,48.8871562 C49.8458231,49.4262811 49.4247186,49.8473856 48.8855937,49.9918437 C48.3464688,50.1363018 47.7712293,49.9821668 47.3765625,49.5875 L47.3765625,49.5875 L45.19375,47.4046875 C38.5975111,54.5104672 34.7721661,63.7486283 34.4140625,73.4375 L34.4140625,73.4375 L42.1875,73.4375 C43.0504449,73.4375 43.75,74.1370551 43.75,75 C43.75,75.8629449 43.0504449,76.5625 42.1875,76.5625 L42.1875,76.5625 L34.415625,76.5625 C34.7737286,86.2513717 38.5990736,95.4895328 45.1953125,102.595312 L45.1953125,102.595312 L47.378125,100.4125 C47.7727918,100.017833 48.3480313,99.8636982 48.8871562,100.008156 C49.4262811,100.152614 49.8473856,100.573719 49.9918437,101.112844 C50.1363018,101.651969 49.9821668,102.227208 49.5875,102.621875 L49.5875,102.621875 L47.4046875,104.804687 C54.5104672,111.400926 63.7486283,115.226271 73.4375,115.584375 L73.4375,115.584375 L73.4375,107.810937 C73.4375,106.947993 74.1370551,106.248437 75,106.248437 C75.8629449,106.248437 76.5625,106.947993 76.5625,107.810937 L76.5625,107.810937 L76.5625,115.584375 C86.2514248,115.225153 95.4893805,111.399339 102.595313,104.803125 L102.595313,104.803125 L100.4125,102.620312 C100.017833,102.225646 99.8636982,101.650406 100.008156,101.111281 C100.152614,100.572156 100.573719,100.151052 101.112844,100.006594 C101.651969,99.8621357 102.227208,100.016271 102.621875,100.410937 L102.621875,100.410937 L104.804688,102.59375 C111.401127,95.4873389 115.226948,86.2488137 115.585938,76.559375 L115.585938,76.559375 L107.8125,76.559375 C106.949555,76.559375 106.25,75.8598199 106.25,74.996875 C106.25,74.1339301 106.949555,73.434375 107.8125,73.434375 L107.8125,73.434375 L115.584375,73.434375 C115.226271,63.7455033 111.400926,54.5073422 104.804688,47.4015625 L104.804688,47.4015625 L102.621875,49.584375 C102.227208,49.9790418 101.651969,50.1331768 101.112844,49.9887187 C100.573719,49.8442606 100.152614,49.4231561 100.008156,48.8840312 C99.8636982,48.3449063 100.017833,47.7696668 100.4125,47.375 L100.4125,47.375 L102.595313,45.1921875 C95.4895328,38.5959486 86.2513717,34.7706036 76.5625,34.4125 L76.5625,34.4125 Z M93.1546875,54.803125 C93.7380527,54.5654528 94.4070446,54.7005472 94.8524675,55.14597 C95.2978903,55.5913929 95.4329847,56.2603848 95.1953125,56.84375 L95.1953125,56.84375 L84.2578125,83.40625 C84.0984375,83.790625 83.7921875,84.096875 83.4078125,84.25625 L83.4078125,84.25625 L56.8453125,95.19375 C56.2619473,95.4314222 55.5929554,95.2963278 55.1475325,94.850905 C54.7021097,94.4054821 54.5670153,93.7364902 54.8046875,93.153125 L54.8046875,93.153125 L65.7421875,66.590625 C65.9018575,66.2059616 66.2075241,65.900295 66.5921875,65.740625 L66.5921875,65.740625 Z M90.878125,59.1203125 L68.384375,68.38125 L59.1234375,90.875 L81.615625,81.6140625 L90.878125,59.1203125 Z M75,70.3109375 C77.5417012,70.3765694 79.5680217,72.455889 79.5680217,74.9984375 C79.5680217,77.540986 77.5417012,79.6203056 75,79.6859375 C72.4582988,79.6203056 70.4319783,77.540986 70.4319783,74.9984375 C70.4319783,72.455889 72.4582988,70.3765694 75,70.3109375 Z M75,73.4359375 C74.1370551,73.4359375 73.4375,74.1354926 73.4375,74.9984375 C73.4375,75.8613824 74.1370551,76.5609375 75,76.5609375 C75.8629449,76.5609375 76.5625,75.8613824 76.5625,74.9984375 C76.5625,74.1354926 75.8629449,73.4359375 75,73.4359375 Z" id="Color"></path>
        </g>
    </g>
</svg>