<?xml version="1.0" encoding="UTF-8"?>
<svg width="88px" height="88px" viewBox="0 0 88 88" version="1.1" xmlns="http://www.w3.org/2000/svg" xmlns:xlink="http://www.w3.org/1999/xlink">
    <title>Color</title>
    <g id="⚙️-Symbols" stroke="none" stroke-width="1" fill="none" fill-rule="evenodd">
        <g id="Vector/Gift" transform="translate(-31.000000, -31.000000)" fill="#000000">
            <path d="M88.75,31 C94.8251322,31 99.75,35.9249447 99.75,42.0001719 C99.750668,45.1610227 98.3868844,48.1683104 96.008625,50.2503008 L96.008625,50.2503008 L113.5,50.2489258 C116.540125,50.2489258 119,52.7102142 119,55.7490117 L119,55.7490117 L119,66.7491836 C119,69.7893561 116.540125,72.2492695 113.5,72.2492695 L113.5,72.2492695 L113.5,113.499914 C113.5,116.540087 111.040125,119 108,119 L108,119 L42,119 C38.959875,119 36.5,116.540087 36.5,113.499914 L36.5,113.499914 L36.5,72.2492695 C33.459875,72.2492695 31,69.7893561 31,66.7491836 L31,66.7491836 L31,55.7490117 C31,52.7102142 33.459875,50.2489258 36.5,50.2489258 L36.5,50.2489258 L53.991375,50.2503008 C51.6131156,48.1683104 50.249332,45.1610227 50.25,42.0001719 C50.25,35.9249447 55.1748678,31 61.25,31 C67.3251322,31 72.25,35.9249447 72.25,42.0001719 L72.25,42.0001719 L72.25,50.2503008 L77.75,50.2503008 L77.75,42.0001719 C77.75,35.9249447 82.6748678,31 88.75,31 Z M69.5,72.2492695 L39.25,72.2492695 L39.25,113.499914 C39.25,115.018721 40.4812169,116.249957 42,116.249957 L42,116.249957 L69.5,116.249957 L69.5,72.2492695 Z M77.75,72.2492695 L72.25,72.2492695 L72.25,116.249957 L77.75,116.249957 L77.75,72.2492695 Z M110.75,72.2492695 L80.5,72.2492695 L80.5,116.249957 L108,116.249957 C109.518783,116.249957 110.75,115.018721 110.75,113.499914 L110.75,113.499914 L110.75,72.2492695 Z M69.5,52.9989687 L36.5,52.9989687 C34.9812169,52.9989687 33.75,54.2302049 33.75,55.7490117 L33.75,55.7490117 L33.75,66.7491836 C33.75,68.2679904 34.9812169,69.4992266 36.5,69.4992266 L36.5,69.4992266 L69.5,69.4992266 L69.5,52.9989687 Z M77.75,52.9989687 L72.25,52.9989687 L72.25,69.4992266 L77.75,69.4992266 L77.75,52.9989687 Z M113.5,52.9989687 L80.5,52.9989687 L80.5,69.4992266 L113.5,69.4992266 C115.018783,69.4992266 116.25,68.2679904 116.25,66.7491836 L116.25,66.7491836 L116.25,55.7490117 C116.25,54.2302049 115.018783,52.9989687 113.5,52.9989687 L113.5,52.9989687 Z M61.25,33.750043 C56.6936509,33.750043 53.0000001,37.4437515 53.0000001,42.0001719 C53.0000001,46.5565922 56.6936509,50.2503008 61.25,50.2503008 L61.25,50.2503008 L69.5000001,50.2503008 L69.5000001,42.0001719 C69.5000001,37.4437515 65.8063492,33.750043 61.25,33.750043 Z M88.75,33.750043 C84.1936508,33.750043 80.5,37.4437515 80.5,42.0001719 L80.5,42.0001719 L80.5,50.2503008 L88.75,50.2503008 C93.3063492,50.2503008 97,46.5565923 97,42.0001719 C97,37.4437515 93.3063492,33.750043 88.75,33.750043 Z M61.5,36 C64.5375661,36 67,38.4624339 67,41.5 L67,41.5 L67,47 L61.5,47 C58.4624339,47 56,44.5375661 56,41.5 C56,38.4624339 58.4624339,36 61.5,36 Z M88.5,36 C91.5375661,36 94,38.4624339 94,41.5 C94,44.5375661 91.5375661,47 88.5,47 L88.5,47 L83,47 L83,41.5 C83,38.4624339 85.4624339,36 88.5,36 Z M61.5,38.75 C59.9812169,38.75 58.75,39.9812169 58.75,41.5 C58.75,43.0187831 59.9812169,44.25 61.5,44.25 L61.5,44.25 L64.25,44.25 L64.25,41.5 C64.25,39.9812169 63.0187831,38.75 61.5,38.75 Z M88.5,38.75 C86.9812169,38.75 85.75,39.9812169 85.75,41.5 L85.75,41.5 L85.75,44.25 L88.5,44.25 C90.0187831,44.25 91.25,43.0187831 91.25,41.5 C91.25,39.9812169 90.0187831,38.75 88.5,38.75 Z" id="Color"></path>
        </g>
    </g>
</svg>