<?xml version="1.0" encoding="UTF-8"?>
<svg width="92px" height="92px" viewBox="0 0 92 92" version="1.1" xmlns="http://www.w3.org/2000/svg" xmlns:xlink="http://www.w3.org/1999/xlink">
    <title>Color</title>
    <g id="⚙️-Symbols" stroke="none" stroke-width="1" fill="none" fill-rule="evenodd">
        <g id="Vector/Settings" transform="translate(-29.000000, -29.000000)" fill="#000000">
            <path d="M80.747125,29 C83.9228994,29 86.4976201,31.5740656 86.5,34.7496406 L86.5,34.7496406 L86.5,42.4728454 C87.6469577,42.8768089 88.7717014,43.3412645 89.8695,43.8642585 L89.8695,43.8642585 L95.329125,38.4049747 C97.5740059,36.1605833 101.213307,36.1605833 103.458187,38.4049747 L103.458187,38.4049747 L111.591562,46.5349666 C113.836589,48.7807215 113.837876,52.4204918 111.594437,54.6678333 L111.594437,54.6678333 L106.134812,60.1256796 C106.660261,61.2246679 107.125736,62.3513344 107.529187,63.5007187 L107.529187,63.5007187 L115.25,63.5007187 C118.425637,63.5007187 121,66.0749205 121,69.2503594 L121,69.2503594 L121,80.7496406 C121,83.9250795 118.425637,86.4992813 115.25,86.4992813 L115.25,86.4992813 L107.529187,86.4992813 C107.122375,87.6520842 106.658062,88.7790138 106.13625,89.8714455 L106.13625,89.8714455 L111.594437,95.3292919 C113.839134,97.5745257 113.839134,101.21405 111.594437,103.459284 L111.594437,103.459284 L103.4625,111.590713 C102.384348,112.669235 100.921875,113.275298 99.396829,113.275567 C97.8717828,113.275837 96.4090958,112.670291 95.3305625,111.59215 L95.3305625,111.59215 L89.872375,106.134304 C88.7748472,106.657907 87.6500707,107.122377 86.502875,107.525717 L86.502875,107.525717 L86.502875,115.250359 C86.5020812,118.425237 83.927951,120.998563 80.752875,120.998563 L80.752875,120.998563 L69.252875,121 C66.0771006,121 63.5023799,118.425934 63.5,115.250359 L63.5,115.250359 L63.5,107.527155 C62.3485625,107.120367 61.223,106.657521 60.1305,106.135742 L60.1305,106.135742 L54.670875,111.595025 C52.4259941,113.839417 48.7866934,113.839417 46.5418125,111.595025 L46.5418125,111.595025 L38.4084375,103.465033 C36.1634106,101.219279 36.1621239,97.5795082 38.4055625,95.3321667 L38.4055625,95.3321667 L43.8651875,89.8743204 C43.3405,88.7804512 42.877625,87.6535217 42.4708125,86.4992813 L42.4708125,86.4992813 L34.75,86.4992813 C31.5743627,86.4992813 29,83.9250795 29,80.7496406 L29,80.7496406 L29,69.2503594 C29,66.0749205 31.5743627,63.5007187 34.75,63.5007187 L34.75,63.5007187 L42.4708125,63.5007187 C42.877625,62.3479158 43.3419375,61.2209862 43.86375,60.1285545 L43.86375,60.1285545 L38.4055625,54.6707081 C36.1608664,52.4254743 36.1608664,48.78595 38.4055625,46.5407162 L38.4055625,46.5407162 L46.5375,38.4092869 C47.615652,37.3307654 49.0781249,36.7247022 50.603171,36.7244327 C52.1282172,36.7241631 53.5909042,37.3297092 54.6694375,38.4078495 L54.6694375,38.4078495 L60.127625,43.8656959 C61.2251528,43.3420925 62.3499293,42.8776234 63.497125,42.4742829 L63.497125,42.4742829 L63.497125,34.7496406 C63.4979188,31.5747632 66.072049,29.0014373 69.247125,29.0014374 L69.247125,29.0014374 Z M80.747125,31.8748203 L69.247125,31.8748203 C67.6593063,31.8748203 66.372125,33.1619212 66.372125,34.7496406 L66.372125,34.7496406 L66.375,43.3769764 C66.375,44.8143866 65.348625,44.8819449 64.8469375,45.0544341 C63.4712291,45.518944 62.1296513,46.0789805 60.832,46.7304543 C60.41225,46.9403162 59.751,47.552653 58.483125,46.2848572 L58.483125,46.2848572 L52.6396875,40.4417849 C51.5157828,39.3205318 49.6961117,39.3211749 48.573,40.4432223 L48.573,40.4432223 L40.4410625,48.5746516 C39.3187144,49.6972685 39.3187144,51.5170306 40.4410625,52.6396475 L40.4410625,52.6396475 L46.2514375,58.4496594 C47.310875,59.5090307 46.9570703,60.3703189 46.7091581,60.8740912 L46.6453125,61.0024998 C46.4325625,61.4294107 46.2313125,61.8620711 46.0386875,62.3019186 C45.6604548,63.1595245 45.3227488,64.0344356 45.0266875,64.9237548 C44.8656875,65.4024123 44.6356875,66.375539 43.377875,66.375539 L43.377875,66.375539 L34.752875,66.375539 C33.1650563,66.375539 31.877875,67.6626399 31.877875,69.2503594 L31.877875,69.2503594 L31.877875,80.7496406 C31.877875,82.3373601 33.1650563,83.624461 34.752875,83.624461 L34.752875,83.624461 L43.377875,83.624461 C44.6356875,83.624461 44.8656875,84.5975877 45.0266875,85.0762452 C45.5007421,86.4921822 46.0757808,87.872285 46.747375,89.2059246 C46.9529375,89.6127117 47.3180625,90.4866571 46.2514375,91.5532154 L46.2514375,91.5532154 L40.439625,97.3646647 C39.3193245,98.4897146 39.3206104,100.30907 40.4425,101.432535 L40.4425,101.432535 L48.5744375,109.562527 C49.6974528,110.684012 51.5166722,110.684012 52.6396875,109.562527 L52.6396875,109.562527 L58.4270625,103.774077 C59.650375,102.550841 60.4755,103.095619 60.9283125,103.319855 C61.3815024,103.545802 61.8402048,103.760521 62.304,103.963815 C63.2200828,104.362156 64.1534675,104.719467 65.101375,105.034685 C65.5225625,105.171239 66.375,105.208612 66.375,106.623024 L66.375,106.623024 L66.375,115.250359 C66.3773782,116.838215 67.6649185,118.12518 69.252875,118.12518 L69.252875,118.12518 L80.752875,118.12518 C82.3406937,118.12518 83.627875,116.838079 83.627875,115.250359 L83.627875,115.250359 L83.625,106.623024 C83.625,105.185613 84.651375,105.118055 85.1559375,104.945566 C86.5316459,104.481056 87.8732237,103.921019 89.170875,103.269546 C89.590625,103.059684 90.251875,102.447347 91.51975,103.715143 L91.51975,103.715143 L97.3631875,109.558215 C98.4870922,110.679468 100.306763,110.678825 101.429875,109.556778 L101.429875,109.556778 L109.561813,101.425348 C110.684161,100.302732 110.684161,98.4829694 109.561813,97.3603525 L109.561813,97.3603525 L103.751438,91.5503406 C102.692,90.4909693 103.045805,89.6296811 103.293717,89.1259088 L103.357563,88.9975002 C103.570312,88.5705893 103.771563,88.1379289 103.964188,87.6980814 C104.34242,86.8404755 104.680126,85.9655644 104.976188,85.0762452 C105.137188,84.5975877 105.367188,83.624461 106.625,83.624461 L106.625,83.624461 L115.25,83.624461 C116.837819,83.624461 118.125,82.3373601 118.125,80.7496406 L118.125,80.7496406 L118.122125,80.7496406 L118.122125,69.2503594 C118.122125,67.6626399 116.834944,66.375539 115.247125,66.375539 L115.247125,66.375539 L106.622125,66.375539 C105.364312,66.375539 105.134312,65.4024123 104.973312,64.9237548 C104.499258,63.5078178 103.924219,62.127715 103.252625,60.7940754 C103.047063,60.3872883 102.681938,59.5133429 103.748562,58.4467846 L103.748562,58.4467846 L109.560375,52.6353353 C110.680187,51.512718 110.680187,49.6929567 109.5575,48.5674645 L109.5575,48.5674645 L101.425562,40.4374727 C100.302547,39.3159875 98.4833278,39.3159875 97.3603125,40.4374727 L97.3603125,40.4374727 L91.5729375,46.2259234 C90.349625,47.4491594 89.5245,46.904381 89.0716875,46.680145 C88.6203125,46.4544716 88.1603125,46.2402975 87.696,46.0361852 C86.7799172,45.6378441 85.8465325,45.2805326 84.898625,44.9653147 C84.4774375,44.8287607 83.625,44.791388 83.625,43.3769764 L83.625,43.3769764 L83.625,34.7496406 C83.6226218,33.1617849 82.3350815,31.8748203 80.747125,31.8748203 L80.747125,31.8748203 Z M75,55 C86.0457143,55 95,63.9542857 95,75 C95,86.0457143 86.0457143,95 75,95 C63.9542857,95 55,86.0457143 55,75 C55,63.9542857 63.9542857,55 75,55 Z M75,57.8571429 C65.5328571,57.8571429 57.8571429,65.5328571 57.8571429,75 C57.8571429,84.4671429 65.5328571,92.1428571 75,92.1428571 C84.4671429,92.1428571 92.1428571,84.4671429 92.1428571,75 C92.1428571,65.5328571 84.4671429,57.8571429 75,57.8571429 Z M75,70 C78.3137085,70 81,72.4624339 81,75.5 C81,78.5375661 78.3137085,81 75,81 C71.6862915,81 69,78.5375661 69,75.5 C69,72.4624339 71.6862915,70 75,70 Z M75.0015,72.7486249 C73.3442315,72.7482453 72.0004142,73.9794622 71.9999999,75.498625 C71.9995858,77.0177878 73.3427315,78.2496203 74.9999999,78.2500001 C76.6572684,78.2503797 78.0010857,77.0191627 78.0015001,75.5 C78.0019142,73.9808373 76.6587684,72.7490047 75.0015,72.7486249 Z" id="Color"></path>
        </g>
    </g>
</svg>